<svg width="42" height="48" viewBox="0 0 42 48" fill="none" xmlns="http://www.w3.org/2000/svg">
<path d="M7.00011 45.4999H23.5001L34 41C34.3333 39 35.9 34.2 39.5 31C43.1 27.8 35.6667 18.6667 31.5 14.5L13 17.4999C11.6667 16.6666 7.70011 17.5999 2.50011 27.9999C-2.69989 38.3999 3.33345 43.9999 7.00011 45.4999Z" fill="white"/>
<path d="M2.12635 34.8016C2.12635 34.8016 0.91686 44.9698 8.9801 39.8034C8.9801 39.8034 11.5604 37.7739 13.6768 35.4371C15.793 33.1003 18.3332 30.3939 26.7996 29.7789C35.266 29.1639 37.322 30.3326 37.1406 27.9953C36.959 25.6585 36.657 25.4121 36.657 25.4121C36.657 25.4121 41.132 31.3161 35.266 31.6852C29.4001 32.0544 18.575 31.624 14.5233 45.8302C14.5233 45.8302 -0.95767 48.9267 2.12635 34.8016Z" fill="#FF8717"/>
<path d="M15.5967 45.8095L33.7999 47.0395L37.1865 41.6891L40.5128 41.4432L39.0007 33.0179C39.0007 33.0179 43.4154 29.2665 39.2425 24.5305C39.2425 24.5305 42.3265 30.9264 34.8279 33.6329C27.3285 36.3381 19.104 33.2632 15.5967 45.8095Z" fill="#FF8717"/>
<path d="M36.2346 22.6668L34.2991 12.8269L29.5416 10.4487L23.6016 10.7005C23.7675 12.0215 23.8795 13.4992 23.9238 15.1526C24.0076 15.3038 24.0587 15.4755 24.0587 15.6613C24.0587 16.2389 23.5987 16.7067 23.0307 16.7067C22.4628 16.7067 22.0027 16.2389 22.0027 15.6613C22.0027 15.4166 22.0889 15.1946 22.2273 15.0165C22.1807 13.4267 22.0705 12.0192 21.912 10.7723L11.9139 11.1957C11.7801 13.1494 11.8392 14.8431 11.8846 15.6648C11.9828 15.8248 12.042 16.0123 12.042 16.2149C12.042 16.7926 11.5819 17.2603 11.0139 17.2603C10.4459 17.2603 9.98593 16.7926 9.98593 16.2149C9.98593 15.986 10.0606 15.7758 10.1829 15.6041C10.1352 14.7128 10.0887 13.1202 10.2088 11.2681L6.319 11.4329L4.30319 23.7327C4.30319 23.7327 -2.79235 31.5226 1.23928 41.609C1.23928 41.609 -2.1474 30.0468 11.3183 21.8469C24.7841 13.6469 33.815 20.9451 33.815 20.9451L31.5011 21.1641C30.8332 21.2272 30.1601 21.1665 29.5163 20.9743C28.0301 20.531 24.9098 20.0264 23.1713 22.831C23.1713 22.831 11.9633 26.8492 7.85124 33.9832C7.85124 33.9832 13.8183 26.1109 23.4131 23.8975C23.4131 23.8975 23.8164 26.3574 26.3967 25.4551C28.977 24.5533 30.4284 24.4709 30.4284 24.4709C30.4284 24.4709 32.4441 24.7169 31.2347 22.6668H36.2346ZM29.1413 23.8373C28.9748 23.8355 28.7961 23.7841 28.6147 23.651C28.2086 23.3525 27.8152 23.5038 27.5476 23.6947C27.149 23.9787 26.6827 24.1579 26.1963 24.1573C25.5662 24.1567 24.8535 23.9623 24.7444 23.1183C24.5429 21.5607 27.3248 21.3966 27.3248 21.3966C27.3248 21.3966 29.4049 21.2155 29.9166 22.591C30.1342 23.175 29.7564 23.8443 29.1413 23.8373Z" fill="#11100D"/>
<path d="M10.4771 16.3266C10.4346 15.8524 9.48932 4.67495 14.3491 0.864086C15.8882 -0.343127 18.0528 -0.278882 19.4961 1.01594C21.3332 2.66468 23.5535 6.56257 23.6982 15.7688L22.4887 15.7886C22.3514 7.03097 20.35 3.42335 18.6954 1.93872C17.6858 1.03287 16.1685 0.990238 15.0876 1.83827C10.7528 5.23796 11.6716 16.1058 11.6814 16.215L10.4771 16.3266Z" fill="#11100D"/>
</svg>
