<svg width="183" height="56" viewBox="0 0 183 56" fill="none" xmlns="http://www.w3.org/2000/svg">
<g clip-path="url(#clip0_26_1510)">
<path d="M59.4955 28V6.82181H67.7695C69.3533 6.82181 70.7051 7.10791 71.8246 7.6801C72.9511 8.24541 73.8079 9.04855 74.3949 10.0895C74.9888 11.1236 75.2858 12.3404 75.2858 13.7399C75.2858 15.1462 74.9854 16.3561 74.3847 17.3695C73.7839 18.3761 72.9135 19.1482 71.7734 19.6859C70.6402 20.2236 69.268 20.4925 67.6568 20.4925H62.1169V16.8939H66.94C67.7866 16.8939 68.4898 16.7767 69.0495 16.5423C69.6093 16.3079 70.0257 15.9563 70.2988 15.4875C70.5787 15.0187 70.7187 14.4361 70.7187 13.7399C70.7187 13.0367 70.5787 12.4439 70.2988 11.9613C70.0257 11.4787 69.606 11.1133 69.0393 10.8651C68.4795 10.61 67.773 10.4825 66.9196 10.4825H63.9294V28H59.4955ZM70.8211 18.3623L76.0334 28H71.1385L66.0389 18.3623H70.8211ZM83.6876 28.2999C82.6841 28.2999 81.7899 28.1241 81.0047 27.7725C80.2196 27.414 79.5984 26.8866 79.141 26.1903C78.6905 25.4872 78.4652 24.6117 78.4652 23.5638C78.4652 22.6813 78.6256 21.9402 78.9465 21.3405C79.2674 20.7407 79.7042 20.2581 80.2572 19.8928C80.8102 19.5273 81.4383 19.2516 82.1415 19.0654C82.8514 18.8793 83.5955 18.7483 84.3737 18.6725C85.2886 18.576 86.0258 18.4864 86.5857 18.4036C87.1455 18.314 87.5516 18.183 87.8043 18.0107C88.0568 17.8383 88.1831 17.5832 88.1831 17.2454V17.1834C88.1831 16.5285 87.9783 16.0218 87.5687 15.6633C87.166 15.3048 86.5925 15.1256 85.8484 15.1256C85.0632 15.1256 84.4386 15.3013 83.9744 15.653C83.5102 15.9976 83.203 16.432 83.0528 16.9559L79.0181 16.6251C79.223 15.6598 79.6257 14.8257 80.2265 14.1225C80.8273 13.4124 81.6021 12.8678 82.551 12.4887C83.5067 12.1026 84.6127 11.9095 85.8689 11.9095C86.7426 11.9095 87.579 12.013 88.3777 12.2198C89.1833 12.4266 89.8967 12.7472 90.5179 13.1815C91.1459 13.6158 91.6409 14.1742 92.0027 14.8567C92.3645 15.5323 92.5454 16.3424 92.5454 17.2869V28H88.4084V25.7974H88.2855C88.0329 26.2938 87.695 26.7315 87.2718 27.1107C86.8484 27.483 86.3399 27.776 85.746 27.9897C85.152 28.1964 84.4659 28.2999 83.6876 28.2999ZM84.937 25.2597C85.5788 25.2597 86.1453 25.1321 86.6368 24.877C87.1284 24.615 87.5141 24.2635 87.794 23.8223C88.0739 23.381 88.2138 22.8813 88.2138 22.3228V20.6372C88.0773 20.7269 87.8895 20.8096 87.6506 20.8854C87.4185 20.9544 87.1557 21.0199 86.8622 21.082C86.5686 21.1371 86.275 21.1888 85.9815 21.237C85.6879 21.2784 85.4217 21.3163 85.1827 21.3508C84.6707 21.4266 84.2235 21.5472 83.8412 21.7128C83.4589 21.8782 83.162 22.1022 82.9504 22.3849C82.7388 22.6606 82.6329 23.0054 82.6329 23.419C82.6329 24.0187 82.8479 24.4771 83.2781 24.7943C83.715 25.1046 84.2679 25.2597 84.937 25.2597ZM102.591 28.2585C101.396 28.2585 100.314 27.9483 99.3447 27.3279C98.3821 26.7005 97.6175 25.7802 97.051 24.5669C96.4911 23.3466 96.2113 21.8506 96.2113 20.0789C96.2113 18.2589 96.5014 16.7457 97.0817 15.5392C97.662 14.3259 98.4333 13.4193 99.3959 12.8195C100.365 12.2129 101.427 11.9095 102.581 11.9095C103.461 11.9095 104.195 12.0612 104.782 12.3646C105.376 12.661 105.854 13.0332 106.216 13.4813C106.584 13.9226 106.864 14.3569 107.056 14.7843H107.189V6.82181H111.541V28H107.24V25.4561H107.056C106.851 25.8973 106.561 26.3351 106.185 26.7695C105.817 27.1968 105.335 27.5519 104.741 27.8346C104.154 28.1171 103.437 28.2585 102.591 28.2585ZM103.973 24.753C104.676 24.753 105.27 24.5599 105.755 24.1738C106.247 23.781 106.622 23.2328 106.882 22.5297C107.148 21.8264 107.281 21.0027 107.281 20.0582C107.281 19.1137 107.151 18.2933 106.892 17.597C106.632 16.9008 106.257 16.363 105.765 15.9839C105.274 15.6047 104.676 15.4151 103.973 15.4151C103.256 15.4151 102.652 15.6116 102.161 16.0046C101.669 16.3975 101.297 16.9421 101.045 17.6384C100.792 18.3347 100.666 19.1412 100.666 20.0582C100.666 20.982 100.792 21.7989 101.045 22.509C101.304 23.2121 101.676 23.7637 102.161 24.1635C102.652 24.5564 103.256 24.753 103.973 24.753ZM115.992 28V12.1164H120.355V28H115.992ZM118.184 10.0689C117.536 10.0689 116.979 9.85169 116.514 9.41738C116.057 8.97617 115.829 8.44878 115.829 7.83522C115.829 7.22855 116.057 6.70807 116.514 6.27374C116.979 5.83253 117.536 5.61192 118.184 5.61192C118.832 5.61192 119.386 5.83253 119.843 6.27374C120.307 6.70807 120.539 7.22855 120.539 7.83522C120.539 8.44878 120.307 8.97617 119.843 9.41738C119.386 9.85169 118.832 10.0689 118.184 10.0689ZM131.821 28.3102C130.231 28.3102 128.855 27.969 127.694 27.2864C126.541 26.5971 125.65 25.6388 125.021 24.4117C124.393 23.1777 124.08 21.7471 124.08 20.1202C124.08 18.4794 124.393 17.0455 125.021 15.8184C125.65 14.5844 126.541 13.6261 127.694 12.9436C128.855 12.2543 130.231 11.9095 131.821 11.9095C133.411 11.9095 134.783 12.2543 135.938 12.9436C137.098 13.6261 137.992 14.5844 138.621 15.8184C139.249 17.0455 139.562 18.4794 139.562 20.1202C139.562 21.7471 139.249 23.1777 138.621 24.4117C137.992 25.6388 137.098 26.5971 135.938 27.2864C134.783 27.969 133.411 28.3102 131.821 28.3102ZM131.842 24.8977C132.565 24.8977 133.17 24.691 133.654 24.2772C134.139 23.8568 134.504 23.2846 134.75 22.5607C135.002 21.8369 135.128 21.013 135.128 20.0892C135.128 19.1654 135.002 18.3416 134.75 17.6177C134.504 16.8939 134.139 16.3216 133.654 15.9011C133.17 15.4806 132.565 15.2703 131.842 15.2703C131.111 15.2703 130.497 15.4806 129.999 15.9011C129.506 16.3216 129.135 16.8939 128.882 17.6177C128.637 18.3416 128.514 19.1654 128.514 20.0892C128.514 21.013 128.637 21.8369 128.882 22.5607C129.135 23.2846 129.506 23.8568 129.999 24.2772C130.497 24.691 131.111 24.8977 131.842 24.8977ZM156.351 16.6457L152.358 16.8939C152.289 16.5491 152.143 16.239 151.918 15.9631C151.691 15.6806 151.395 15.4564 151.026 15.291C150.664 15.1187 150.231 15.0325 149.726 15.0325C149.05 15.0325 148.48 15.1772 148.016 15.4669C147.551 15.7494 147.319 16.1287 147.319 16.6043C147.319 16.9835 147.469 17.304 147.77 17.566C148.07 17.828 148.586 18.0383 149.316 18.1969L152.163 18.7759C153.692 19.093 154.832 19.6031 155.583 20.3064C156.334 21.0095 156.71 21.9333 156.71 23.0777C156.71 24.1187 156.406 25.0321 155.798 25.818C155.197 26.604 154.371 27.2176 153.32 27.6587C152.276 28.0931 151.07 28.3102 149.705 28.3102C147.623 28.3102 145.964 27.8724 144.729 26.9969C143.5 26.1145 142.78 24.915 142.568 23.3983L146.858 23.1708C146.988 23.812 147.303 24.3014 147.801 24.6392C148.299 24.9701 148.938 25.1356 149.715 25.1356C150.48 25.1356 151.095 24.9873 151.558 24.691C152.03 24.3875 152.269 23.998 152.276 23.5223C152.269 23.1225 152.102 22.795 151.774 22.54C151.446 22.278 150.941 22.0781 150.258 21.9402L147.535 21.3921C145.998 21.082 144.855 20.5442 144.104 19.779C143.36 19.0138 142.987 18.0383 142.987 16.8525C142.987 15.8322 143.261 14.9532 143.807 14.2156C144.36 13.478 145.134 12.9091 146.132 12.5093C147.135 12.1094 148.309 11.9095 149.654 11.9095C151.64 11.9095 153.204 12.3335 154.344 13.1815C155.491 14.0295 156.16 15.1842 156.351 16.6457Z" fill="black"/>
<path d="M59.0403 52.64V41.2364H65.8554V42.4613H60.4077V46.3146H65.5026V47.5395H60.4077V51.4149H65.9437V52.64H59.0403ZM69.445 41.2364V52.64H68.1438V41.2364H69.445ZM75.3794 52.8182C74.5633 52.8182 73.8594 52.6363 73.2676 52.2725C72.6794 51.9051 72.2255 51.3928 71.9056 50.7357C71.5895 50.075 71.4315 49.3066 71.4315 48.4305C71.4315 47.5544 71.5895 46.7823 71.9056 46.1141C72.2255 45.4422 72.6702 44.9188 73.24 44.5439C73.8135 44.1652 74.4825 43.9759 75.2471 43.9759C75.6882 43.9759 76.1238 44.0502 76.5539 44.1987C76.984 44.3471 77.3754 44.5884 77.7284 44.9225C78.0813 45.2529 78.3625 45.691 78.572 46.2366C78.7815 46.7823 78.8864 47.4542 78.8864 48.2523V48.809H72.3578V47.6731H77.563C77.563 47.1906 77.4674 46.76 77.2762 46.3813C77.0887 46.0028 76.8205 45.704 76.4712 45.4849C76.1256 45.2659 75.7176 45.1564 75.2471 45.1564C74.7288 45.1564 74.2803 45.2863 73.9017 45.5461C73.5268 45.8023 73.2382 46.1364 73.036 46.5484C72.8338 46.9605 72.7328 47.4022 72.7328 47.8736V48.631C72.7328 49.2769 72.843 49.8243 73.0636 50.2736C73.2878 50.719 73.5984 51.0587 73.9955 51.2925C74.3924 51.5227 74.8538 51.6377 75.3794 51.6377C75.7213 51.6377 76.0301 51.5894 76.3057 51.493C76.5851 51.3928 76.8259 51.2443 77.0281 51.0475C77.2303 50.847 77.3865 50.5984 77.4968 50.3013L78.7539 50.6577C78.6216 51.0884 78.3992 51.467 78.0868 51.7936C77.7743 52.1166 77.3883 52.369 76.9288 52.551C76.4693 52.729 75.9529 52.8182 75.3794 52.8182ZM84.3065 52.8182C83.5125 52.8182 82.8287 52.6289 82.2553 52.2502C81.6818 51.8716 81.2407 51.35 80.932 50.6856C80.6232 50.0211 80.4688 49.262 80.4688 48.4082C80.4688 47.5395 80.6269 46.773 80.9431 46.1085C81.2628 45.4403 81.7077 44.9188 82.2774 44.5439C82.8508 44.1652 83.5198 43.9759 84.2844 43.9759C84.88 43.9759 85.4167 44.0872 85.8945 44.31C86.3724 44.5328 86.7639 44.8446 87.069 45.2454C87.3741 45.6464 87.5634 46.1141 87.637 46.6487H86.3357C86.2364 46.2589 86.0158 45.9136 85.674 45.613C85.3358 45.3086 84.88 45.1564 84.3065 45.1564C83.7992 45.1564 83.3544 45.29 82.9721 45.5572C82.5935 45.8209 82.2976 46.194 82.0844 46.6765C81.8749 47.1554 81.7701 47.7177 81.7701 48.3636C81.7701 49.0244 81.873 49.5998 82.0789 50.0898C82.2884 50.5798 82.5825 50.9602 82.9612 51.2313C83.3435 51.5022 83.7919 51.6377 84.3065 51.6377C84.6448 51.6377 84.9516 51.5784 85.2274 51.4595C85.5031 51.3408 85.7364 51.17 85.9276 50.9472C86.1187 50.7246 86.2548 50.4572 86.3357 50.1454H87.637C87.5634 50.6503 87.3814 51.105 87.0911 51.5097C86.8044 51.9105 86.4238 52.2299 85.9497 52.4674C85.4791 52.7013 84.9315 52.8182 84.3065 52.8182ZM93.2226 44.0872V45.201H88.8335V44.0872H93.2226ZM90.1127 42.0382H91.414V50.19C91.414 50.5612 91.4673 50.8396 91.5739 51.0252C91.6842 51.2071 91.8239 51.3296 91.9929 51.3928C92.1657 51.4521 92.3477 51.4818 92.5388 51.4818C92.6822 51.4818 92.7998 51.4744 92.8917 51.4595C92.9837 51.441 93.0571 51.4261 93.1123 51.4149L93.377 52.5954C93.2887 52.6289 93.1656 52.6623 93.0075 52.6957C92.8495 52.7329 92.6491 52.7513 92.4065 52.7513C92.039 52.7513 91.6786 52.6716 91.3258 52.512C90.9766 52.3523 90.6862 52.1091 90.4546 51.7825C90.2267 51.4558 90.1127 51.0438 90.1127 50.5464V42.0382ZM95.18 52.64V44.0872H96.4372V45.379H96.5254C96.6798 44.9559 96.9592 44.6125 97.3636 44.349C97.7678 44.0854 98.2237 43.9536 98.731 43.9536C98.8266 43.9536 98.946 43.9555 99.0894 43.9592C99.2327 43.9629 99.3412 43.9685 99.4147 43.9759V45.3123C99.3706 45.3011 99.2696 45.2844 99.1114 45.2621C98.957 45.2361 98.7935 45.2231 98.6207 45.2231C98.209 45.2231 97.8414 45.3104 97.518 45.4849C97.1981 45.6557 96.9445 45.8932 96.757 46.1977C96.5732 46.4983 96.4813 46.8417 96.4813 47.2277V52.64H95.18ZM104.14 52.8182C103.376 52.8182 102.705 52.6344 102.128 52.2669C101.554 51.8995 101.106 51.3853 100.782 50.7246C100.462 50.0638 100.302 49.2917 100.302 48.4082C100.302 47.5172 100.462 46.7396 100.782 46.0751C101.106 45.4106 101.554 44.8946 102.128 44.5272C102.705 44.1597 103.376 43.9759 104.14 43.9759C104.905 43.9759 105.574 44.1597 106.147 44.5272C106.724 44.8946 107.173 45.4106 107.493 46.0751C107.816 46.7396 107.978 47.5172 107.978 48.4082C107.978 49.2917 107.816 50.0638 107.493 50.7246C107.173 51.3853 106.724 51.8995 106.147 52.2669C105.574 52.6344 104.905 52.8182 104.14 52.8182ZM104.14 51.6377C104.721 51.6377 105.199 51.4874 105.574 51.1867C105.949 50.886 106.226 50.4907 106.406 50.0007C106.587 49.5107 106.677 48.9798 106.677 48.4082C106.677 47.8365 106.587 47.3039 106.406 46.8101C106.226 46.3164 105.949 45.9173 105.574 45.613C105.199 45.3086 104.721 45.1564 104.14 45.1564C103.559 45.1564 103.082 45.3086 102.707 45.613C102.332 45.9173 102.054 46.3164 101.874 46.8101C101.694 47.3039 101.604 47.8365 101.604 48.4082C101.604 48.9798 101.694 49.5107 101.874 50.0007C102.054 50.4907 102.332 50.886 102.707 51.1867C103.082 51.4874 103.559 51.6377 104.14 51.6377ZM111.265 47.4949V52.64H109.964V44.0872H111.222V45.4236H111.332C111.53 44.9893 111.832 44.6404 112.236 44.3769C112.64 44.1095 113.163 43.9759 113.802 43.9759C114.375 43.9759 114.877 44.0947 115.308 44.3323C115.737 44.5662 116.072 44.9225 116.31 45.4013C116.55 45.8765 116.67 46.4779 116.67 47.2054V52.64H115.368V47.2946C115.368 46.6227 115.195 46.0992 114.85 45.7243C114.504 45.3457 114.03 45.1564 113.427 45.1564C113.012 45.1564 112.64 45.2473 112.313 45.4292C111.989 45.6111 111.734 45.8766 111.547 46.2254C111.359 46.5744 111.265 46.9976 111.265 47.4949ZM119.048 52.64V44.0872H120.349V52.64H119.048ZM119.709 42.6618C119.455 42.6618 119.236 42.5746 119.053 42.4001C118.872 42.2257 118.783 42.0159 118.783 41.771C118.783 41.5259 118.872 41.3161 119.053 41.1417C119.236 40.9673 119.455 40.88 119.709 40.88C119.963 40.88 120.179 40.9673 120.36 41.1417C120.543 41.3161 120.635 41.5259 120.635 41.771C120.635 42.0159 120.543 42.2257 120.36 42.4001C120.179 42.5746 119.963 42.6618 119.709 42.6618ZM126.172 52.8182C125.378 52.8182 124.695 52.6289 124.122 52.2502C123.548 51.8716 123.107 51.35 122.797 50.6856C122.489 50.0211 122.335 49.262 122.335 48.4082C122.335 47.5395 122.492 46.773 122.809 46.1085C123.129 45.4403 123.574 44.9188 124.144 44.5439C124.717 44.1652 125.386 43.9759 126.15 43.9759C126.746 43.9759 127.283 44.0872 127.761 44.31C128.239 44.5328 128.63 44.8446 128.935 45.2454C129.24 45.6464 129.43 46.1141 129.503 46.6487H128.202C128.102 46.2589 127.882 45.9136 127.54 45.613C127.202 45.3086 126.746 45.1564 126.172 45.1564C125.666 45.1564 125.221 45.29 124.838 45.5572C124.46 45.8209 124.164 46.194 123.951 46.6765C123.741 47.1554 123.636 47.7177 123.636 48.3636C123.636 49.0244 123.739 49.5998 123.945 50.0898C124.154 50.5798 124.449 50.9602 124.827 51.2313C125.21 51.5022 125.658 51.6377 126.172 51.6377C126.511 51.6377 126.818 51.5784 127.093 51.4595C127.369 51.3408 127.602 51.17 127.794 50.9472C127.985 50.7246 128.121 50.4572 128.202 50.1454H129.503C129.43 50.6503 129.248 51.105 128.957 51.5097C128.67 51.9105 128.29 52.2299 127.816 52.4674C127.345 52.7013 126.798 52.8182 126.172 52.8182ZM137.404 46.0028L136.235 46.3369C136.162 46.1401 136.053 45.9489 135.91 45.7633C135.771 45.574 135.58 45.418 135.337 45.2956C135.094 45.1731 134.783 45.1118 134.405 45.1118C133.886 45.1118 133.455 45.2324 133.109 45.4738C132.767 45.7113 132.596 46.0139 132.596 46.3813C132.596 46.708 132.714 46.966 132.949 47.1554C133.184 47.3446 133.552 47.5025 134.051 47.6287L135.309 47.9405C136.067 48.1261 136.631 48.41 137.002 48.7924C137.373 49.171 137.558 49.6591 137.558 50.2569C137.558 50.7469 137.419 51.1849 137.14 51.571C136.864 51.957 136.478 52.2613 135.982 52.4841C135.485 52.7069 134.909 52.8182 134.25 52.8182C133.387 52.8182 132.672 52.6289 132.106 52.2502C131.539 51.8716 131.181 51.3185 131.03 50.591L132.266 50.279C132.383 50.7394 132.605 51.0847 132.932 51.3148C133.264 51.545 133.695 51.66 134.229 51.66C134.834 51.66 135.317 51.5301 135.673 51.2702C136.033 51.0067 136.213 50.6911 136.213 50.3236C136.213 50.0267 136.111 49.778 135.905 49.5775C135.698 49.3733 135.382 49.2211 134.956 49.121L133.545 48.7869C132.769 48.6012 132.199 48.3136 131.835 47.9238C131.475 47.5302 131.295 47.0384 131.295 46.4482C131.295 45.9656 131.43 45.5388 131.698 45.1675C131.97 44.7963 132.339 44.5049 132.806 44.2933C133.276 44.0817 133.81 43.9759 134.405 43.9759C135.243 43.9759 135.901 44.1615 136.378 44.5328C136.861 44.9039 137.202 45.3939 137.404 46.0028ZM150.236 44.0872C150.171 43.523 149.903 43.0851 149.431 42.7731C148.961 42.4613 148.384 42.3054 147.7 42.3054C147.201 42.3054 146.763 42.3871 146.388 42.5505C146.016 42.7138 145.727 42.9383 145.517 43.2242C145.311 43.51 145.208 43.8349 145.208 44.1987C145.208 44.503 145.28 44.7647 145.423 44.9838C145.57 45.1991 145.758 45.379 145.985 45.5239C146.214 45.665 146.452 45.7819 146.703 45.8746C146.952 45.9638 147.182 46.0361 147.392 46.0918L148.538 46.4036C148.832 46.4816 149.159 46.5892 149.52 46.7266C149.884 46.8639 150.231 47.0514 150.562 47.289C150.896 47.5228 151.172 47.8236 151.389 48.191C151.606 48.5585 151.715 49.0095 151.715 49.5441C151.715 50.1603 151.555 50.7171 151.235 51.2146C150.918 51.712 150.456 52.1073 149.845 52.4006C149.238 52.6939 148.502 52.8405 147.634 52.8405C146.826 52.8405 146.125 52.7087 145.534 52.4451C144.945 52.1816 144.482 51.814 144.144 51.3426C143.809 50.8712 143.62 50.3236 143.576 49.7H144.987C145.025 50.1306 145.168 50.487 145.417 50.769C145.671 51.0475 145.991 51.2553 146.377 51.3928C146.767 51.5264 147.185 51.5931 147.634 51.5931C148.156 51.5931 148.625 51.5078 149.041 51.337C149.456 51.1626 149.785 50.9213 150.027 50.6131C150.27 50.3013 150.392 49.9376 150.392 49.5218C150.392 49.1431 150.286 48.835 150.077 48.5975C149.867 48.3599 149.592 48.1669 149.249 48.0184C148.908 47.8699 148.538 47.74 148.141 47.6287L146.752 47.2277C145.87 46.9716 145.171 46.606 144.657 46.1308C144.142 45.6557 143.885 45.0339 143.885 44.2654C143.885 43.627 144.055 43.0702 144.397 42.5949C144.743 42.1161 145.207 41.745 145.787 41.4813C146.371 41.2141 147.024 41.0805 147.744 41.0805C148.472 41.0805 149.12 41.2122 149.685 41.4758C150.252 41.7357 150.7 42.092 151.031 42.5449C151.365 42.9978 151.542 43.5119 151.561 44.0872H150.236ZM157.47 44.0872V45.201H153.08V44.0872H157.47ZM154.36 42.0382H155.661V50.19C155.661 50.5612 155.714 50.8396 155.821 51.0252C155.932 51.2071 156.071 51.3296 156.24 51.3928C156.413 51.4521 156.595 51.4818 156.786 51.4818C156.93 51.4818 157.047 51.4744 157.139 51.4595C157.23 51.441 157.305 51.4261 157.359 51.4149L157.624 52.5954C157.535 52.6289 157.412 52.6623 157.255 52.6957C157.096 52.7329 156.896 52.7513 156.654 52.7513C156.286 52.7513 155.926 52.6716 155.573 52.512C155.224 52.3523 154.933 52.1091 154.702 51.7825C154.474 51.4558 154.36 51.0438 154.36 50.5464V42.0382ZM162.777 52.8182C162.013 52.8182 161.342 52.6344 160.764 52.2669C160.19 51.8995 159.742 51.3853 159.419 50.7246C159.099 50.0638 158.939 49.2917 158.939 48.4082C158.939 47.5172 159.099 46.7396 159.419 46.0751C159.742 45.4106 160.19 44.8946 160.764 44.5272C161.342 44.1597 162.013 43.9759 162.777 43.9759C163.541 43.9759 164.211 44.1597 164.784 44.5272C165.361 44.8946 165.809 45.4106 166.13 46.0751C166.452 46.7396 166.614 47.5172 166.614 48.4082C166.614 49.2917 166.452 50.0638 166.13 50.7246C165.809 51.3853 165.361 51.8995 164.784 52.2669C164.211 52.6344 163.541 52.8182 162.777 52.8182ZM162.777 51.6377C163.358 51.6377 163.836 51.4874 164.211 51.1867C164.586 50.886 164.863 50.4907 165.043 50.0007C165.224 49.5107 165.313 48.9798 165.313 48.4082C165.313 47.8365 165.224 47.3039 165.043 46.8101C164.863 46.3164 164.586 45.9173 164.211 45.613C163.836 45.3086 163.358 45.1564 162.777 45.1564C162.196 45.1564 161.718 45.3086 161.343 45.613C160.968 45.9173 160.691 46.3164 160.511 46.8101C160.33 47.3039 160.24 47.8365 160.24 48.4082C160.24 48.9798 160.33 49.5107 160.511 50.0007C160.691 50.4907 160.968 50.886 161.343 51.1867C161.718 51.4874 162.196 51.6377 162.777 51.6377ZM168.601 52.64V44.0872H169.858V45.379H169.946C170.1 44.9559 170.38 44.6125 170.785 44.349C171.189 44.0854 171.645 43.9536 172.152 43.9536C172.247 43.9536 172.367 43.9555 172.51 43.9592C172.653 43.9629 172.762 43.9685 172.835 43.9759V45.3123C172.792 45.3011 172.69 45.2844 172.532 45.2621C172.378 45.2361 172.214 45.2231 172.041 45.2231C171.63 45.2231 171.263 45.3104 170.939 45.4849C170.619 45.6557 170.365 45.8932 170.178 46.1977C169.994 46.4983 169.903 46.8417 169.903 47.2277V52.64H168.601ZM177.671 52.8182C176.856 52.8182 176.151 52.6363 175.559 52.2725C174.971 51.9051 174.518 51.3928 174.197 50.7357C173.881 50.075 173.724 49.3066 173.724 48.4305C173.724 47.5544 173.881 46.7823 174.197 46.1141C174.518 45.4422 174.962 44.9188 175.533 44.5439C176.106 44.1652 176.775 43.9759 177.539 43.9759C177.98 43.9759 178.416 44.0502 178.845 44.1987C179.276 44.3471 179.667 44.5884 180.02 44.9225C180.374 45.2529 180.654 45.691 180.864 46.2366C181.074 46.7823 181.178 47.4542 181.178 48.2523V48.809H174.65V47.6731H179.855C179.855 47.1906 179.759 46.76 179.569 46.3813C179.381 46.0028 179.113 45.704 178.763 45.4849C178.417 45.2659 178.009 45.1564 177.539 45.1564C177.021 45.1564 176.572 45.2863 176.194 45.5461C175.819 45.8023 175.53 46.1364 175.328 46.5484C175.125 46.9605 175.025 47.4022 175.025 47.8736V48.631C175.025 49.2769 175.135 49.8243 175.355 50.2736C175.58 50.719 175.891 51.0587 176.288 51.2925C176.685 51.5227 177.146 51.6377 177.671 51.6377C178.014 51.6377 178.322 51.5894 178.598 51.493C178.878 51.3928 179.118 51.2443 179.32 51.0475C179.522 50.847 179.678 50.5984 179.789 50.3013L181.046 50.6577C180.914 51.0884 180.691 51.467 180.379 51.7936C180.066 52.1166 179.681 52.369 179.221 52.551C178.761 52.729 178.245 52.8182 177.671 52.8182Z" fill="#65687D"/>
<path d="M2.12635 34.8018C2.12635 34.8018 0.91686 44.9699 8.9801 39.8036C8.9801 39.8036 11.5604 37.774 13.6768 35.4373C15.793 33.1005 18.3332 30.394 26.7996 29.779C35.266 29.164 37.322 30.3327 37.1406 27.9954C36.959 25.6586 36.657 25.4122 36.657 25.4122C36.657 25.4122 41.132 31.3162 35.266 31.6854C29.4001 32.0545 18.575 31.6241 14.5233 45.8303C14.5233 45.8303 -0.95767 48.9269 2.12635 34.8018Z" fill="#FF8717"/>
<path d="M15.5966 45.8096L33.7997 47.0396L37.1863 41.6892L40.5127 41.4433L39.0006 33.0179C39.0006 33.0179 43.4153 29.2666 39.2424 24.5306C39.2424 24.5306 42.3264 30.9265 34.8277 33.6329C27.3284 36.3382 19.1038 33.2632 15.5966 45.8096Z" fill="#FF8717"/>
<path d="M36.2346 22.6667L34.2991 12.8268L29.5416 10.4486L23.6016 10.7003C23.7675 12.0214 23.8795 13.499 23.9238 15.1525C24.0076 15.3037 24.0587 15.4754 24.0587 15.6612C24.0587 16.2388 23.5987 16.7066 23.0307 16.7066C22.4628 16.7066 22.0027 16.2388 22.0027 15.6612C22.0027 15.4165 22.0889 15.1945 22.2273 15.0164C22.1807 13.4266 22.0705 12.0191 21.912 10.7721L11.9139 11.1956C11.7801 13.1492 11.8392 14.8429 11.8846 15.6647C11.9828 15.8247 12.042 16.0122 12.042 16.2148C12.042 16.7925 11.5819 17.2602 11.0139 17.2602C10.4459 17.2602 9.98593 16.7925 9.98593 16.2148C9.98593 15.9859 10.0606 15.7757 10.1829 15.604C10.1352 14.7127 10.0887 13.12 10.2088 11.268L6.319 11.4327L4.30319 23.7326C4.30319 23.7326 -2.79235 31.5225 1.23928 41.6089C1.23928 41.6089 -2.1474 30.0467 11.3183 21.8467C24.7841 13.6468 33.815 20.945 33.815 20.945L31.5011 21.164C30.8332 21.227 30.1601 21.1663 29.5163 20.9741C28.0301 20.5308 24.9098 20.0263 23.1714 22.8309C23.1714 22.8309 11.9633 26.8491 7.85124 33.983C7.85124 33.983 13.8183 26.1108 23.4131 23.8973C23.4131 23.8973 23.8164 26.3573 26.3967 25.4549C28.977 24.5532 30.4284 24.4708 30.4284 24.4708C30.4284 24.4708 32.4441 24.7167 31.2347 22.6667H36.2346ZM29.1413 23.8372C28.9748 23.8354 28.7961 23.784 28.6147 23.6508C28.2086 23.3523 27.8152 23.5036 27.5476 23.6946C27.149 23.9785 26.6827 24.1577 26.1963 24.1572C25.5662 24.1566 24.8535 23.9622 24.7444 23.1181C24.5429 21.5606 27.3248 21.3965 27.3248 21.3965C27.3248 21.3965 29.4049 21.2154 29.9166 22.5908C30.1342 23.1748 29.7564 23.8441 29.1413 23.8372Z" fill="#11100D"/>
<path d="M10.4773 16.3266C10.4348 15.8524 9.48945 4.67495 14.3492 0.864086C15.8883 -0.343127 18.0529 -0.278882 19.4962 1.01594C21.3333 2.66468 23.5536 6.56257 23.6983 15.7688L22.4888 15.7886C22.3515 7.03097 20.3501 3.42335 18.6955 1.93872C17.6859 1.03287 16.1686 0.990238 15.0878 1.83827C10.7529 5.23796 11.6718 16.1058 11.6815 16.215L10.4773 16.3266Z" fill="#11100D"/>
</g>
<defs>
<clipPath id="clip0_26_1510">
<rect width="183" height="56" fill="white"/>
</clipPath>
</defs>
</svg>
