<svg width="216" height="72" viewBox="0 0 216 72" fill="none" xmlns="http://www.w3.org/2000/svg">
<path d="M91.336 19H89.512L84.024 10.696V19H82.2V7.864H84.024L89.512 16.152V7.864H91.336V19ZM97.5553 19.144C96.7233 19.144 95.9713 18.9573 95.2993 18.584C94.6273 18.2 94.0993 17.6667 93.7153 16.984C93.3313 16.2907 93.1393 15.4907 93.1393 14.584C93.1393 13.688 93.3366 12.8933 93.7313 12.2C94.1259 11.5067 94.6646 10.9733 95.3473 10.6C96.0299 10.2267 96.7926 10.04 97.6353 10.04C98.4779 10.04 99.2406 10.2267 99.9233 10.6C100.606 10.9733 101.145 11.5067 101.539 12.2C101.934 12.8933 102.131 13.688 102.131 14.584C102.131 15.48 101.929 16.2747 101.523 16.968C101.118 17.6613 100.563 18.2 99.8593 18.584C99.1659 18.9573 98.3979 19.144 97.5553 19.144ZM97.5553 17.56C98.0246 17.56 98.4619 17.448 98.8673 17.224C99.2833 17 99.6193 16.664 99.8753 16.216C100.131 15.768 100.259 15.224 100.259 14.584C100.259 13.944 100.137 13.4053 99.8913 12.968C99.6459 12.52 99.3206 12.184 98.9153 11.96C98.5099 11.736 98.0726 11.624 97.6033 11.624C97.1339 11.624 96.6966 11.736 96.2913 11.96C95.8966 12.184 95.5819 12.52 95.3473 12.968C95.1126 13.4053 94.9953 13.944 94.9953 14.584C94.9953 15.5333 95.2353 16.2693 95.7153 16.792C96.2059 17.304 96.8193 17.56 97.5553 17.56ZM115.275 7.88V9.368H112.315V19H110.491V9.368H107.515V7.88H115.275ZM125.202 14.376C125.202 14.7067 125.181 15.0053 125.138 15.272H118.402C118.455 15.976 118.717 16.5413 119.186 16.968C119.655 17.3947 120.231 17.608 120.914 17.608C121.895 17.608 122.589 17.1973 122.994 16.376H124.962C124.695 17.1867 124.21 17.8533 123.506 18.376C122.813 18.888 121.949 19.144 120.914 19.144C120.071 19.144 119.314 18.9573 118.642 18.584C117.981 18.2 117.458 17.6667 117.074 16.984C116.701 16.2907 116.514 15.4907 116.514 14.584C116.514 13.6773 116.695 12.8827 117.058 12.2C117.431 11.5067 117.949 10.9733 118.61 10.6C119.282 10.2267 120.05 10.04 120.914 10.04C121.746 10.04 122.487 10.2213 123.138 10.584C123.789 10.9467 124.295 11.4587 124.658 12.12C125.021 12.7707 125.202 13.5227 125.202 14.376ZM123.298 13.8C123.287 13.128 123.047 12.5893 122.578 12.184C122.109 11.7787 121.527 11.576 120.834 11.576C120.205 11.576 119.666 11.7787 119.218 12.184C118.77 12.5787 118.503 13.1173 118.418 13.8H123.298ZM128.821 7.16V19H126.997V7.16H128.821ZM139.296 14.376C139.296 14.7067 139.274 15.0053 139.232 15.272H132.496C132.549 15.976 132.81 16.5413 133.28 16.968C133.749 17.3947 134.325 17.608 135.008 17.608C135.989 17.608 136.682 17.1973 137.088 16.376H139.056C138.789 17.1867 138.304 17.8533 137.6 18.376C136.906 18.888 136.042 19.144 135.008 19.144C134.165 19.144 133.408 18.9573 132.736 18.584C132.074 18.2 131.552 17.6667 131.168 16.984C130.794 16.2907 130.608 15.4907 130.608 14.584C130.608 13.6773 130.789 12.8827 131.152 12.2C131.525 11.5067 132.042 10.9733 132.704 10.6C133.376 10.2267 134.144 10.04 135.008 10.04C135.84 10.04 136.581 10.2213 137.232 10.584C137.882 10.9467 138.389 11.4587 138.752 12.12C139.114 12.7707 139.296 13.5227 139.296 14.376ZM137.392 13.8C137.381 13.128 137.141 12.5893 136.672 12.184C136.202 11.7787 135.621 11.576 134.928 11.576C134.298 11.576 133.76 11.7787 133.312 12.184C132.864 12.5787 132.597 13.1173 132.512 13.8H137.392ZM142.915 11.48C143.224 11.0747 143.645 10.7333 144.179 10.456C144.712 10.1787 145.315 10.04 145.987 10.04C146.755 10.04 147.453 10.232 148.083 10.616C148.723 10.9893 149.224 11.5173 149.587 12.2C149.949 12.8827 150.131 13.6667 150.131 14.552C150.131 15.4373 149.949 16.232 149.587 16.936C149.224 17.6293 148.723 18.1733 148.083 18.568C147.453 18.952 146.755 19.144 145.987 19.144C145.315 19.144 144.717 19.0107 144.195 18.744C143.672 18.4667 143.245 18.1253 142.915 17.72V23.192H141.091V10.184H142.915V11.48ZM148.275 14.552C148.275 13.944 148.147 13.4213 147.891 12.984C147.645 12.536 147.315 12.2 146.899 11.976C146.493 11.7413 146.056 11.624 145.587 11.624C145.128 11.624 144.691 11.7413 144.275 11.976C143.869 12.2107 143.539 12.552 143.283 13C143.037 13.448 142.915 13.976 142.915 14.584C142.915 15.192 143.037 15.7253 143.283 16.184C143.539 16.632 143.869 16.9733 144.275 17.208C144.691 17.4427 145.128 17.56 145.587 17.56C146.056 17.56 146.493 17.4427 146.899 17.208C147.315 16.9627 147.645 16.6107 147.891 16.152C148.147 15.6933 148.275 15.16 148.275 14.552ZM155.758 19.144C154.926 19.144 154.174 18.9573 153.502 18.584C152.83 18.2 152.302 17.6667 151.918 16.984C151.534 16.2907 151.342 15.4907 151.342 14.584C151.342 13.688 151.54 12.8933 151.934 12.2C152.329 11.5067 152.868 10.9733 153.55 10.6C154.233 10.2267 154.996 10.04 155.838 10.04C156.681 10.04 157.444 10.2267 158.126 10.6C158.809 10.9733 159.348 11.5067 159.742 12.2C160.137 12.8933 160.334 13.688 160.334 14.584C160.334 15.48 160.132 16.2747 159.726 16.968C159.321 17.6613 158.766 18.2 158.062 18.584C157.369 18.9573 156.601 19.144 155.758 19.144ZM155.758 17.56C156.228 17.56 156.665 17.448 157.07 17.224C157.486 17 157.822 16.664 158.078 16.216C158.334 15.768 158.462 15.224 158.462 14.584C158.462 13.944 158.34 13.4053 158.094 12.968C157.849 12.52 157.524 12.184 157.118 11.96C156.713 11.736 156.276 11.624 155.806 11.624C155.337 11.624 154.9 11.736 154.494 11.96C154.1 12.184 153.785 12.52 153.55 12.968C153.316 13.4053 153.198 13.944 153.198 14.584C153.198 15.5333 153.438 16.2693 153.918 16.792C154.409 17.304 155.022 17.56 155.758 17.56ZM166.586 10.04C167.279 10.04 167.898 10.184 168.442 10.472C168.996 10.76 169.428 11.1867 169.738 11.752C170.047 12.3173 170.202 13 170.202 13.8V19H168.394V14.072C168.394 13.2827 168.196 12.68 167.802 12.264C167.407 11.8373 166.868 11.624 166.186 11.624C165.503 11.624 164.959 11.8373 164.554 12.264C164.159 12.68 163.962 13.2827 163.962 14.072V19H162.138V10.184H163.962V11.192C164.26 10.8293 164.639 10.5467 165.098 10.344C165.567 10.1413 166.063 10.04 166.586 10.04Z" fill="black"/>
<path d="M81.38 32.6V31.77H83.26V39H82.34V32.6H81.38ZM88.7731 34.95V35.72H84.7831V34.95H88.7731ZM91.6509 35.24C91.2776 35.0933 90.9909 34.88 90.7909 34.6C90.5909 34.32 90.4909 33.98 90.4909 33.58C90.4909 33.22 90.5809 32.8967 90.7609 32.61C90.9409 32.3167 91.2076 32.0867 91.5609 31.92C91.9209 31.7467 92.3543 31.66 92.8609 31.66C93.3676 31.66 93.7976 31.7467 94.1509 31.92C94.5109 32.0867 94.7809 32.3167 94.9609 32.61C95.1476 32.8967 95.2409 33.22 95.2409 33.58C95.2409 33.9667 95.1376 34.3067 94.9309 34.6C94.7243 34.8867 94.4409 35.1 94.0809 35.24C94.4943 35.3667 94.8209 35.59 95.0609 35.91C95.3076 36.2233 95.4309 36.6033 95.4309 37.05C95.4309 37.4833 95.3243 37.8633 95.1109 38.19C94.8976 38.51 94.5943 38.76 94.2009 38.94C93.8143 39.1133 93.3676 39.2 92.8609 39.2C92.3543 39.2 91.9076 39.1133 91.5209 38.94C91.1409 38.76 90.8443 38.51 90.6309 38.19C90.4176 37.8633 90.3109 37.4833 90.3109 37.05C90.3109 36.6033 90.4309 36.22 90.6709 35.9C90.9109 35.58 91.2376 35.36 91.6509 35.24ZM94.3609 33.69C94.3609 33.2833 94.2276 32.97 93.9609 32.75C93.6943 32.53 93.3276 32.42 92.8609 32.42C92.4009 32.42 92.0376 32.53 91.7709 32.75C91.5043 32.97 91.3709 33.2867 91.3709 33.7C91.3709 34.0733 91.5076 34.3733 91.7809 34.6C92.0609 34.8267 92.4209 34.94 92.8609 34.94C93.3076 34.94 93.6676 34.8267 93.9409 34.6C94.2209 34.3667 94.3609 34.0633 94.3609 33.69ZM92.8609 35.64C92.3676 35.64 91.9643 35.7567 91.6509 35.99C91.3376 36.2167 91.1809 36.56 91.1809 37.02C91.1809 37.4467 91.3309 37.79 91.6309 38.05C91.9376 38.31 92.3476 38.44 92.8609 38.44C93.3743 38.44 93.7809 38.31 94.0809 38.05C94.3809 37.79 94.5309 37.4467 94.5309 37.02C94.5309 36.5733 94.3776 36.2333 94.0709 36C93.7643 35.76 93.3609 35.64 92.8609 35.64ZM96.6395 35.31C96.6395 34.1633 96.8262 33.27 97.1995 32.63C97.5729 31.9833 98.2262 31.66 99.1595 31.66C100.086 31.66 100.736 31.9833 101.11 32.63C101.483 33.27 101.67 34.1633 101.67 35.31C101.67 36.4767 101.483 37.3833 101.11 38.03C100.736 38.6767 100.086 39 99.1595 39C98.2262 39 97.5729 38.6767 97.1995 38.03C96.8262 37.3833 96.6395 36.4767 96.6395 35.31ZM100.77 35.31C100.77 34.73 100.73 34.24 100.65 33.84C100.576 33.4333 100.42 33.1067 100.18 32.86C99.9462 32.6133 99.6062 32.49 99.1595 32.49C98.7062 32.49 98.3595 32.6133 98.1195 32.86C97.8862 33.1067 97.7295 33.4333 97.6495 33.84C97.5762 34.24 97.5395 34.73 97.5395 35.31C97.5395 35.91 97.5762 36.4133 97.6495 36.82C97.7295 37.2267 97.8862 37.5533 98.1195 37.8C98.3595 38.0467 98.7062 38.17 99.1595 38.17C99.6062 38.17 99.9462 38.0467 100.18 37.8C100.42 37.5533 100.576 37.2267 100.65 36.82C100.73 36.4133 100.77 35.91 100.77 35.31ZM102.919 35.31C102.919 34.1633 103.105 33.27 103.479 32.63C103.852 31.9833 104.505 31.66 105.439 31.66C106.365 31.66 107.015 31.9833 107.389 32.63C107.762 33.27 107.949 34.1633 107.949 35.31C107.949 36.4767 107.762 37.3833 107.389 38.03C107.015 38.6767 106.365 39 105.439 39C104.505 39 103.852 38.6767 103.479 38.03C103.105 37.3833 102.919 36.4767 102.919 35.31ZM107.049 35.31C107.049 34.73 107.009 34.24 106.929 33.84C106.855 33.4333 106.699 33.1067 106.459 32.86C106.225 32.6133 105.885 32.49 105.439 32.49C104.985 32.49 104.639 32.6133 104.399 32.86C104.165 33.1067 104.009 33.4333 103.929 33.84C103.855 34.24 103.819 34.73 103.819 35.31C103.819 35.91 103.855 36.4133 103.929 36.82C104.009 37.2267 104.165 37.5533 104.399 37.8C104.639 38.0467 104.985 38.17 105.439 38.17C105.885 38.17 106.225 38.0467 106.459 37.8C106.699 37.5533 106.855 37.2267 106.929 36.82C107.009 36.4133 107.049 35.91 107.049 35.31ZM113.148 34.95V35.72H109.158V34.95H113.148ZM118.736 33.49C118.589 32.75 118.133 32.38 117.366 32.38C116.773 32.38 116.329 32.61 116.036 33.07C115.743 33.5233 115.599 34.2733 115.606 35.32C115.759 34.9733 116.013 34.7033 116.366 34.51C116.726 34.31 117.126 34.21 117.566 34.21C118.253 34.21 118.799 34.4233 119.206 34.85C119.619 35.2767 119.826 35.8667 119.826 36.62C119.826 37.0733 119.736 37.48 119.556 37.84C119.383 38.2 119.116 38.4867 118.756 38.7C118.403 38.9133 117.973 39.02 117.466 39.02C116.779 39.02 116.243 38.8667 115.856 38.56C115.469 38.2533 115.199 37.83 115.046 37.29C114.893 36.75 114.816 36.0833 114.816 35.29C114.816 32.8433 115.669 31.62 117.376 31.62C118.029 31.62 118.543 31.7967 118.916 32.15C119.289 32.5033 119.509 32.95 119.576 33.49H118.736ZM117.376 34.98C117.089 34.98 116.819 35.04 116.566 35.16C116.313 35.2733 116.106 35.45 115.946 35.69C115.793 35.9233 115.716 36.21 115.716 36.55C115.716 37.0567 115.863 37.47 116.156 37.79C116.449 38.1033 116.869 38.26 117.416 38.26C117.883 38.26 118.253 38.1167 118.526 37.83C118.806 37.5367 118.946 37.1433 118.946 36.65C118.946 36.13 118.813 35.7233 118.546 35.43C118.279 35.13 117.889 34.98 117.376 34.98ZM125.664 32.56H122.154V34.84C122.307 34.6267 122.534 34.4533 122.834 34.32C123.134 34.18 123.457 34.11 123.804 34.11C124.357 34.11 124.807 34.2267 125.154 34.46C125.5 34.6867 125.747 34.9833 125.894 35.35C126.047 35.71 126.124 36.0933 126.124 36.5C126.124 36.98 126.034 37.41 125.854 37.79C125.674 38.17 125.397 38.47 125.024 38.69C124.657 38.91 124.2 39.02 123.654 39.02C122.954 39.02 122.387 38.84 121.954 38.48C121.52 38.12 121.257 37.64 121.164 37.04H122.054C122.14 37.42 122.324 37.7167 122.604 37.93C122.884 38.1433 123.237 38.25 123.664 38.25C124.19 38.25 124.587 38.0933 124.854 37.78C125.12 37.46 125.254 37.04 125.254 36.52C125.254 36 125.12 35.6 124.854 35.32C124.587 35.0333 124.194 34.89 123.674 34.89C123.32 34.89 123.01 34.9767 122.744 35.15C122.484 35.3167 122.294 35.5467 122.174 35.84H121.314V31.76H125.664V32.56ZM127.113 37.39V36.7L130.623 31.84H131.713V36.6H132.713V37.39H131.713V39H130.813V37.39H127.113ZM130.853 32.79L128.163 36.6H130.853V32.79ZM137.572 34.95V35.72H133.582V34.95H137.572ZM139.11 33.59C139.156 32.9767 139.393 32.4967 139.82 32.15C140.246 31.8033 140.8 31.63 141.48 31.63C141.933 31.63 142.323 31.7133 142.65 31.88C142.983 32.04 143.233 32.26 143.4 32.54C143.573 32.82 143.66 33.1367 143.66 33.49C143.66 33.9033 143.54 34.26 143.3 34.56C143.066 34.86 142.76 35.0533 142.38 35.14V35.19C142.813 35.2967 143.156 35.5067 143.41 35.82C143.663 36.1333 143.79 36.5433 143.79 37.05C143.79 37.43 143.703 37.7733 143.53 38.08C143.356 38.38 143.096 38.6167 142.75 38.79C142.403 38.9633 141.986 39.05 141.5 39.05C140.793 39.05 140.213 38.8667 139.76 38.5C139.306 38.1267 139.053 37.6 139 36.92H139.88C139.926 37.32 140.09 37.6467 140.37 37.9C140.65 38.1533 141.023 38.28 141.49 38.28C141.956 38.28 142.31 38.16 142.55 37.92C142.796 37.6733 142.92 37.3567 142.92 36.97C142.92 36.47 142.753 36.11 142.42 35.89C142.086 35.67 141.583 35.56 140.91 35.56H140.68V34.8H140.92C141.533 34.7933 141.996 34.6933 142.31 34.5C142.623 34.3 142.78 33.9933 142.78 33.58C142.78 33.2267 142.663 32.9433 142.43 32.73C142.203 32.5167 141.876 32.41 141.45 32.41C141.036 32.41 140.703 32.5167 140.45 32.73C140.196 32.9433 140.046 33.23 140 33.59H139.11ZM144.908 38.27C145.755 37.59 146.418 37.0333 146.898 36.6C147.378 36.16 147.782 35.7033 148.108 35.23C148.442 34.75 148.608 34.28 148.608 33.82C148.608 33.3867 148.502 33.0467 148.288 32.8C148.082 32.5467 147.745 32.42 147.278 32.42C146.825 32.42 146.472 32.5633 146.218 32.85C145.972 33.13 145.838 33.5067 145.818 33.98H144.938C144.965 33.2333 145.192 32.6567 145.618 32.25C146.045 31.8433 146.595 31.64 147.268 31.64C147.955 31.64 148.498 31.83 148.898 32.21C149.305 32.59 149.508 33.1133 149.508 33.78C149.508 34.3333 149.342 34.8733 149.008 35.4C148.682 35.92 148.308 36.38 147.888 36.78C147.468 37.1733 146.932 37.6333 146.278 38.16H149.718V38.92H144.908V38.27ZM150.53 32.6V31.77H152.41V39H151.49V32.6H150.53ZM153.974 35.31C153.974 34.1633 154.16 33.27 154.534 32.63C154.907 31.9833 155.56 31.66 156.494 31.66C157.42 31.66 158.07 31.9833 158.444 32.63C158.817 33.27 159.004 34.1633 159.004 35.31C159.004 36.4767 158.817 37.3833 158.444 38.03C158.07 38.6767 157.42 39 156.494 39C155.56 39 154.907 38.6767 154.534 38.03C154.16 37.3833 153.974 36.4767 153.974 35.31ZM158.104 35.31C158.104 34.73 158.064 34.24 157.984 33.84C157.91 33.4333 157.754 33.1067 157.514 32.86C157.28 32.6133 156.94 32.49 156.494 32.49C156.04 32.49 155.694 32.6133 155.454 32.86C155.22 33.1067 155.064 33.4333 154.984 33.84C154.91 34.24 154.874 34.73 154.874 35.31C154.874 35.91 154.91 36.4133 154.984 36.82C155.064 37.2267 155.22 37.5533 155.454 37.8C155.694 38.0467 156.04 38.17 156.494 38.17C156.94 38.17 157.28 38.0467 157.514 37.8C157.754 37.5533 157.91 37.2267 157.984 36.82C158.064 36.4133 158.104 35.91 158.104 35.31Z" fill="#65687D"/>
<path d="M81.51 55.27C82.3567 54.59 83.02 54.0333 83.5 53.6C83.98 53.16 84.3833 52.7033 84.71 52.23C85.0433 51.75 85.21 51.28 85.21 50.82C85.21 50.3867 85.1033 50.0467 84.89 49.8C84.6833 49.5467 84.3467 49.42 83.88 49.42C83.4267 49.42 83.0733 49.5633 82.82 49.85C82.5733 50.13 82.44 50.5067 82.42 50.98H81.54C81.5667 50.2333 81.7933 49.6567 82.22 49.25C82.6467 48.8433 83.1967 48.64 83.87 48.64C84.5567 48.64 85.1 48.83 85.5 49.21C85.9067 49.59 86.11 50.1133 86.11 50.78C86.11 51.3333 85.9433 51.8733 85.61 52.4C85.2833 52.92 84.91 53.38 84.49 53.78C84.07 54.1733 83.5333 54.6333 82.88 55.16H86.32V55.92H81.51V55.27ZM91.322 51.95V52.72H87.332V51.95H91.322ZM92.6598 54.39V53.7L96.1698 48.84H97.2598V53.6H98.2598V54.39H97.2598V56H96.3598V54.39H92.6598ZM96.3998 49.79L93.7098 53.6H96.3998V49.79ZM103.779 49.56H100.269V51.84C100.422 51.6267 100.649 51.4533 100.949 51.32C101.249 51.18 101.572 51.11 101.919 51.11C102.472 51.11 102.922 51.2267 103.269 51.46C103.615 51.6867 103.862 51.9833 104.009 52.35C104.162 52.71 104.239 53.0933 104.239 53.5C104.239 53.98 104.149 54.41 103.969 54.79C103.789 55.17 103.512 55.47 103.139 55.69C102.772 55.91 102.315 56.02 101.769 56.02C101.069 56.02 100.502 55.84 100.069 55.48C99.6355 55.12 99.3722 54.64 99.2788 54.04H100.169C100.255 54.42 100.439 54.7167 100.719 54.93C100.999 55.1433 101.352 55.25 101.779 55.25C102.305 55.25 102.702 55.0933 102.969 54.78C103.235 54.46 103.369 54.04 103.369 53.52C103.369 53 103.235 52.6 102.969 52.32C102.702 52.0333 102.309 51.89 101.789 51.89C101.435 51.89 101.125 51.9767 100.859 52.15C100.599 52.3167 100.409 52.5467 100.289 52.84H99.4288V48.76H103.779V49.56ZM105.448 52.31C105.448 51.1633 105.635 50.27 106.008 49.63C106.381 48.9833 107.035 48.66 107.968 48.66C108.895 48.66 109.545 48.9833 109.918 49.63C110.291 50.27 110.478 51.1633 110.478 52.31C110.478 53.4767 110.291 54.3833 109.918 55.03C109.545 55.6767 108.895 56 107.968 56C107.035 56 106.381 55.6767 106.008 55.03C105.635 54.3833 105.448 53.4767 105.448 52.31ZM109.578 52.31C109.578 51.73 109.538 51.24 109.458 50.84C109.385 50.4333 109.228 50.1067 108.988 49.86C108.755 49.6133 108.415 49.49 107.968 49.49C107.515 49.49 107.168 49.6133 106.928 49.86C106.695 50.1067 106.538 50.4333 106.458 50.84C106.385 51.24 106.348 51.73 106.348 52.31C106.348 52.91 106.385 53.4133 106.458 53.82C106.538 54.2267 106.695 54.5533 106.928 54.8C107.168 55.0467 107.515 55.17 107.968 55.17C108.415 55.17 108.755 55.0467 108.988 54.8C109.228 54.5533 109.385 54.2267 109.458 53.82C109.538 53.4133 109.578 52.91 109.578 52.31ZM115.677 51.95V52.72H111.687V51.95H115.677ZM118.555 52.24C118.182 52.0933 117.895 51.88 117.695 51.6C117.495 51.32 117.395 50.98 117.395 50.58C117.395 50.22 117.485 49.8967 117.665 49.61C117.845 49.3167 118.112 49.0867 118.465 48.92C118.825 48.7467 119.259 48.66 119.765 48.66C120.272 48.66 120.702 48.7467 121.055 48.92C121.415 49.0867 121.685 49.3167 121.865 49.61C122.052 49.8967 122.145 50.22 122.145 50.58C122.145 50.9667 122.042 51.3067 121.835 51.6C121.629 51.8867 121.345 52.1 120.985 52.24C121.399 52.3667 121.725 52.59 121.965 52.91C122.212 53.2233 122.335 53.6033 122.335 54.05C122.335 54.4833 122.229 54.8633 122.015 55.19C121.802 55.51 121.499 55.76 121.105 55.94C120.719 56.1133 120.272 56.2 119.765 56.2C119.259 56.2 118.812 56.1133 118.425 55.94C118.045 55.76 117.749 55.51 117.535 55.19C117.322 54.8633 117.215 54.4833 117.215 54.05C117.215 53.6033 117.335 53.22 117.575 52.9C117.815 52.58 118.142 52.36 118.555 52.24ZM121.265 50.69C121.265 50.2833 121.132 49.97 120.865 49.75C120.599 49.53 120.232 49.42 119.765 49.42C119.305 49.42 118.942 49.53 118.675 49.75C118.409 49.97 118.275 50.2867 118.275 50.7C118.275 51.0733 118.412 51.3733 118.685 51.6C118.965 51.8267 119.325 51.94 119.765 51.94C120.212 51.94 120.572 51.8267 120.845 51.6C121.125 51.3667 121.265 51.0633 121.265 50.69ZM119.765 52.64C119.272 52.64 118.869 52.7567 118.555 52.99C118.242 53.2167 118.085 53.56 118.085 54.02C118.085 54.4467 118.235 54.79 118.535 55.05C118.842 55.31 119.252 55.44 119.765 55.44C120.279 55.44 120.685 55.31 120.985 55.05C121.285 54.79 121.435 54.4467 121.435 54.02C121.435 53.5733 121.282 53.2333 120.975 53C120.669 52.76 120.265 52.64 119.765 52.64ZM123.324 54.39V53.7L126.834 48.84H127.924V53.6H128.924V54.39H127.924V56H127.024V54.39H123.324ZM127.064 49.79L124.374 53.6H127.064V49.79ZM131.003 54.06C131.07 54.44 131.223 54.7333 131.463 54.94C131.71 55.1467 132.04 55.25 132.453 55.25C133.006 55.25 133.413 55.0333 133.673 54.6C133.94 54.1667 134.066 53.4367 134.053 52.41C133.913 52.71 133.68 52.9467 133.353 53.12C133.026 53.2867 132.663 53.37 132.263 53.37C131.816 53.37 131.416 53.28 131.063 53.1C130.716 52.9133 130.443 52.6433 130.243 52.29C130.043 51.9367 129.943 51.51 129.943 51.01C129.943 50.2967 130.15 49.7233 130.563 49.29C130.976 48.85 131.563 48.63 132.323 48.63C133.256 48.63 133.91 48.9333 134.283 49.54C134.663 50.1467 134.853 51.05 134.853 52.25C134.853 53.09 134.776 53.7833 134.623 54.33C134.476 54.8767 134.223 55.2933 133.863 55.58C133.51 55.8667 133.023 56.01 132.403 56.01C131.723 56.01 131.193 55.8267 130.813 55.46C130.433 55.0933 130.216 54.6267 130.163 54.06H131.003ZM132.413 52.6C132.86 52.6 133.226 52.4633 133.513 52.19C133.8 51.91 133.943 51.5333 133.943 51.06C133.943 50.56 133.803 50.1567 133.523 49.85C133.243 49.5433 132.85 49.39 132.343 49.39C131.876 49.39 131.503 49.5367 131.223 49.83C130.95 50.1233 130.813 50.51 130.813 50.99C130.813 51.4767 130.95 51.8667 131.223 52.16C131.496 52.4533 131.893 52.6 132.413 52.6ZM140.082 51.95V52.72H136.092V51.95H140.082ZM141.53 55.27C142.376 54.59 143.04 54.0333 143.52 53.6C144 53.16 144.403 52.7033 144.73 52.23C145.063 51.75 145.23 51.28 145.23 50.82C145.23 50.3867 145.123 50.0467 144.91 49.8C144.703 49.5467 144.366 49.42 143.9 49.42C143.446 49.42 143.093 49.5633 142.84 49.85C142.593 50.13 142.46 50.5067 142.44 50.98H141.56C141.586 50.2333 141.813 49.6567 142.24 49.25C142.666 48.8433 143.216 48.64 143.89 48.64C144.576 48.64 145.12 48.83 145.52 49.21C145.926 49.59 146.13 50.1133 146.13 50.78C146.13 51.3333 145.963 51.8733 145.63 52.4C145.303 52.92 144.93 53.38 144.51 53.78C144.09 54.1733 143.553 54.6333 142.9 55.16H146.34V55.92H141.53V55.27ZM147.371 50.59C147.418 49.9767 147.655 49.4967 148.081 49.15C148.508 48.8033 149.061 48.63 149.741 48.63C150.195 48.63 150.585 48.7133 150.911 48.88C151.245 49.04 151.495 49.26 151.661 49.54C151.835 49.82 151.921 50.1367 151.921 50.49C151.921 50.9033 151.801 51.26 151.561 51.56C151.328 51.86 151.021 52.0533 150.641 52.14V52.19C151.075 52.2967 151.418 52.5067 151.671 52.82C151.925 53.1333 152.051 53.5433 152.051 54.05C152.051 54.43 151.965 54.7733 151.791 55.08C151.618 55.38 151.358 55.6167 151.011 55.79C150.665 55.9633 150.248 56.05 149.761 56.05C149.055 56.05 148.475 55.8667 148.021 55.5C147.568 55.1267 147.315 54.6 147.261 53.92H148.141C148.188 54.32 148.351 54.6467 148.631 54.9C148.911 55.1533 149.285 55.28 149.751 55.28C150.218 55.28 150.571 55.16 150.811 54.92C151.058 54.6733 151.181 54.3567 151.181 53.97C151.181 53.47 151.015 53.11 150.681 52.89C150.348 52.67 149.845 52.56 149.171 52.56H148.941V51.8H149.181C149.795 51.7933 150.258 51.6933 150.571 51.5C150.885 51.3 151.041 50.9933 151.041 50.58C151.041 50.2267 150.925 49.9433 150.691 49.73C150.465 49.5167 150.138 49.41 149.711 49.41C149.298 49.41 148.965 49.5167 148.711 49.73C148.458 49.9433 148.308 50.23 148.261 50.59H147.371ZM153.17 55.27C154.017 54.59 154.68 54.0333 155.16 53.6C155.64 53.16 156.043 52.7033 156.37 52.23C156.703 51.75 156.87 51.28 156.87 50.82C156.87 50.3867 156.763 50.0467 156.55 49.8C156.343 49.5467 156.007 49.42 155.54 49.42C155.087 49.42 154.733 49.5633 154.48 49.85C154.233 50.13 154.1 50.5067 154.08 50.98H153.2C153.227 50.2333 153.453 49.6567 153.88 49.25C154.307 48.8433 154.857 48.64 155.53 48.64C156.217 48.64 156.76 48.83 157.16 49.21C157.567 49.59 157.77 50.1133 157.77 50.78C157.77 51.3333 157.603 51.8733 157.27 52.4C156.943 52.92 156.57 53.38 156.15 53.78C155.73 54.1733 155.193 54.6333 154.54 55.16H157.98V55.92H153.17V55.27ZM159.032 52.31C159.032 51.1633 159.219 50.27 159.592 49.63C159.965 48.9833 160.619 48.66 161.552 48.66C162.479 48.66 163.129 48.9833 163.502 49.63C163.875 50.27 164.062 51.1633 164.062 52.31C164.062 53.4767 163.875 54.3833 163.502 55.03C163.129 55.6767 162.479 56 161.552 56C160.619 56 159.965 55.6767 159.592 55.03C159.219 54.3833 159.032 53.4767 159.032 52.31ZM163.162 52.31C163.162 51.73 163.122 51.24 163.042 50.84C162.969 50.4333 162.812 50.1067 162.572 49.86C162.339 49.6133 161.999 49.49 161.552 49.49C161.099 49.49 160.752 49.6133 160.512 49.86C160.279 50.1067 160.122 50.4333 160.042 50.84C159.969 51.24 159.932 51.73 159.932 52.31C159.932 52.91 159.969 53.4133 160.042 53.82C160.122 54.2267 160.279 54.5533 160.512 54.8C160.752 55.0467 161.099 55.17 161.552 55.17C161.999 55.17 162.339 55.0467 162.572 54.8C162.812 54.5533 162.969 54.2267 163.042 53.82C163.122 53.4133 163.162 52.91 163.162 52.31Z" fill="#65687D"/>
<path d="M57.1287 39.4488L44.9496 34.239C44.3978 34.0133 43.7957 33.9225 43.1979 33.9749C42.6001 34.0274 42.0254 34.2213 41.5259 34.5392C41.4752 34.5702 41.4269 34.6048 41.3815 34.6425L35.0161 39.8105C34.9501 39.8449 34.8766 39.8641 34.8014 39.8667C34.7262 39.8692 34.6514 39.8551 34.583 39.8253C30.4915 37.9402 26.2531 33.919 24.2705 30.0677C24.2375 30.0033 24.2203 29.9326 24.2203 29.8609C24.2203 29.7893 24.2375 29.7186 24.2705 29.6542L29.7026 23.5019C29.7416 23.4564 29.7777 23.4087 29.8109 23.3591C30.1393 22.8805 30.3377 22.3313 30.3881 21.7612C30.4385 21.191 30.3394 20.6179 30.0996 20.0935L24.6804 8.4877C24.3727 7.8026 23.8404 7.23125 23.1636 6.85941C22.4868 6.48757 21.7019 6.33529 20.9267 6.42544C17.5576 6.84822 14.4652 8.4275 12.2271 10.8682C9.98906 13.3088 8.75859 16.4439 8.76566 19.6874C8.76566 38.9566 25.1883 54.6327 45.375 54.6327C48.7729 54.639 52.0569 53.4642 54.6137 51.328C57.1705 49.1918 58.8251 46.2402 59.2685 43.0245C59.3628 42.288 59.2054 41.5421 58.8199 40.8979C58.4343 40.2536 57.8412 39.7454 57.1287 39.4488ZM45.375 51.6796C26.895 51.6796 11.8594 37.3274 11.8594 19.6874C11.8508 17.1623 12.8056 14.7206 14.5454 12.8185C16.2852 10.9164 18.6911 9.68393 21.3134 9.35149H21.3727C21.4766 9.35334 21.5775 9.38511 21.6621 9.44264C21.7468 9.50017 21.8112 9.58077 21.8471 9.67387L27.2869 21.2673C27.3179 21.3318 27.334 21.4019 27.334 21.4728C27.334 21.5438 27.3179 21.6139 27.2869 21.6783L21.8445 27.8454C21.8039 27.8895 21.7668 27.9364 21.7336 27.9857C21.3931 28.482 21.1925 29.0538 21.1514 29.6457C21.1103 30.2377 21.2301 30.8297 21.499 31.3646C23.7858 35.8336 28.5038 40.3027 33.2372 42.4855C33.8008 42.7409 34.4241 42.8524 35.0462 42.8093C35.6684 42.7661 36.2683 42.5698 36.7873 42.2395C36.8363 42.2075 36.8853 42.173 36.9317 42.1361L43.2945 36.9681C43.3573 36.9359 43.4267 36.917 43.4979 36.9128C43.5691 36.9085 43.6404 36.919 43.707 36.9435L55.8886 42.1533C55.9881 42.1938 56.0718 42.2631 56.1278 42.3514C56.1838 42.4397 56.2092 42.5426 56.2006 42.6455C55.8541 45.1498 54.5642 47.448 52.572 49.1106C50.5797 50.7732 48.0213 51.6864 45.375 51.6796Z" fill="#FF8717"/>
</svg>
