<svg width="234" height="72" viewBox="0 0 234 72" fill="none" xmlns="http://www.w3.org/2000/svg">
<path d="M75.08 6.88V18H73.256V13.136H68.024V18H66.2V6.88H68.024V11.648H73.256V6.88H75.08ZM85.4653 9.184V18H83.6413V16.96C83.3533 17.3227 82.9746 17.6107 82.5053 17.824C82.0466 18.0267 81.5559 18.128 81.0333 18.128C80.3399 18.128 79.7159 17.984 79.1613 17.696C78.6173 17.408 78.1853 16.9813 77.8653 16.416C77.5559 15.8507 77.4013 15.168 77.4013 14.368V9.184H79.2093V14.096C79.2093 14.8853 79.4066 15.4933 79.8013 15.92C80.1959 16.336 80.7346 16.544 81.4173 16.544C82.0999 16.544 82.6386 16.336 83.0333 15.92C83.4386 15.4933 83.6413 14.8853 83.6413 14.096V9.184H85.4653ZM89.6959 10.496C90.0052 10.0693 90.4265 9.72267 90.9599 9.456C91.5039 9.17867 92.1065 9.04 92.7679 9.04C93.5465 9.04 94.2505 9.22667 94.8799 9.6C95.5092 9.97333 96.0052 10.5067 96.3679 11.2C96.7305 11.8827 96.9119 12.6667 96.9119 13.552C96.9119 14.4373 96.7305 15.232 96.3679 15.936C96.0052 16.6293 95.5039 17.1733 94.8639 17.568C94.2345 17.952 93.5359 18.144 92.7679 18.144C92.0852 18.144 91.4772 18.0107 90.9439 17.744C90.4212 17.4773 90.0052 17.136 89.6959 16.72V18H87.8719V6.16H89.6959V10.496ZM95.0559 13.552C95.0559 12.944 94.9279 12.4213 94.6719 11.984C94.4265 11.536 94.0959 11.2 93.6799 10.976C93.2745 10.7413 92.8372 10.624 92.3679 10.624C91.9092 10.624 91.4719 10.7413 91.0559 10.976C90.6505 11.2107 90.3199 11.552 90.0639 12C89.8185 12.448 89.6959 12.976 89.6959 13.584C89.6959 14.192 89.8185 14.7253 90.0639 15.184C90.3199 15.632 90.6505 15.9733 91.0559 16.208C91.4719 16.4427 91.9092 16.56 92.3679 16.56C92.8372 16.56 93.2745 16.4427 93.6799 16.208C94.0959 15.9627 94.4265 15.6107 94.6719 15.152C94.9279 14.6933 95.0559 14.16 95.0559 13.552ZM106.7 9.184V18H104.876V16.96C104.588 17.3227 104.209 17.6107 103.74 17.824C103.281 18.0267 102.79 18.128 102.268 18.128C101.574 18.128 100.95 17.984 100.396 17.696C99.8516 17.408 99.4196 16.9813 99.0996 16.416C98.7903 15.8507 98.6356 15.168 98.6356 14.368V9.184H100.444V14.096C100.444 14.8853 100.641 15.4933 101.036 15.92C101.43 16.336 101.969 16.544 102.652 16.544C103.334 16.544 103.873 16.336 104.268 15.92C104.673 15.4933 104.876 14.8853 104.876 14.096V9.184H106.7ZM113.554 9.04C114.248 9.04 114.866 9.184 115.41 9.472C115.965 9.76 116.397 10.1867 116.706 10.752C117.016 11.3173 117.17 12 117.17 12.8V18H115.362V13.072C115.362 12.2827 115.165 11.68 114.77 11.264C114.376 10.8373 113.837 10.624 113.154 10.624C112.472 10.624 111.928 10.8373 111.522 11.264C111.128 11.68 110.93 12.2827 110.93 13.072V18H109.106V9.184H110.93V10.192C111.229 9.82933 111.608 9.54667 112.066 9.344C112.536 9.14133 113.032 9.04 113.554 9.04ZM123.049 9.04C123.732 9.04 124.334 9.17867 124.857 9.456C125.39 9.72267 125.806 10.0587 126.105 10.464V9.184H127.945V18.144C127.945 18.9547 127.774 19.6747 127.433 20.304C127.092 20.944 126.596 21.4453 125.945 21.808C125.305 22.1707 124.537 22.352 123.641 22.352C122.446 22.352 121.454 22.0693 120.665 21.504C119.876 20.9493 119.428 20.192 119.321 19.232H121.129C121.268 19.6907 121.561 20.0587 122.009 20.336C122.468 20.624 123.012 20.768 123.641 20.768C124.377 20.768 124.969 20.544 125.417 20.096C125.876 19.648 126.105 18.9973 126.105 18.144V16.672C125.796 17.088 125.374 17.44 124.841 17.728C124.318 18.0053 123.721 18.144 123.049 18.144C122.281 18.144 121.577 17.952 120.937 17.568C120.308 17.1733 119.806 16.6293 119.433 15.936C119.07 15.232 118.889 14.4373 118.889 13.552C118.889 12.6667 119.07 11.8827 119.433 11.2C119.806 10.5173 120.308 9.98933 120.937 9.616C121.577 9.232 122.281 9.04 123.049 9.04ZM126.105 13.584C126.105 12.976 125.977 12.448 125.721 12C125.476 11.552 125.15 11.2107 124.745 10.976C124.34 10.7413 123.902 10.624 123.433 10.624C122.964 10.624 122.526 10.7413 122.121 10.976C121.716 11.2 121.385 11.536 121.129 11.984C120.884 12.4213 120.761 12.944 120.761 13.552C120.761 14.16 120.884 14.6933 121.129 15.152C121.385 15.6107 121.716 15.9627 122.121 16.208C122.537 16.4427 122.974 16.56 123.433 16.56C123.902 16.56 124.34 16.4427 124.745 16.208C125.15 15.9733 125.476 15.632 125.721 15.184C125.977 14.7253 126.105 14.192 126.105 13.584ZM133.829 13.6L137.893 18H135.429L132.165 14.208V18H130.341V6.16H132.165V13.04L135.365 9.184H137.893L133.829 13.6ZM138.592 13.552C138.592 12.6667 138.773 11.8827 139.136 11.2C139.509 10.5173 140.011 9.98933 140.64 9.616C141.28 9.232 141.984 9.04 142.752 9.04C143.445 9.04 144.048 9.17867 144.56 9.456C145.083 9.72267 145.499 10.0587 145.808 10.464V9.184H147.648V18H145.808V16.688C145.499 17.104 145.077 17.4507 144.544 17.728C144.011 18.0053 143.403 18.144 142.72 18.144C141.963 18.144 141.269 17.952 140.64 17.568C140.011 17.1733 139.509 16.6293 139.136 15.936C138.773 15.232 138.592 14.4373 138.592 13.552ZM145.808 13.584C145.808 12.976 145.68 12.448 145.424 12C145.179 11.552 144.853 11.2107 144.448 10.976C144.043 10.7413 143.605 10.624 143.136 10.624C142.667 10.624 142.229 10.7413 141.824 10.976C141.419 11.2 141.088 11.536 140.832 11.984C140.587 12.4213 140.464 12.944 140.464 13.552C140.464 14.16 140.587 14.6933 140.832 15.152C141.088 15.6107 141.419 15.9627 141.824 16.208C142.24 16.4427 142.677 16.56 143.136 16.56C143.605 16.56 144.043 16.4427 144.448 16.208C144.853 15.9733 145.179 15.632 145.424 15.184C145.68 14.7253 145.808 14.192 145.808 13.584ZM154.492 9.04C155.185 9.04 155.804 9.184 156.348 9.472C156.902 9.76 157.334 10.1867 157.644 10.752C157.953 11.3173 158.108 12 158.108 12.8V18H156.3V13.072C156.3 12.2827 156.102 11.68 155.708 11.264C155.313 10.8373 154.774 10.624 154.092 10.624C153.409 10.624 152.865 10.8373 152.46 11.264C152.065 11.68 151.868 12.2827 151.868 13.072V18H150.044V9.184H151.868V10.192C152.166 9.82933 152.545 9.54667 153.004 9.344C153.473 9.14133 153.969 9.04 154.492 9.04ZM170.719 18L166.415 13.024V18H164.591V6.88H166.415V11.952L170.735 6.88H173.023L168.191 12.448L173.103 18H170.719ZM174.108 13.552C174.108 12.6667 174.289 11.8827 174.652 11.2C175.025 10.5173 175.526 9.98933 176.156 9.616C176.796 9.232 177.5 9.04 178.268 9.04C178.961 9.04 179.564 9.17867 180.076 9.456C180.598 9.72267 181.014 10.0587 181.324 10.464V9.184H183.164V18H181.324V16.688C181.014 17.104 180.593 17.4507 180.06 17.728C179.526 18.0053 178.918 18.144 178.236 18.144C177.478 18.144 176.785 17.952 176.156 17.568C175.526 17.1733 175.025 16.6293 174.652 15.936C174.289 15.232 174.108 14.4373 174.108 13.552ZM181.324 13.584C181.324 12.976 181.196 12.448 180.94 12C180.694 11.552 180.369 11.2107 179.964 10.976C179.558 10.7413 179.121 10.624 178.652 10.624C178.182 10.624 177.745 10.7413 177.34 10.976C176.934 11.2 176.604 11.536 176.348 11.984C176.102 12.4213 175.98 12.944 175.98 13.552C175.98 14.16 176.102 14.6933 176.348 15.152C176.604 15.6107 176.934 15.9627 177.34 16.208C177.756 16.4427 178.193 16.56 178.652 16.56C179.121 16.56 179.558 16.4427 179.964 16.208C180.369 15.9733 180.694 15.632 180.94 15.184C181.196 14.7253 181.324 14.192 181.324 13.584ZM196.231 9.04C196.925 9.04 197.543 9.184 198.087 9.472C198.642 9.76 199.074 10.1867 199.383 10.752C199.703 11.3173 199.863 12 199.863 12.8V18H198.055V13.072C198.055 12.2827 197.858 11.68 197.463 11.264C197.069 10.8373 196.53 10.624 195.847 10.624C195.165 10.624 194.621 10.8373 194.215 11.264C193.821 11.68 193.623 12.2827 193.623 13.072V18H191.815V13.072C191.815 12.2827 191.618 11.68 191.223 11.264C190.829 10.8373 190.29 10.624 189.607 10.624C188.925 10.624 188.381 10.8373 187.975 11.264C187.581 11.68 187.383 12.2827 187.383 13.072V18H185.559V9.184H187.383V10.192C187.682 9.82933 188.061 9.54667 188.519 9.344C188.978 9.14133 189.469 9.04 189.991 9.04C190.695 9.04 191.325 9.18933 191.879 9.488C192.434 9.78667 192.861 10.2187 193.159 10.784C193.426 10.2507 193.842 9.82933 194.407 9.52C194.973 9.2 195.581 9.04 196.231 9.04ZM203.112 8.016C202.782 8.016 202.504 7.904 202.28 7.68C202.056 7.456 201.944 7.17867 201.944 6.848C201.944 6.51733 202.056 6.24 202.28 6.016C202.504 5.792 202.782 5.68 203.112 5.68C203.432 5.68 203.704 5.792 203.928 6.016C204.152 6.24 204.264 6.51733 204.264 6.848C204.264 7.17867 204.152 7.456 203.928 7.68C203.704 7.904 203.432 8.016 203.112 8.016ZM204.008 9.184V18H202.184V9.184H204.008Z" fill="black"/>
<path d="M66.88 33.27V36.5C66.88 36.7667 66.9367 36.9567 67.05 37.07C67.1633 37.1767 67.36 37.23 67.64 37.23H68.31V38H67.49C66.9833 38 66.6033 37.8833 66.35 37.65C66.0967 37.4167 65.97 37.0333 65.97 36.5V33.27H65.26V32.52H65.97V31.14H66.88V32.52H68.31V33.27H66.88ZM74.4126 35.05C74.4126 35.2233 74.4026 35.4067 74.3826 35.6H70.0026C70.0359 36.14 70.2192 36.5633 70.5526 36.87C70.8926 37.17 71.3026 37.32 71.7826 37.32C72.1759 37.32 72.5026 37.23 72.7626 37.05C73.0292 36.8633 73.2159 36.6167 73.3226 36.31H74.3026C74.1559 36.8367 73.8626 37.2667 73.4226 37.6C72.9826 37.9267 72.4359 38.09 71.7826 38.09C71.2626 38.09 70.7959 37.9733 70.3826 37.74C69.9759 37.5067 69.6559 37.1767 69.4226 36.75C69.1892 36.3167 69.0726 35.8167 69.0726 35.25C69.0726 34.6833 69.1859 34.1867 69.4126 33.76C69.6392 33.3333 69.9559 33.0067 70.3626 32.78C70.7759 32.5467 71.2492 32.43 71.7826 32.43C72.3026 32.43 72.7626 32.5433 73.1626 32.77C73.5626 32.9967 73.8692 33.31 74.0826 33.71C74.3026 34.1033 74.4126 34.55 74.4126 35.05ZM73.4726 34.86C73.4726 34.5133 73.3959 34.2167 73.2426 33.97C73.0892 33.7167 72.8792 33.5267 72.6126 33.4C72.3526 33.2667 72.0626 33.2 71.7426 33.2C71.2826 33.2 70.8892 33.3467 70.5626 33.64C70.2426 33.9333 70.0592 34.34 70.0126 34.86H73.4726ZM75.2738 35.25C75.2738 34.6833 75.3871 34.19 75.6138 33.77C75.8404 33.3433 76.1538 33.0133 76.5538 32.78C76.9604 32.5467 77.4238 32.43 77.9438 32.43C78.6171 32.43 79.1704 32.5933 79.6038 32.92C80.0438 33.2467 80.3338 33.7 80.4738 34.28H79.4938C79.4004 33.9467 79.2171 33.6833 78.9438 33.49C78.6771 33.2967 78.3438 33.2 77.9438 33.2C77.4238 33.2 77.0038 33.38 76.6838 33.74C76.3638 34.0933 76.2038 34.5967 76.2038 35.25C76.2038 35.91 76.3638 36.42 76.6838 36.78C77.0038 37.14 77.4238 37.32 77.9438 37.32C78.3438 37.32 78.6771 37.2267 78.9438 37.04C79.2104 36.8533 79.3938 36.5867 79.4938 36.24H80.4738C80.3271 36.8 80.0338 37.25 79.5938 37.59C79.1538 37.9233 78.6038 38.09 77.9438 38.09C77.4238 38.09 76.9604 37.9733 76.5538 37.74C76.1538 37.5067 75.8404 37.1767 75.6138 36.75C75.3871 36.3233 75.2738 35.8233 75.2738 35.25ZM84.408 32.42C84.8213 32.42 85.1946 32.51 85.528 32.69C85.8613 32.8633 86.1213 33.1267 86.308 33.48C86.5013 33.8333 86.598 34.2633 86.598 34.77V38H85.698V34.9C85.698 34.3533 85.5613 33.9367 85.288 33.65C85.0146 33.3567 84.6413 33.21 84.168 33.21C83.688 33.21 83.3046 33.36 83.018 33.66C82.738 33.96 82.598 34.3967 82.598 34.97V38H81.688V30.6H82.598V33.3C82.778 33.02 83.0246 32.8033 83.338 32.65C83.658 32.4967 84.0146 32.42 84.408 32.42ZM90.0245 38.09C89.6045 38.09 89.2278 38.02 88.8945 37.88C88.5611 37.7333 88.2978 37.5333 88.1045 37.28C87.9111 37.02 87.8045 36.7233 87.7845 36.39H88.7245C88.7511 36.6633 88.8778 36.8867 89.1045 37.06C89.3378 37.2333 89.6411 37.32 90.0145 37.32C90.3611 37.32 90.6345 37.2433 90.8345 37.09C91.0345 36.9367 91.1345 36.7433 91.1345 36.51C91.1345 36.27 91.0278 36.0933 90.8145 35.98C90.6011 35.86 90.2711 35.7433 89.8245 35.63C89.4178 35.5233 89.0845 35.4167 88.8245 35.31C88.5711 35.1967 88.3511 35.0333 88.1645 34.82C87.9845 34.6 87.8945 34.3133 87.8945 33.96C87.8945 33.68 87.9778 33.4233 88.1445 33.19C88.3111 32.9567 88.5478 32.7733 88.8545 32.64C89.1611 32.5 89.5111 32.43 89.9045 32.43C90.5111 32.43 91.0011 32.5833 91.3745 32.89C91.7478 33.1967 91.9478 33.6167 91.9745 34.15H91.0645C91.0445 33.8633 90.9278 33.6333 90.7145 33.46C90.5078 33.2867 90.2278 33.2 89.8745 33.2C89.5478 33.2 89.2878 33.27 89.0945 33.41C88.9011 33.55 88.8045 33.7333 88.8045 33.96C88.8045 34.14 88.8611 34.29 88.9745 34.41C89.0945 34.5233 89.2411 34.6167 89.4145 34.69C89.5945 34.7567 89.8411 34.8333 90.1545 34.92C90.5478 35.0267 90.8678 35.1333 91.1145 35.24C91.3611 35.34 91.5711 35.4933 91.7445 35.7C91.9245 35.9067 92.0178 36.1767 92.0245 36.51C92.0245 36.81 91.9411 37.08 91.7745 37.32C91.6078 37.56 91.3711 37.75 91.0645 37.89C90.7645 38.0233 90.4178 38.09 90.0245 38.09ZM96.0291 32.42C96.4424 32.42 96.8157 32.51 97.1491 32.69C97.4824 32.8633 97.7424 33.1267 97.9291 33.48C98.1224 33.8333 98.2191 34.2633 98.2191 34.77V38H97.3191V34.9C97.3191 34.3533 97.1824 33.9367 96.9091 33.65C96.6357 33.3567 96.2624 33.21 95.7891 33.21C95.3091 33.21 94.9257 33.36 94.6391 33.66C94.3591 33.96 94.2191 34.3967 94.2191 34.97V38H93.3091V30.6H94.2191V33.3C94.3991 33.02 94.6457 32.8033 94.9591 32.65C95.2791 32.4967 95.6357 32.42 96.0291 32.42ZM102.096 38.09C101.582 38.09 101.116 37.9733 100.696 37.74C100.282 37.5067 99.9555 37.1767 99.7155 36.75C99.4822 36.3167 99.3655 35.8167 99.3655 35.25C99.3655 34.69 99.4855 34.1967 99.7255 33.77C99.9722 33.3367 100.306 33.0067 100.726 32.78C101.146 32.5467 101.616 32.43 102.136 32.43C102.656 32.43 103.126 32.5467 103.546 32.78C103.966 33.0067 104.296 33.3333 104.536 33.76C104.782 34.1867 104.906 34.6833 104.906 35.25C104.906 35.8167 104.779 36.3167 104.526 36.75C104.279 37.1767 103.942 37.5067 103.516 37.74C103.089 37.9733 102.616 38.09 102.096 38.09ZM102.096 37.29C102.422 37.29 102.729 37.2133 103.016 37.06C103.302 36.9067 103.532 36.6767 103.706 36.37C103.886 36.0633 103.976 35.69 103.976 35.25C103.976 34.81 103.889 34.4367 103.716 34.13C103.542 33.8233 103.316 33.5967 103.036 33.45C102.756 33.2967 102.452 33.22 102.126 33.22C101.792 33.22 101.486 33.2967 101.206 33.45C100.932 33.5967 100.712 33.8233 100.546 34.13C100.379 34.4367 100.296 34.81 100.296 35.25C100.296 35.6967 100.376 36.0733 100.536 36.38C100.702 36.6867 100.922 36.9167 101.196 37.07C101.469 37.2167 101.769 37.29 102.096 37.29ZM107.012 33.53C107.192 33.2167 107.459 32.9567 107.812 32.75C108.172 32.5367 108.589 32.43 109.062 32.43C109.549 32.43 109.989 32.5467 110.382 32.78C110.782 33.0133 111.095 33.3433 111.322 33.77C111.549 34.19 111.662 34.68 111.662 35.24C111.662 35.7933 111.549 36.2867 111.322 36.72C111.095 37.1533 110.782 37.49 110.382 37.73C109.989 37.97 109.549 38.09 109.062 38.09C108.595 38.09 108.182 37.9867 107.822 37.78C107.469 37.5667 107.199 37.3033 107.012 36.99V40.6H106.102V32.52H107.012V33.53ZM110.732 35.24C110.732 34.8267 110.649 34.4667 110.482 34.16C110.315 33.8533 110.089 33.62 109.802 33.46C109.522 33.3 109.212 33.22 108.872 33.22C108.539 33.22 108.229 33.3033 107.942 33.47C107.662 33.63 107.435 33.8667 107.262 34.18C107.095 34.4867 107.012 34.8433 107.012 35.25C107.012 35.6633 107.095 36.0267 107.262 36.34C107.435 36.6467 107.662 36.8833 107.942 37.05C108.229 37.21 108.539 37.29 108.872 37.29C109.212 37.29 109.522 37.21 109.802 37.05C110.089 36.8833 110.315 36.6467 110.482 36.34C110.649 36.0267 110.732 35.66 110.732 35.24ZM113.33 31.63C113.157 31.63 113.01 31.57 112.89 31.45C112.77 31.33 112.71 31.1833 112.71 31.01C112.71 30.8367 112.77 30.69 112.89 30.57C113.01 30.45 113.157 30.39 113.33 30.39C113.497 30.39 113.637 30.45 113.75 30.57C113.87 30.69 113.93 30.8367 113.93 31.01C113.93 31.1833 113.87 31.33 113.75 31.45C113.637 31.57 113.497 31.63 113.33 31.63ZM113.77 32.52V38H112.86V32.52H113.77ZM117.991 32.42C118.657 32.42 119.197 32.6233 119.611 33.03C120.024 33.43 120.231 34.01 120.231 34.77V38H119.331V34.9C119.331 34.3533 119.194 33.9367 118.921 33.65C118.647 33.3567 118.274 33.21 117.801 33.21C117.321 33.21 116.937 33.36 116.651 33.66C116.371 33.96 116.231 34.3967 116.231 34.97V38H115.321V32.52H116.231V33.3C116.411 33.02 116.654 32.8033 116.961 32.65C117.274 32.4967 117.617 32.42 117.991 32.42ZM123.947 33.27H122.797V38H121.887V33.27H121.177V32.52H121.887V32.13C121.887 31.5167 122.044 31.07 122.357 30.79C122.677 30.5033 123.187 30.36 123.887 30.36V31.12C123.487 31.12 123.204 31.2 123.037 31.36C122.877 31.5133 122.797 31.77 122.797 32.13V32.52H123.947V33.27ZM127.398 38.09C126.885 38.09 126.418 37.9733 125.998 37.74C125.585 37.5067 125.258 37.1767 125.018 36.75C124.785 36.3167 124.668 35.8167 124.668 35.25C124.668 34.69 124.788 34.1967 125.028 33.77C125.275 33.3367 125.608 33.0067 126.028 32.78C126.448 32.5467 126.918 32.43 127.438 32.43C127.958 32.43 128.428 32.5467 128.848 32.78C129.268 33.0067 129.598 33.3333 129.838 33.76C130.085 34.1867 130.208 34.6833 130.208 35.25C130.208 35.8167 130.082 36.3167 129.828 36.75C129.582 37.1767 129.245 37.5067 128.818 37.74C128.392 37.9733 127.918 38.09 127.398 38.09ZM127.398 37.29C127.725 37.29 128.032 37.2133 128.318 37.06C128.605 36.9067 128.835 36.6767 129.008 36.37C129.188 36.0633 129.278 35.69 129.278 35.25C129.278 34.81 129.192 34.4367 129.018 34.13C128.845 33.8233 128.618 33.5967 128.338 33.45C128.058 33.2967 127.755 33.22 127.428 33.22C127.095 33.22 126.788 33.2967 126.508 33.45C126.235 33.5967 126.015 33.8233 125.848 34.13C125.682 34.4367 125.598 34.81 125.598 35.25C125.598 35.6967 125.678 36.0733 125.838 36.38C126.005 36.6867 126.225 36.9167 126.498 37.07C126.772 37.2167 127.072 37.29 127.398 37.29ZM136.405 31.59C137.145 31.59 137.788 31.73 138.335 32.01C138.881 32.29 139.301 32.6833 139.595 33.19C139.888 33.69 140.035 34.27 140.035 34.93C140.035 35.4567 139.948 35.9633 139.775 36.45C139.601 36.93 139.348 37.32 139.015 37.62C138.688 37.92 138.305 38.07 137.865 38.07C137.531 38.07 137.275 37.9867 137.095 37.82C136.915 37.6533 136.811 37.4267 136.785 37.14C136.578 37.4267 136.315 37.6533 135.995 37.82C135.681 37.9867 135.348 38.07 134.995 38.07C134.488 38.07 134.088 37.9167 133.795 37.61C133.508 37.2967 133.365 36.8767 133.365 36.35C133.365 35.85 133.468 35.3833 133.675 34.95C133.888 34.5167 134.181 34.17 134.555 33.91C134.928 33.6433 135.351 33.51 135.825 33.51C136.458 33.51 136.885 33.75 137.105 34.23L137.215 33.61H138.005L137.505 36.5C137.485 36.6267 137.475 36.7433 137.475 36.85C137.475 37.25 137.651 37.45 138.005 37.45C138.271 37.45 138.501 37.3233 138.695 37.07C138.895 36.8167 139.045 36.5 139.145 36.12C139.245 35.7333 139.295 35.3533 139.295 34.98C139.295 34.1067 139.031 33.43 138.505 32.95C137.985 32.47 137.248 32.23 136.295 32.23C135.501 32.23 134.785 32.4233 134.145 32.81C133.511 33.19 133.015 33.7133 132.655 34.38C132.295 35.0467 132.115 35.7833 132.115 36.59C132.108 37.47 132.371 38.1467 132.905 38.62C133.438 39.1 134.178 39.34 135.125 39.34C135.751 39.34 136.305 39.2267 136.785 39L136.905 39.62C136.311 39.8667 135.658 39.99 134.945 39.99C134.231 39.99 133.601 39.8533 133.055 39.58C132.515 39.3133 132.095 38.9267 131.795 38.42C131.501 37.92 131.355 37.3367 131.355 36.67C131.355 35.73 131.571 34.8733 132.005 34.1C132.438 33.32 133.038 32.7067 133.805 32.26C134.578 31.8133 135.445 31.59 136.405 31.59ZM135.265 37.36C135.565 37.36 135.841 37.2733 136.095 37.1C136.348 36.92 136.548 36.68 136.695 36.38C136.841 36.0733 136.915 35.74 136.915 35.38C136.915 35.0333 136.818 34.7533 136.625 34.54C136.438 34.32 136.171 34.21 135.825 34.21C135.505 34.21 135.221 34.3067 134.975 34.5C134.735 34.6867 134.548 34.9367 134.415 35.25C134.281 35.5567 134.215 35.8767 134.215 36.21C134.215 36.5633 134.305 36.8433 134.485 37.05C134.665 37.2567 134.925 37.36 135.265 37.36ZM143.792 32.43C144.265 32.43 144.678 32.5333 145.032 32.74C145.392 32.9467 145.658 33.2067 145.832 33.52V32.52H146.752V38.12C146.752 38.62 146.645 39.0633 146.432 39.45C146.218 39.8433 145.912 40.15 145.512 40.37C145.118 40.59 144.658 40.7 144.132 40.7C143.412 40.7 142.812 40.53 142.332 40.19C141.852 39.85 141.568 39.3867 141.482 38.8H142.382C142.482 39.1333 142.688 39.4 143.002 39.6C143.315 39.8067 143.692 39.91 144.132 39.91C144.632 39.91 145.038 39.7533 145.352 39.44C145.672 39.1267 145.832 38.6867 145.832 38.12V36.97C145.652 37.29 145.385 37.5567 145.032 37.77C144.678 37.9833 144.265 38.09 143.792 38.09C143.305 38.09 142.862 37.97 142.462 37.73C142.068 37.49 141.758 37.1533 141.532 36.72C141.305 36.2867 141.192 35.7933 141.192 35.24C141.192 34.68 141.305 34.19 141.532 33.77C141.758 33.3433 142.068 33.0133 142.462 32.78C142.862 32.5467 143.305 32.43 143.792 32.43ZM145.832 35.25C145.832 34.8367 145.748 34.4767 145.582 34.17C145.415 33.8633 145.188 33.63 144.902 33.47C144.622 33.3033 144.312 33.22 143.972 33.22C143.632 33.22 143.322 33.3 143.042 33.46C142.762 33.62 142.538 33.8533 142.372 34.16C142.205 34.4667 142.122 34.8267 142.122 35.24C142.122 35.66 142.205 36.0267 142.372 36.34C142.538 36.6467 142.762 36.8833 143.042 37.05C143.322 37.21 143.632 37.29 143.972 37.29C144.312 37.29 144.622 37.21 144.902 37.05C145.188 36.8833 145.415 36.6467 145.582 36.34C145.748 36.0267 145.832 35.6633 145.832 35.25ZM154.88 32.42C155.306 32.42 155.686 32.51 156.02 32.69C156.353 32.8633 156.616 33.1267 156.81 33.48C157.003 33.8333 157.1 34.2633 157.1 34.77V38H156.2V34.9C156.2 34.3533 156.063 33.9367 155.79 33.65C155.523 33.3567 155.16 33.21 154.7 33.21C154.226 33.21 153.85 33.3633 153.57 33.67C153.29 33.97 153.15 34.4067 153.15 34.98V38H152.25V34.9C152.25 34.3533 152.113 33.9367 151.84 33.65C151.573 33.3567 151.21 33.21 150.75 33.21C150.276 33.21 149.9 33.3633 149.62 33.67C149.34 33.97 149.2 34.4067 149.2 34.98V38H148.29V32.52H149.2V33.31C149.38 33.0233 149.62 32.8033 149.92 32.65C150.226 32.4967 150.563 32.42 150.93 32.42C151.39 32.42 151.796 32.5233 152.15 32.73C152.503 32.9367 152.766 33.24 152.94 33.64C153.093 33.2533 153.346 32.9533 153.7 32.74C154.053 32.5267 154.446 32.42 154.88 32.42ZM158.252 35.24C158.252 34.68 158.366 34.19 158.592 33.77C158.819 33.3433 159.129 33.0133 159.522 32.78C159.922 32.5467 160.366 32.43 160.852 32.43C161.332 32.43 161.749 32.5333 162.102 32.74C162.456 32.9467 162.719 33.2067 162.892 33.52V32.52H163.812V38H162.892V36.98C162.712 37.3 162.442 37.5667 162.082 37.78C161.729 37.9867 161.316 38.09 160.842 38.09C160.356 38.09 159.916 37.97 159.522 37.73C159.129 37.49 158.819 37.1533 158.592 36.72C158.366 36.2867 158.252 35.7933 158.252 35.24ZM162.892 35.25C162.892 34.8367 162.809 34.4767 162.642 34.17C162.476 33.8633 162.249 33.63 161.962 33.47C161.682 33.3033 161.372 33.22 161.032 33.22C160.692 33.22 160.382 33.3 160.102 33.46C159.822 33.62 159.599 33.8533 159.432 34.16C159.266 34.4667 159.182 34.8267 159.182 35.24C159.182 35.66 159.266 36.0267 159.432 36.34C159.599 36.6467 159.822 36.8833 160.102 37.05C160.382 37.21 160.692 37.29 161.032 37.29C161.372 37.29 161.682 37.21 161.962 37.05C162.249 36.8833 162.476 36.6467 162.642 36.34C162.809 36.0267 162.892 35.6633 162.892 35.25ZM165.82 31.63C165.647 31.63 165.5 31.57 165.38 31.45C165.26 31.33 165.2 31.1833 165.2 31.01C165.2 30.8367 165.26 30.69 165.38 30.57C165.5 30.45 165.647 30.39 165.82 30.39C165.987 30.39 166.127 30.45 166.24 30.57C166.36 30.69 166.42 30.8367 166.42 31.01C166.42 31.1833 166.36 31.33 166.24 31.45C166.127 31.57 165.987 31.63 165.82 31.63ZM166.26 32.52V38H165.35V32.52H166.26ZM168.721 30.6V38H167.811V30.6H168.721ZM170.562 38.06C170.389 38.06 170.242 38 170.122 37.88C170.002 37.76 169.942 37.6133 169.942 37.44C169.942 37.2667 170.002 37.12 170.122 37C170.242 36.88 170.389 36.82 170.562 36.82C170.729 36.82 170.869 36.88 170.982 37C171.102 37.12 171.162 37.2667 171.162 37.44C171.162 37.6133 171.102 37.76 170.982 37.88C170.869 38 170.729 38.06 170.562 38.06ZM172.032 35.25C172.032 34.6833 172.145 34.19 172.372 33.77C172.598 33.3433 172.912 33.0133 173.312 32.78C173.718 32.5467 174.182 32.43 174.702 32.43C175.375 32.43 175.928 32.5933 176.362 32.92C176.802 33.2467 177.092 33.7 177.232 34.28H176.252C176.158 33.9467 175.975 33.6833 175.702 33.49C175.435 33.2967 175.102 33.2 174.702 33.2C174.182 33.2 173.762 33.38 173.442 33.74C173.122 34.0933 172.962 34.5967 172.962 35.25C172.962 35.91 173.122 36.42 173.442 36.78C173.762 37.14 174.182 37.32 174.702 37.32C175.102 37.32 175.435 37.2267 175.702 37.04C175.968 36.8533 176.152 36.5867 176.252 36.24H177.232C177.085 36.8 176.792 37.25 176.352 37.59C175.912 37.9233 175.362 38.09 174.702 38.09C174.182 38.09 173.718 37.9733 173.312 37.74C172.912 37.5067 172.598 37.1767 172.372 36.75C172.145 36.3233 172.032 35.8233 172.032 35.25ZM180.836 38.09C180.322 38.09 179.856 37.9733 179.436 37.74C179.022 37.5067 178.696 37.1767 178.456 36.75C178.222 36.3167 178.106 35.8167 178.106 35.25C178.106 34.69 178.226 34.1967 178.466 33.77C178.712 33.3367 179.046 33.0067 179.466 32.78C179.886 32.5467 180.356 32.43 180.876 32.43C181.396 32.43 181.866 32.5467 182.286 32.78C182.706 33.0067 183.036 33.3333 183.276 33.76C183.522 34.1867 183.646 34.6833 183.646 35.25C183.646 35.8167 183.519 36.3167 183.266 36.75C183.019 37.1767 182.682 37.5067 182.256 37.74C181.829 37.9733 181.356 38.09 180.836 38.09ZM180.836 37.29C181.162 37.29 181.469 37.2133 181.756 37.06C182.042 36.9067 182.272 36.6767 182.446 36.37C182.626 36.0633 182.716 35.69 182.716 35.25C182.716 34.81 182.629 34.4367 182.456 34.13C182.282 33.8233 182.056 33.5967 181.776 33.45C181.496 33.2967 181.192 33.22 180.866 33.22C180.532 33.22 180.226 33.2967 179.946 33.45C179.672 33.5967 179.452 33.8233 179.286 34.13C179.119 34.4367 179.036 34.81 179.036 35.25C179.036 35.6967 179.116 36.0733 179.276 36.38C179.442 36.6867 179.662 36.9167 179.936 37.07C180.209 37.2167 180.509 37.29 180.836 37.29ZM191.432 32.42C191.859 32.42 192.239 32.51 192.572 32.69C192.906 32.8633 193.169 33.1267 193.362 33.48C193.556 33.8333 193.652 34.2633 193.652 34.77V38H192.752V34.9C192.752 34.3533 192.616 33.9367 192.342 33.65C192.076 33.3567 191.712 33.21 191.252 33.21C190.779 33.21 190.402 33.3633 190.122 33.67C189.842 33.97 189.702 34.4067 189.702 34.98V38H188.802V34.9C188.802 34.3533 188.666 33.9367 188.392 33.65C188.126 33.3567 187.762 33.21 187.302 33.21C186.829 33.21 186.452 33.3633 186.172 33.67C185.892 33.97 185.752 34.4067 185.752 34.98V38H184.842V32.52H185.752V33.31C185.932 33.0233 186.172 32.8033 186.472 32.65C186.779 32.4967 187.116 32.42 187.482 32.42C187.942 32.42 188.349 32.5233 188.702 32.73C189.056 32.9367 189.319 33.24 189.492 33.64C189.646 33.2533 189.899 32.9533 190.252 32.74C190.606 32.5267 190.999 32.42 191.432 32.42Z" fill="#6C6C6C"/>
<g clip-path="url(#clip0_0_1160)">
<path d="M39.7217 21L50 30.8672V54H21.875V21H39.7217ZM40.625 30H44.6533L40.625 26.1328V30ZM46.875 51V33H37.5V24H25V51H46.875ZM28.125 36H31.25V48H28.125V36ZM34.375 42H37.5V48H34.375V42ZM40.625 39H43.75V48H40.625V39ZM14.8438 9C15.5762 9 16.2028 9.07031 16.7236 9.21094C17.2445 9.35156 17.7165 9.53906 18.1396 9.77344C18.5628 10.0078 18.9372 10.25 19.2627 10.5C19.5882 10.75 19.9137 10.9922 20.2393 11.2266C20.5648 11.4609 20.9229 11.6406 21.3135 11.7656C21.7041 11.8906 22.1517 11.9688 22.6562 12H46.875C47.3145 12 47.7214 12.0781 48.0957 12.2344C48.4701 12.3906 48.7956 12.6016 49.0723 12.8672C49.349 13.1328 49.5768 13.4531 49.7559 13.8281C49.9349 14.2031 50.0163 14.5938 50 15V25.5703L46.875 22.5703V15H22.6562C22.1517 15 21.7122 15.0703 21.3379 15.2109C20.9635 15.3516 20.6055 15.5391 20.2637 15.7734C19.9219 16.0078 19.5882 16.25 19.2627 16.5C18.9372 16.75 18.571 16.9922 18.1641 17.2266C17.7572 17.4609 17.2852 17.6406 16.748 17.7656C16.2109 17.8906 15.5762 17.9688 14.8438 18H3.125V45H18.75V48H0V12C0 11.5781 0.0813802 11.1875 0.244141 10.8281C0.406901 10.4688 0.626628 10.1563 0.90332 9.89063C1.18001 9.625 1.51367 9.40625 1.9043 9.23438C2.29492 9.0625 2.70182 8.98437 3.125 9H14.8438ZM14.8438 15C15.2344 15 15.5762 14.9688 15.8691 14.9063C16.1621 14.8438 16.4307 14.7422 16.6748 14.6016C16.9189 14.4609 17.1549 14.3047 17.3828 14.1328C17.6107 13.9609 17.8711 13.75 18.1641 13.5C17.8874 13.2656 17.6351 13.0625 17.4072 12.8906C17.1794 12.7188 16.9352 12.5625 16.6748 12.4219C16.4144 12.2813 16.1458 12.1797 15.8691 12.1172C15.5924 12.0547 15.2507 12.0156 14.8438 12H3.125V15H14.8438Z" fill="#FF8717"/>
</g>
<path d="M66.88 51.27V54.5C66.88 54.7667 66.9367 54.9567 67.05 55.07C67.1633 55.1767 67.36 55.23 67.64 55.23H68.31V56H67.49C66.9833 56 66.6033 55.8833 66.35 55.65C66.0967 55.4167 65.97 55.0333 65.97 54.5V51.27H65.26V50.52H65.97V49.14H66.88V50.52H68.31V51.27H66.88ZM74.4126 53.05C74.4126 53.2233 74.4026 53.4067 74.3826 53.6H70.0026C70.0359 54.14 70.2192 54.5633 70.5526 54.87C70.8926 55.17 71.3026 55.32 71.7826 55.32C72.1759 55.32 72.5026 55.23 72.7626 55.05C73.0292 54.8633 73.2159 54.6167 73.3226 54.31H74.3026C74.1559 54.8367 73.8626 55.2667 73.4226 55.6C72.9826 55.9267 72.4359 56.09 71.7826 56.09C71.2626 56.09 70.7959 55.9733 70.3826 55.74C69.9759 55.5067 69.6559 55.1767 69.4226 54.75C69.1892 54.3167 69.0726 53.8167 69.0726 53.25C69.0726 52.6833 69.1859 52.1867 69.4126 51.76C69.6392 51.3333 69.9559 51.0067 70.3626 50.78C70.7759 50.5467 71.2492 50.43 71.7826 50.43C72.3026 50.43 72.7626 50.5433 73.1626 50.77C73.5626 50.9967 73.8692 51.31 74.0826 51.71C74.3026 52.1033 74.4126 52.55 74.4126 53.05ZM73.4726 52.86C73.4726 52.5133 73.3959 52.2167 73.2426 51.97C73.0892 51.7167 72.8792 51.5267 72.6126 51.4C72.3526 51.2667 72.0626 51.2 71.7426 51.2C71.2826 51.2 70.8892 51.3467 70.5626 51.64C70.2426 51.9333 70.0592 52.34 70.0126 52.86H73.4726ZM75.2738 53.25C75.2738 52.6833 75.3871 52.19 75.6138 51.77C75.8404 51.3433 76.1538 51.0133 76.5538 50.78C76.9604 50.5467 77.4238 50.43 77.9438 50.43C78.6171 50.43 79.1704 50.5933 79.6038 50.92C80.0438 51.2467 80.3338 51.7 80.4738 52.28H79.4938C79.4004 51.9467 79.2171 51.6833 78.9438 51.49C78.6771 51.2967 78.3438 51.2 77.9438 51.2C77.4238 51.2 77.0038 51.38 76.6838 51.74C76.3638 52.0933 76.2038 52.5967 76.2038 53.25C76.2038 53.91 76.3638 54.42 76.6838 54.78C77.0038 55.14 77.4238 55.32 77.9438 55.32C78.3438 55.32 78.6771 55.2267 78.9438 55.04C79.2104 54.8533 79.3938 54.5867 79.4938 54.24H80.4738C80.3271 54.8 80.0338 55.25 79.5938 55.59C79.1538 55.9233 78.6038 56.09 77.9438 56.09C77.4238 56.09 76.9604 55.9733 76.5538 55.74C76.1538 55.5067 75.8404 55.1767 75.6138 54.75C75.3871 54.3233 75.2738 53.8233 75.2738 53.25ZM84.408 50.42C84.8213 50.42 85.1946 50.51 85.528 50.69C85.8613 50.8633 86.1213 51.1267 86.308 51.48C86.5013 51.8333 86.598 52.2633 86.598 52.77V56H85.698V52.9C85.698 52.3533 85.5613 51.9367 85.288 51.65C85.0146 51.3567 84.6413 51.21 84.168 51.21C83.688 51.21 83.3046 51.36 83.018 51.66C82.738 51.96 82.598 52.3967 82.598 52.97V56H81.688V48.6H82.598V51.3C82.778 51.02 83.0246 50.8033 83.338 50.65C83.658 50.4967 84.0146 50.42 84.408 50.42ZM94.6745 50.42C95.1011 50.42 95.4811 50.51 95.8145 50.69C96.1478 50.8633 96.4111 51.1267 96.6045 51.48C96.7978 51.8333 96.8945 52.2633 96.8945 52.77V56H95.9945V52.9C95.9945 52.3533 95.8578 51.9367 95.5845 51.65C95.3178 51.3567 94.9545 51.21 94.4945 51.21C94.0211 51.21 93.6445 51.3633 93.3645 51.67C93.0845 51.97 92.9445 52.4067 92.9445 52.98V56H92.0445V52.9C92.0445 52.3533 91.9078 51.9367 91.6345 51.65C91.3678 51.3567 91.0045 51.21 90.5445 51.21C90.0711 51.21 89.6945 51.3633 89.4145 51.67C89.1345 51.97 88.9945 52.4067 88.9945 52.98V56H88.0845V50.52H88.9945V51.31C89.1745 51.0233 89.4145 50.8033 89.7145 50.65C90.0211 50.4967 90.3578 50.42 90.7245 50.42C91.1845 50.42 91.5911 50.5233 91.9445 50.73C92.2978 50.9367 92.5611 51.24 92.7345 51.64C92.8878 51.2533 93.1411 50.9533 93.4945 50.74C93.8478 50.5267 94.2411 50.42 94.6745 50.42ZM98.0472 53.24C98.0472 52.68 98.1605 52.19 98.3872 51.77C98.6139 51.3433 98.9239 51.0133 99.3172 50.78C99.7172 50.5467 100.161 50.43 100.647 50.43C101.127 50.43 101.544 50.5333 101.897 50.74C102.251 50.9467 102.514 51.2067 102.687 51.52V50.52H103.607V56H102.687V54.98C102.507 55.3 102.237 55.5667 101.877 55.78C101.524 55.9867 101.111 56.09 100.637 56.09C100.151 56.09 99.7105 55.97 99.3172 55.73C98.9239 55.49 98.6139 55.1533 98.3872 54.72C98.1605 54.2867 98.0472 53.7933 98.0472 53.24ZM102.687 53.25C102.687 52.8367 102.604 52.4767 102.437 52.17C102.271 51.8633 102.044 51.63 101.757 51.47C101.477 51.3033 101.167 51.22 100.827 51.22C100.487 51.22 100.177 51.3 99.8972 51.46C99.6172 51.62 99.3939 51.8533 99.2272 52.16C99.0605 52.4667 98.9772 52.8267 98.9772 53.24C98.9772 53.66 99.0605 54.0267 99.2272 54.34C99.3939 54.6467 99.6172 54.8833 99.8972 55.05C100.177 55.21 100.487 55.29 100.827 55.29C101.167 55.29 101.477 55.21 101.757 55.05C102.044 54.8833 102.271 54.6467 102.437 54.34C102.604 54.0267 102.687 53.6633 102.687 53.25ZM106.055 51.41C106.215 51.0967 106.442 50.8533 106.735 50.68C107.035 50.5067 107.398 50.42 107.825 50.42V51.36H107.585C106.565 51.36 106.055 51.9133 106.055 53.02V56H105.145V50.52H106.055V51.41ZM111.935 56L109.785 53.58V56H108.875V48.6H109.785V52.95L111.895 50.52H113.165L110.585 53.25L113.175 56H111.935ZM119.022 53.05C119.022 53.2233 119.012 53.4067 118.992 53.6H114.612C114.645 54.14 114.829 54.5633 115.162 54.87C115.502 55.17 115.912 55.32 116.392 55.32C116.785 55.32 117.112 55.23 117.372 55.05C117.639 54.8633 117.825 54.6167 117.932 54.31H118.912C118.765 54.8367 118.472 55.2667 118.032 55.6C117.592 55.9267 117.045 56.09 116.392 56.09C115.872 56.09 115.405 55.9733 114.992 55.74C114.585 55.5067 114.265 55.1767 114.032 54.75C113.799 54.3167 113.682 53.8167 113.682 53.25C113.682 52.6833 113.795 52.1867 114.022 51.76C114.249 51.3333 114.565 51.0067 114.972 50.78C115.385 50.5467 115.859 50.43 116.392 50.43C116.912 50.43 117.372 50.5433 117.772 50.77C118.172 50.9967 118.479 51.31 118.692 51.71C118.912 52.1033 119.022 52.55 119.022 53.05ZM118.082 52.86C118.082 52.5133 118.005 52.2167 117.852 51.97C117.699 51.7167 117.489 51.5267 117.222 51.4C116.962 51.2667 116.672 51.2 116.352 51.2C115.892 51.2 115.499 51.3467 115.172 51.64C114.852 51.9333 114.669 52.34 114.622 52.86H118.082ZM121.333 51.27V54.5C121.333 54.7667 121.39 54.9567 121.503 55.07C121.616 55.1767 121.813 55.23 122.093 55.23H122.763V56H121.943C121.436 56 121.056 55.8833 120.803 55.65C120.55 55.4167 120.423 55.0333 120.423 54.5V51.27H119.713V50.52H120.423V49.14H121.333V50.52H122.763V51.27H121.333ZM124.336 49.63C124.162 49.63 124.016 49.57 123.896 49.45C123.776 49.33 123.716 49.1833 123.716 49.01C123.716 48.8367 123.776 48.69 123.896 48.57C124.016 48.45 124.162 48.39 124.336 48.39C124.502 48.39 124.642 48.45 124.756 48.57C124.876 48.69 124.936 48.8367 124.936 49.01C124.936 49.1833 124.876 49.33 124.756 49.45C124.642 49.57 124.502 49.63 124.336 49.63ZM124.776 50.52V56H123.866V50.52H124.776ZM128.997 50.42C129.663 50.42 130.203 50.6233 130.617 51.03C131.03 51.43 131.237 52.01 131.237 52.77V56H130.337V52.9C130.337 52.3533 130.2 51.9367 129.927 51.65C129.653 51.3567 129.28 51.21 128.807 51.21C128.327 51.21 127.943 51.36 127.657 51.66C127.377 51.96 127.237 52.3967 127.237 52.97V56H126.327V50.52H127.237V51.3C127.417 51.02 127.66 50.8033 127.967 50.65C128.28 50.4967 128.623 50.42 128.997 50.42ZM134.953 51.27H133.803V56H132.893V51.27H132.183V50.52H132.893V50.13C132.893 49.5167 133.05 49.07 133.363 48.79C133.683 48.5033 134.193 48.36 134.893 48.36V49.12C134.493 49.12 134.21 49.2 134.043 49.36C133.883 49.5133 133.803 49.77 133.803 50.13V50.52H134.953V51.27ZM138.404 56.09C137.891 56.09 137.424 55.9733 137.004 55.74C136.591 55.5067 136.264 55.1767 136.024 54.75C135.791 54.3167 135.674 53.8167 135.674 53.25C135.674 52.69 135.794 52.1967 136.034 51.77C136.281 51.3367 136.614 51.0067 137.034 50.78C137.454 50.5467 137.924 50.43 138.444 50.43C138.964 50.43 139.434 50.5467 139.854 50.78C140.274 51.0067 140.604 51.3333 140.844 51.76C141.091 52.1867 141.214 52.6833 141.214 53.25C141.214 53.8167 141.087 54.3167 140.834 54.75C140.587 55.1767 140.251 55.5067 139.824 55.74C139.397 55.9733 138.924 56.09 138.404 56.09ZM138.404 55.29C138.731 55.29 139.037 55.2133 139.324 55.06C139.611 54.9067 139.841 54.6767 140.014 54.37C140.194 54.0633 140.284 53.69 140.284 53.25C140.284 52.81 140.197 52.4367 140.024 52.13C139.851 51.8233 139.624 51.5967 139.344 51.45C139.064 51.2967 138.761 51.22 138.434 51.22C138.101 51.22 137.794 51.2967 137.514 51.45C137.241 51.5967 137.021 51.8233 136.854 52.13C136.687 52.4367 136.604 52.81 136.604 53.25C136.604 53.6967 136.684 54.0733 136.844 54.38C137.011 54.6867 137.231 54.9167 137.504 55.07C137.777 55.2167 138.077 55.29 138.404 55.29ZM147.411 49.59C148.151 49.59 148.794 49.73 149.341 50.01C149.887 50.29 150.307 50.6833 150.601 51.19C150.894 51.69 151.041 52.27 151.041 52.93C151.041 53.4567 150.954 53.9633 150.781 54.45C150.607 54.93 150.354 55.32 150.021 55.62C149.694 55.92 149.311 56.07 148.871 56.07C148.537 56.07 148.281 55.9867 148.101 55.82C147.921 55.6533 147.817 55.4267 147.791 55.14C147.584 55.4267 147.321 55.6533 147.001 55.82C146.687 55.9867 146.354 56.07 146.001 56.07C145.494 56.07 145.094 55.9167 144.801 55.61C144.514 55.2967 144.371 54.8767 144.371 54.35C144.371 53.85 144.474 53.3833 144.681 52.95C144.894 52.5167 145.187 52.17 145.561 51.91C145.934 51.6433 146.357 51.51 146.831 51.51C147.464 51.51 147.891 51.75 148.111 52.23L148.221 51.61H149.011L148.511 54.5C148.491 54.6267 148.481 54.7433 148.481 54.85C148.481 55.25 148.657 55.45 149.011 55.45C149.277 55.45 149.507 55.3233 149.701 55.07C149.901 54.8167 150.051 54.5 150.151 54.12C150.251 53.7333 150.301 53.3533 150.301 52.98C150.301 52.1067 150.037 51.43 149.511 50.95C148.991 50.47 148.254 50.23 147.301 50.23C146.507 50.23 145.791 50.4233 145.151 50.81C144.517 51.19 144.021 51.7133 143.661 52.38C143.301 53.0467 143.121 53.7833 143.121 54.59C143.114 55.47 143.377 56.1467 143.911 56.62C144.444 57.1 145.184 57.34 146.131 57.34C146.757 57.34 147.311 57.2267 147.791 57L147.911 57.62C147.317 57.8667 146.664 57.99 145.951 57.99C145.237 57.99 144.607 57.8533 144.061 57.58C143.521 57.3133 143.101 56.9267 142.801 56.42C142.507 55.92 142.361 55.3367 142.361 54.67C142.361 53.73 142.577 52.8733 143.011 52.1C143.444 51.32 144.044 50.7067 144.811 50.26C145.584 49.8133 146.451 49.59 147.411 49.59ZM146.271 55.36C146.571 55.36 146.847 55.2733 147.101 55.1C147.354 54.92 147.554 54.68 147.701 54.38C147.847 54.0733 147.921 53.74 147.921 53.38C147.921 53.0333 147.824 52.7533 147.631 52.54C147.444 52.32 147.177 52.21 146.831 52.21C146.511 52.21 146.227 52.3067 145.981 52.5C145.741 52.6867 145.554 52.9367 145.421 53.25C145.287 53.5567 145.221 53.8767 145.221 54.21C145.221 54.5633 145.311 54.8433 145.491 55.05C145.671 55.2567 145.931 55.36 146.271 55.36ZM154.798 50.43C155.271 50.43 155.684 50.5333 156.038 50.74C156.398 50.9467 156.664 51.2067 156.838 51.52V50.52H157.758V56.12C157.758 56.62 157.651 57.0633 157.438 57.45C157.224 57.8433 156.918 58.15 156.518 58.37C156.124 58.59 155.664 58.7 155.138 58.7C154.418 58.7 153.818 58.53 153.338 58.19C152.858 57.85 152.574 57.3867 152.488 56.8H153.388C153.488 57.1333 153.694 57.4 154.008 57.6C154.321 57.8067 154.698 57.91 155.138 57.91C155.638 57.91 156.044 57.7533 156.358 57.44C156.678 57.1267 156.838 56.6867 156.838 56.12V54.97C156.658 55.29 156.391 55.5567 156.038 55.77C155.684 55.9833 155.271 56.09 154.798 56.09C154.311 56.09 153.868 55.97 153.468 55.73C153.074 55.49 152.764 55.1533 152.538 54.72C152.311 54.2867 152.198 53.7933 152.198 53.24C152.198 52.68 152.311 52.19 152.538 51.77C152.764 51.3433 153.074 51.0133 153.468 50.78C153.868 50.5467 154.311 50.43 154.798 50.43ZM156.838 53.25C156.838 52.8367 156.754 52.4767 156.588 52.17C156.421 51.8633 156.194 51.63 155.908 51.47C155.628 51.3033 155.318 51.22 154.978 51.22C154.638 51.22 154.328 51.3 154.048 51.46C153.768 51.62 153.544 51.8533 153.378 52.16C153.211 52.4667 153.128 52.8267 153.128 53.24C153.128 53.66 153.211 54.0267 153.378 54.34C153.544 54.6467 153.768 54.8833 154.048 55.05C154.328 55.21 154.638 55.29 154.978 55.29C155.318 55.29 155.628 55.21 155.908 55.05C156.194 54.8833 156.421 54.6467 156.588 54.34C156.754 54.0267 156.838 53.6633 156.838 53.25ZM165.885 50.42C166.312 50.42 166.692 50.51 167.025 50.69C167.359 50.8633 167.622 51.1267 167.815 51.48C168.009 51.8333 168.105 52.2633 168.105 52.77V56H167.205V52.9C167.205 52.3533 167.069 51.9367 166.795 51.65C166.529 51.3567 166.165 51.21 165.705 51.21C165.232 51.21 164.855 51.3633 164.575 51.67C164.295 51.97 164.155 52.4067 164.155 52.98V56H163.255V52.9C163.255 52.3533 163.119 51.9367 162.845 51.65C162.579 51.3567 162.215 51.21 161.755 51.21C161.282 51.21 160.905 51.3633 160.625 51.67C160.345 51.97 160.205 52.4067 160.205 52.98V56H159.295V50.52H160.205V51.31C160.385 51.0233 160.625 50.8033 160.925 50.65C161.232 50.4967 161.569 50.42 161.935 50.42C162.395 50.42 162.802 50.5233 163.155 50.73C163.509 50.9367 163.772 51.24 163.945 51.64C164.099 51.2533 164.352 50.9533 164.705 50.74C165.059 50.5267 165.452 50.42 165.885 50.42ZM169.258 53.24C169.258 52.68 169.371 52.19 169.598 51.77C169.825 51.3433 170.135 51.0133 170.528 50.78C170.928 50.5467 171.371 50.43 171.858 50.43C172.338 50.43 172.755 50.5333 173.108 50.74C173.461 50.9467 173.725 51.2067 173.898 51.52V50.52H174.818V56H173.898V54.98C173.718 55.3 173.448 55.5667 173.088 55.78C172.735 55.9867 172.321 56.09 171.848 56.09C171.361 56.09 170.921 55.97 170.528 55.73C170.135 55.49 169.825 55.1533 169.598 54.72C169.371 54.2867 169.258 53.7933 169.258 53.24ZM173.898 53.25C173.898 52.8367 173.815 52.4767 173.648 52.17C173.481 51.8633 173.255 51.63 172.968 51.47C172.688 51.3033 172.378 51.22 172.038 51.22C171.698 51.22 171.388 51.3 171.108 51.46C170.828 51.62 170.605 51.8533 170.438 52.16C170.271 52.4667 170.188 52.8267 170.188 53.24C170.188 53.66 170.271 54.0267 170.438 54.34C170.605 54.6467 170.828 54.8833 171.108 55.05C171.388 55.21 171.698 55.29 172.038 55.29C172.378 55.29 172.688 55.21 172.968 55.05C173.255 54.8833 173.481 54.6467 173.648 54.34C173.815 54.0267 173.898 53.6633 173.898 53.25ZM176.826 49.63C176.653 49.63 176.506 49.57 176.386 49.45C176.266 49.33 176.206 49.1833 176.206 49.01C176.206 48.8367 176.266 48.69 176.386 48.57C176.506 48.45 176.653 48.39 176.826 48.39C176.993 48.39 177.133 48.45 177.246 48.57C177.366 48.69 177.426 48.8367 177.426 49.01C177.426 49.1833 177.366 49.33 177.246 49.45C177.133 49.57 176.993 49.63 176.826 49.63ZM177.266 50.52V56H176.356V50.52H177.266ZM179.727 48.6V56H178.817V48.6H179.727ZM181.568 56.06C181.394 56.06 181.248 56 181.128 55.88C181.008 55.76 180.948 55.6133 180.948 55.44C180.948 55.2667 181.008 55.12 181.128 55C181.248 54.88 181.394 54.82 181.568 54.82C181.734 54.82 181.874 54.88 181.988 55C182.108 55.12 182.168 55.2667 182.168 55.44C182.168 55.6133 182.108 55.76 181.988 55.88C181.874 56 181.734 56.06 181.568 56.06ZM183.037 53.25C183.037 52.6833 183.151 52.19 183.377 51.77C183.604 51.3433 183.917 51.0133 184.317 50.78C184.724 50.5467 185.187 50.43 185.707 50.43C186.381 50.43 186.934 50.5933 187.367 50.92C187.807 51.2467 188.097 51.7 188.237 52.28H187.257C187.164 51.9467 186.981 51.6833 186.707 51.49C186.441 51.2967 186.107 51.2 185.707 51.2C185.187 51.2 184.767 51.38 184.447 51.74C184.127 52.0933 183.967 52.5967 183.967 53.25C183.967 53.91 184.127 54.42 184.447 54.78C184.767 55.14 185.187 55.32 185.707 55.32C186.107 55.32 186.441 55.2267 186.707 55.04C186.974 54.8533 187.157 54.5867 187.257 54.24H188.237C188.091 54.8 187.797 55.25 187.357 55.59C186.917 55.9233 186.367 56.09 185.707 56.09C185.187 56.09 184.724 55.9733 184.317 55.74C183.917 55.5067 183.604 55.1767 183.377 54.75C183.151 54.3233 183.037 53.8233 183.037 53.25ZM191.842 56.09C191.328 56.09 190.862 55.9733 190.442 55.74C190.028 55.5067 189.702 55.1767 189.462 54.75C189.228 54.3167 189.112 53.8167 189.112 53.25C189.112 52.69 189.232 52.1967 189.472 51.77C189.718 51.3367 190.052 51.0067 190.472 50.78C190.892 50.5467 191.362 50.43 191.882 50.43C192.402 50.43 192.872 50.5467 193.292 50.78C193.712 51.0067 194.042 51.3333 194.282 51.76C194.528 52.1867 194.652 52.6833 194.652 53.25C194.652 53.8167 194.525 54.3167 194.272 54.75C194.025 55.1767 193.688 55.5067 193.262 55.74C192.835 55.9733 192.362 56.09 191.842 56.09ZM191.842 55.29C192.168 55.29 192.475 55.2133 192.762 55.06C193.048 54.9067 193.278 54.6767 193.452 54.37C193.632 54.0633 193.722 53.69 193.722 53.25C193.722 52.81 193.635 52.4367 193.462 52.13C193.288 51.8233 193.062 51.5967 192.782 51.45C192.502 51.2967 192.198 51.22 191.872 51.22C191.538 51.22 191.232 51.2967 190.952 51.45C190.678 51.5967 190.458 51.8233 190.292 52.13C190.125 52.4367 190.042 52.81 190.042 53.25C190.042 53.6967 190.122 54.0733 190.282 54.38C190.448 54.6867 190.668 54.9167 190.942 55.07C191.215 55.2167 191.515 55.29 191.842 55.29ZM202.438 50.42C202.865 50.42 203.245 50.51 203.578 50.69C203.911 50.8633 204.175 51.1267 204.368 51.48C204.561 51.8333 204.658 52.2633 204.658 52.77V56H203.758V52.9C203.758 52.3533 203.621 51.9367 203.348 51.65C203.081 51.3567 202.718 51.21 202.258 51.21C201.785 51.21 201.408 51.3633 201.128 51.67C200.848 51.97 200.708 52.4067 200.708 52.98V56H199.808V52.9C199.808 52.3533 199.671 51.9367 199.398 51.65C199.131 51.3567 198.768 51.21 198.308 51.21C197.835 51.21 197.458 51.3633 197.178 51.67C196.898 51.97 196.758 52.4067 196.758 52.98V56H195.848V50.52H196.758V51.31C196.938 51.0233 197.178 50.8033 197.478 50.65C197.785 50.4967 198.121 50.42 198.488 50.42C198.948 50.42 199.355 50.5233 199.708 50.73C200.061 50.9367 200.325 51.24 200.498 51.64C200.651 51.2533 200.905 50.9533 201.258 50.74C201.611 50.5267 202.005 50.42 202.438 50.42Z" fill="#6C6C6C"/>
<defs>
<clipPath id="clip0_0_1160">
<rect width="50" height="48" fill="white" transform="translate(0 6)"/>
</clipPath>
</defs>
</svg>
