<svg width="230" height="72" viewBox="0 0 230 72" fill="none" xmlns="http://www.w3.org/2000/svg">
<path d="M58.625 12.9375H8.375C7.26441 12.9375 6.1993 13.2865 5.41399 13.9077C4.62868 14.5289 4.1875 15.3715 4.1875 16.25V42.75C4.1875 43.6285 4.62868 44.4711 5.41399 45.0923C6.1993 45.7135 7.26441 46.0625 8.375 46.0625H58.625C59.7356 46.0625 60.8007 45.7135 61.586 45.0923C62.3713 44.4711 62.8125 43.6285 62.8125 42.75V16.25C62.8125 15.3715 62.3713 14.5289 61.586 13.9077C60.8007 13.2865 59.7356 12.9375 58.625 12.9375ZM54.0187 16.25L33.5 27.4794L12.9812 16.25H54.0187ZM8.375 42.75V17.7572L32.3066 30.8581C32.657 31.0505 33.0734 31.1535 33.5 31.1535C33.9266 31.1535 34.343 31.0505 34.6934 30.8581L58.625 17.7572V42.75H8.375Z" fill="#FF8717"/>
<path d="M89.904 15.728H85.248L84.448 18H82.544L86.528 6.864H88.64L92.624 18H90.704L89.904 15.728ZM89.392 14.24L87.584 9.072L85.76 14.24H89.392ZM96.1803 6.16V18H94.3563V6.16H96.1803ZM97.967 13.552C97.967 12.6667 98.1483 11.8827 98.511 11.2C98.8843 10.5173 99.3857 9.98933 100.015 9.616C100.655 9.232 101.359 9.04 102.127 9.04C102.82 9.04 103.423 9.17867 103.935 9.456C104.458 9.72267 104.874 10.0587 105.183 10.464V9.184H107.023V18H105.183V16.688C104.874 17.104 104.452 17.4507 103.919 17.728C103.386 18.0053 102.778 18.144 102.095 18.144C101.338 18.144 100.644 17.952 100.015 17.568C99.3857 17.1733 98.8843 16.6293 98.511 15.936C98.1483 15.232 97.967 14.4373 97.967 13.552ZM105.183 13.584C105.183 12.976 105.055 12.448 104.799 12C104.554 11.552 104.228 11.2107 103.823 10.976C103.418 10.7413 102.98 10.624 102.511 10.624C102.042 10.624 101.604 10.7413 101.199 10.976C100.794 11.2 100.463 11.536 100.207 11.984C99.9617 12.4213 99.839 12.944 99.839 13.552C99.839 14.16 99.9617 14.6933 100.207 15.152C100.463 15.6107 100.794 15.9627 101.199 16.208C101.615 16.4427 102.052 16.56 102.511 16.56C102.98 16.56 103.418 16.4427 103.823 16.208C104.228 15.9733 104.554 15.632 104.799 15.184C105.055 14.7253 105.183 14.192 105.183 13.584ZM120.091 9.04C120.784 9.04 121.403 9.184 121.947 9.472C122.501 9.76 122.933 10.1867 123.243 10.752C123.563 11.3173 123.723 12 123.723 12.8V18H121.915V13.072C121.915 12.2827 121.717 11.68 121.323 11.264C120.928 10.8373 120.389 10.624 119.707 10.624C119.024 10.624 118.48 10.8373 118.075 11.264C117.68 11.68 117.483 12.2827 117.483 13.072V18H115.675V13.072C115.675 12.2827 115.477 11.68 115.083 11.264C114.688 10.8373 114.149 10.624 113.467 10.624C112.784 10.624 112.24 10.8373 111.835 11.264C111.44 11.68 111.243 12.2827 111.243 13.072V18H109.419V9.184H111.243V10.192C111.541 9.82933 111.92 9.54667 112.379 9.344C112.837 9.14133 113.328 9.04 113.851 9.04C114.555 9.04 115.184 9.18933 115.739 9.488C116.293 9.78667 116.72 10.2187 117.019 10.784C117.285 10.2507 117.701 9.82933 118.267 9.52C118.832 9.2 119.44 9.04 120.091 9.04ZM125.436 13.552C125.436 12.6667 125.617 11.8827 125.98 11.2C126.353 10.5173 126.854 9.98933 127.484 9.616C128.124 9.232 128.828 9.04 129.596 9.04C130.289 9.04 130.892 9.17867 131.404 9.456C131.926 9.72267 132.342 10.0587 132.652 10.464V9.184H134.492V18H132.652V16.688C132.342 17.104 131.921 17.4507 131.388 17.728C130.854 18.0053 130.246 18.144 129.564 18.144C128.806 18.144 128.113 17.952 127.484 17.568C126.854 17.1733 126.353 16.6293 125.98 15.936C125.617 15.232 125.436 14.4373 125.436 13.552ZM132.652 13.584C132.652 12.976 132.524 12.448 132.268 12C132.022 11.552 131.697 11.2107 131.292 10.976C130.886 10.7413 130.449 10.624 129.98 10.624C129.51 10.624 129.073 10.7413 128.668 10.976C128.262 11.2 127.932 11.536 127.676 11.984C127.43 12.4213 127.308 12.944 127.308 13.552C127.308 14.16 127.43 14.6933 127.676 15.152C127.932 15.6107 128.262 15.9627 128.668 16.208C129.084 16.4427 129.521 16.56 129.98 16.56C130.449 16.56 130.886 16.4427 131.292 16.208C131.697 15.9733 132.022 15.632 132.268 15.184C132.524 14.7253 132.652 14.192 132.652 13.584ZM139.016 10.672V15.552C139.016 15.8827 139.09 16.1227 139.24 16.272C139.4 16.4107 139.666 16.48 140.04 16.48H141.16V18H139.72C138.898 18 138.269 17.808 137.832 17.424C137.394 17.04 137.176 16.416 137.176 15.552V10.672H136.136V9.184H137.176V6.992H139.016V9.184H141.16V10.672H139.016ZM148.821 8.352V11.616H152.661V13.104H148.821V16.512H153.141V18H146.997V6.864H153.141V8.352H148.821ZM166.06 9.04C166.753 9.04 167.372 9.184 167.916 9.472C168.47 9.76 168.902 10.1867 169.212 10.752C169.532 11.3173 169.692 12 169.692 12.8V18H167.884V13.072C167.884 12.2827 167.686 11.68 167.292 11.264C166.897 10.8373 166.358 10.624 165.676 10.624C164.993 10.624 164.449 10.8373 164.044 11.264C163.649 11.68 163.452 12.2827 163.452 13.072V18H161.644V13.072C161.644 12.2827 161.446 11.68 161.052 11.264C160.657 10.8373 160.118 10.624 159.436 10.624C158.753 10.624 158.209 10.8373 157.804 11.264C157.409 11.68 157.212 12.2827 157.212 13.072V18H155.388V9.184H157.212V10.192C157.51 9.82933 157.889 9.54667 158.348 9.344C158.806 9.14133 159.297 9.04 159.82 9.04C160.524 9.04 161.153 9.18933 161.708 9.488C162.262 9.78667 162.689 10.2187 162.988 10.784C163.254 10.2507 163.67 9.82933 164.236 9.52C164.801 9.2 165.409 9.04 166.06 9.04ZM171.405 13.552C171.405 12.6667 171.586 11.8827 171.949 11.2C172.322 10.5173 172.823 9.98933 173.453 9.616C174.093 9.232 174.797 9.04 175.565 9.04C176.258 9.04 176.861 9.17867 177.373 9.456C177.895 9.72267 178.311 10.0587 178.621 10.464V9.184H180.461V18H178.621V16.688C178.311 17.104 177.89 17.4507 177.357 17.728C176.823 18.0053 176.215 18.144 175.533 18.144C174.775 18.144 174.082 17.952 173.453 17.568C172.823 17.1733 172.322 16.6293 171.949 15.936C171.586 15.232 171.405 14.4373 171.405 13.552ZM178.621 13.584C178.621 12.976 178.493 12.448 178.237 12C177.991 11.552 177.666 11.2107 177.261 10.976C176.855 10.7413 176.418 10.624 175.949 10.624C175.479 10.624 175.042 10.7413 174.637 10.976C174.231 11.2 173.901 11.536 173.645 11.984C173.399 12.4213 173.277 12.944 173.277 13.552C173.277 14.16 173.399 14.6933 173.645 15.152C173.901 15.6107 174.231 15.9627 174.637 16.208C175.053 16.4427 175.49 16.56 175.949 16.56C176.418 16.56 176.855 16.4427 177.261 16.208C177.666 15.9733 177.991 15.632 178.237 15.184C178.493 14.7253 178.621 14.192 178.621 13.584ZM183.784 8.016C183.454 8.016 183.176 7.904 182.952 7.68C182.728 7.456 182.616 7.17867 182.616 6.848C182.616 6.51733 182.728 6.24 182.952 6.016C183.176 5.792 183.454 5.68 183.784 5.68C184.104 5.68 184.376 5.792 184.6 6.016C184.824 6.24 184.936 6.51733 184.936 6.848C184.936 7.17867 184.824 7.456 184.6 7.68C184.376 7.904 184.104 8.016 183.784 8.016ZM184.68 9.184V18H182.856V9.184H184.68ZM188.899 6.16V18H187.075V6.16H188.899Z" fill="black"/>
<path d="M83.88 33.27V36.5C83.88 36.7667 83.9367 36.9567 84.05 37.07C84.1633 37.1767 84.36 37.23 84.64 37.23H85.31V38H84.49C83.9833 38 83.6033 37.8833 83.35 37.65C83.0967 37.4167 82.97 37.0333 82.97 36.5V33.27H82.26V32.52H82.97V31.14H83.88V32.52H85.31V33.27H83.88ZM91.4126 35.05C91.4126 35.2233 91.4026 35.4067 91.3826 35.6H87.0026C87.0359 36.14 87.2192 36.5633 87.5526 36.87C87.8926 37.17 88.3026 37.32 88.7826 37.32C89.1759 37.32 89.5026 37.23 89.7626 37.05C90.0292 36.8633 90.2159 36.6167 90.3226 36.31H91.3026C91.1559 36.8367 90.8626 37.2667 90.4226 37.6C89.9826 37.9267 89.4359 38.09 88.7826 38.09C88.2626 38.09 87.7959 37.9733 87.3826 37.74C86.9759 37.5067 86.6559 37.1767 86.4226 36.75C86.1892 36.3167 86.0726 35.8167 86.0726 35.25C86.0726 34.6833 86.1859 34.1867 86.4126 33.76C86.6392 33.3333 86.9559 33.0067 87.3626 32.78C87.7759 32.5467 88.2492 32.43 88.7826 32.43C89.3026 32.43 89.7626 32.5433 90.1626 32.77C90.5626 32.9967 90.8692 33.31 91.0826 33.71C91.3026 34.1033 91.4126 34.55 91.4126 35.05ZM90.4726 34.86C90.4726 34.5133 90.3959 34.2167 90.2426 33.97C90.0892 33.7167 89.8792 33.5267 89.6126 33.4C89.3526 33.2667 89.0626 33.2 88.7426 33.2C88.2826 33.2 87.8892 33.3467 87.5626 33.64C87.2426 33.9333 87.0592 34.34 87.0126 34.86H90.4726ZM92.2738 35.25C92.2738 34.6833 92.3871 34.19 92.6138 33.77C92.8404 33.3433 93.1538 33.0133 93.5538 32.78C93.9604 32.5467 94.4238 32.43 94.9438 32.43C95.6171 32.43 96.1704 32.5933 96.6038 32.92C97.0438 33.2467 97.3338 33.7 97.4738 34.28H96.4938C96.4004 33.9467 96.2171 33.6833 95.9438 33.49C95.6771 33.2967 95.3438 33.2 94.9438 33.2C94.4238 33.2 94.0038 33.38 93.6838 33.74C93.3638 34.0933 93.2038 34.5967 93.2038 35.25C93.2038 35.91 93.3638 36.42 93.6838 36.78C94.0038 37.14 94.4238 37.32 94.9438 37.32C95.3438 37.32 95.6771 37.2267 95.9438 37.04C96.2104 36.8533 96.3938 36.5867 96.4938 36.24H97.4738C97.3271 36.8 97.0338 37.25 96.5938 37.59C96.1538 37.9233 95.6038 38.09 94.9438 38.09C94.4238 38.09 93.9604 37.9733 93.5538 37.74C93.1538 37.5067 92.8404 37.1767 92.6138 36.75C92.3871 36.3233 92.2738 35.8233 92.2738 35.25ZM101.408 32.42C101.821 32.42 102.195 32.51 102.528 32.69C102.861 32.8633 103.121 33.1267 103.308 33.48C103.501 33.8333 103.598 34.2633 103.598 34.77V38H102.698V34.9C102.698 34.3533 102.561 33.9367 102.288 33.65C102.015 33.3567 101.641 33.21 101.168 33.21C100.688 33.21 100.305 33.36 100.018 33.66C99.738 33.96 99.598 34.3967 99.598 34.97V38H98.688V30.6H99.598V33.3C99.778 33.02 100.025 32.8033 100.338 32.65C100.658 32.4967 101.015 32.42 101.408 32.42ZM107.024 38.09C106.604 38.09 106.228 38.02 105.894 37.88C105.561 37.7333 105.298 37.5333 105.104 37.28C104.911 37.02 104.804 36.7233 104.784 36.39H105.724C105.751 36.6633 105.878 36.8867 106.104 37.06C106.338 37.2333 106.641 37.32 107.014 37.32C107.361 37.32 107.634 37.2433 107.834 37.09C108.034 36.9367 108.134 36.7433 108.134 36.51C108.134 36.27 108.028 36.0933 107.814 35.98C107.601 35.86 107.271 35.7433 106.824 35.63C106.418 35.5233 106.084 35.4167 105.824 35.31C105.571 35.1967 105.351 35.0333 105.164 34.82C104.984 34.6 104.894 34.3133 104.894 33.96C104.894 33.68 104.978 33.4233 105.144 33.19C105.311 32.9567 105.548 32.7733 105.854 32.64C106.161 32.5 106.511 32.43 106.904 32.43C107.511 32.43 108.001 32.5833 108.374 32.89C108.748 33.1967 108.948 33.6167 108.974 34.15H108.064C108.044 33.8633 107.928 33.6333 107.714 33.46C107.508 33.2867 107.228 33.2 106.874 33.2C106.548 33.2 106.288 33.27 106.094 33.41C105.901 33.55 105.804 33.7333 105.804 33.96C105.804 34.14 105.861 34.29 105.974 34.41C106.094 34.5233 106.241 34.6167 106.414 34.69C106.594 34.7567 106.841 34.8333 107.154 34.92C107.548 35.0267 107.868 35.1333 108.114 35.24C108.361 35.34 108.571 35.4933 108.744 35.7C108.924 35.9067 109.018 36.1767 109.024 36.51C109.024 36.81 108.941 37.08 108.774 37.32C108.608 37.56 108.371 37.75 108.064 37.89C107.764 38.0233 107.418 38.09 107.024 38.09ZM113.029 32.42C113.442 32.42 113.816 32.51 114.149 32.69C114.482 32.8633 114.742 33.1267 114.929 33.48C115.122 33.8333 115.219 34.2633 115.219 34.77V38H114.319V34.9C114.319 34.3533 114.182 33.9367 113.909 33.65C113.636 33.3567 113.262 33.21 112.789 33.21C112.309 33.21 111.926 33.36 111.639 33.66C111.359 33.96 111.219 34.3967 111.219 34.97V38H110.309V30.6H111.219V33.3C111.399 33.02 111.646 32.8033 111.959 32.65C112.279 32.4967 112.636 32.42 113.029 32.42ZM119.096 38.09C118.582 38.09 118.116 37.9733 117.696 37.74C117.282 37.5067 116.956 37.1767 116.716 36.75C116.482 36.3167 116.366 35.8167 116.366 35.25C116.366 34.69 116.486 34.1967 116.726 33.77C116.972 33.3367 117.306 33.0067 117.726 32.78C118.146 32.5467 118.616 32.43 119.136 32.43C119.656 32.43 120.126 32.5467 120.546 32.78C120.966 33.0067 121.296 33.3333 121.536 33.76C121.782 34.1867 121.906 34.6833 121.906 35.25C121.906 35.8167 121.779 36.3167 121.526 36.75C121.279 37.1767 120.942 37.5067 120.516 37.74C120.089 37.9733 119.616 38.09 119.096 38.09ZM119.096 37.29C119.422 37.29 119.729 37.2133 120.016 37.06C120.302 36.9067 120.532 36.6767 120.706 36.37C120.886 36.0633 120.976 35.69 120.976 35.25C120.976 34.81 120.889 34.4367 120.716 34.13C120.542 33.8233 120.316 33.5967 120.036 33.45C119.756 33.2967 119.452 33.22 119.126 33.22C118.792 33.22 118.486 33.2967 118.206 33.45C117.932 33.5967 117.712 33.8233 117.546 34.13C117.379 34.4367 117.296 34.81 117.296 35.25C117.296 35.6967 117.376 36.0733 117.536 36.38C117.702 36.6867 117.922 36.9167 118.196 37.07C118.469 37.2167 118.769 37.29 119.096 37.29ZM124.012 33.53C124.192 33.2167 124.459 32.9567 124.812 32.75C125.172 32.5367 125.589 32.43 126.062 32.43C126.549 32.43 126.989 32.5467 127.382 32.78C127.782 33.0133 128.095 33.3433 128.322 33.77C128.549 34.19 128.662 34.68 128.662 35.24C128.662 35.7933 128.549 36.2867 128.322 36.72C128.095 37.1533 127.782 37.49 127.382 37.73C126.989 37.97 126.549 38.09 126.062 38.09C125.595 38.09 125.182 37.9867 124.822 37.78C124.469 37.5667 124.199 37.3033 124.012 36.99V40.6H123.102V32.52H124.012V33.53ZM127.732 35.24C127.732 34.8267 127.649 34.4667 127.482 34.16C127.315 33.8533 127.089 33.62 126.802 33.46C126.522 33.3 126.212 33.22 125.872 33.22C125.539 33.22 125.229 33.3033 124.942 33.47C124.662 33.63 124.435 33.8667 124.262 34.18C124.095 34.4867 124.012 34.8433 124.012 35.25C124.012 35.6633 124.095 36.0267 124.262 36.34C124.435 36.6467 124.662 36.8833 124.942 37.05C125.229 37.21 125.539 37.29 125.872 37.29C126.212 37.29 126.522 37.21 126.802 37.05C127.089 36.8833 127.315 36.6467 127.482 36.34C127.649 36.0267 127.732 35.66 127.732 35.24ZM134.86 31.59C135.6 31.59 136.243 31.73 136.79 32.01C137.337 32.29 137.757 32.6833 138.05 33.19C138.343 33.69 138.49 34.27 138.49 34.93C138.49 35.4567 138.403 35.9633 138.23 36.45C138.057 36.93 137.803 37.32 137.47 37.62C137.143 37.92 136.76 38.07 136.32 38.07C135.987 38.07 135.73 37.9867 135.55 37.82C135.37 37.6533 135.267 37.4267 135.24 37.14C135.033 37.4267 134.77 37.6533 134.45 37.82C134.137 37.9867 133.803 38.07 133.45 38.07C132.943 38.07 132.543 37.9167 132.25 37.61C131.963 37.2967 131.82 36.8767 131.82 36.35C131.82 35.85 131.923 35.3833 132.13 34.95C132.343 34.5167 132.637 34.17 133.01 33.91C133.383 33.6433 133.807 33.51 134.28 33.51C134.913 33.51 135.34 33.75 135.56 34.23L135.67 33.61H136.46L135.96 36.5C135.94 36.6267 135.93 36.7433 135.93 36.85C135.93 37.25 136.107 37.45 136.46 37.45C136.727 37.45 136.957 37.3233 137.15 37.07C137.35 36.8167 137.5 36.5 137.6 36.12C137.7 35.7333 137.75 35.3533 137.75 34.98C137.75 34.1067 137.487 33.43 136.96 32.95C136.44 32.47 135.703 32.23 134.75 32.23C133.957 32.23 133.24 32.4233 132.6 32.81C131.967 33.19 131.47 33.7133 131.11 34.38C130.75 35.0467 130.57 35.7833 130.57 36.59C130.563 37.47 130.827 38.1467 131.36 38.62C131.893 39.1 132.633 39.34 133.58 39.34C134.207 39.34 134.76 39.2267 135.24 39L135.36 39.62C134.767 39.8667 134.113 39.99 133.4 39.99C132.687 39.99 132.057 39.8533 131.51 39.58C130.97 39.3133 130.55 38.9267 130.25 38.42C129.957 37.92 129.81 37.3367 129.81 36.67C129.81 35.73 130.027 34.8733 130.46 34.1C130.893 33.32 131.493 32.7067 132.26 32.26C133.033 31.8133 133.9 31.59 134.86 31.59ZM133.72 37.36C134.02 37.36 134.297 37.2733 134.55 37.1C134.803 36.92 135.003 36.68 135.15 36.38C135.297 36.0733 135.37 35.74 135.37 35.38C135.37 35.0333 135.273 34.7533 135.08 34.54C134.893 34.32 134.627 34.21 134.28 34.21C133.96 34.21 133.677 34.3067 133.43 34.5C133.19 34.6867 133.003 34.9367 132.87 35.25C132.737 35.5567 132.67 35.8767 132.67 36.21C132.67 36.5633 132.76 36.8433 132.94 37.05C133.12 37.2567 133.38 37.36 133.72 37.36ZM142.247 32.43C142.72 32.43 143.133 32.5333 143.487 32.74C143.847 32.9467 144.113 33.2067 144.287 33.52V32.52H145.207V38.12C145.207 38.62 145.1 39.0633 144.887 39.45C144.673 39.8433 144.367 40.15 143.967 40.37C143.573 40.59 143.113 40.7 142.587 40.7C141.867 40.7 141.267 40.53 140.787 40.19C140.307 39.85 140.023 39.3867 139.937 38.8H140.837C140.937 39.1333 141.143 39.4 141.457 39.6C141.77 39.8067 142.147 39.91 142.587 39.91C143.087 39.91 143.493 39.7533 143.807 39.44C144.127 39.1267 144.287 38.6867 144.287 38.12V36.97C144.107 37.29 143.84 37.5567 143.487 37.77C143.133 37.9833 142.72 38.09 142.247 38.09C141.76 38.09 141.317 37.97 140.917 37.73C140.523 37.49 140.213 37.1533 139.987 36.72C139.76 36.2867 139.647 35.7933 139.647 35.24C139.647 34.68 139.76 34.19 139.987 33.77C140.213 33.3433 140.523 33.0133 140.917 32.78C141.317 32.5467 141.76 32.43 142.247 32.43ZM144.287 35.25C144.287 34.8367 144.203 34.4767 144.037 34.17C143.87 33.8633 143.643 33.63 143.357 33.47C143.077 33.3033 142.767 33.22 142.427 33.22C142.087 33.22 141.777 33.3 141.497 33.46C141.217 33.62 140.993 33.8533 140.827 34.16C140.66 34.4667 140.577 34.8267 140.577 35.24C140.577 35.66 140.66 36.0267 140.827 36.34C140.993 36.6467 141.217 36.8833 141.497 37.05C141.777 37.21 142.087 37.29 142.427 37.29C142.767 37.29 143.077 37.21 143.357 37.05C143.643 36.8833 143.87 36.6467 144.037 36.34C144.203 36.0267 144.287 35.6633 144.287 35.25ZM153.335 32.42C153.761 32.42 154.141 32.51 154.475 32.69C154.808 32.8633 155.071 33.1267 155.265 33.48C155.458 33.8333 155.555 34.2633 155.555 34.77V38H154.655V34.9C154.655 34.3533 154.518 33.9367 154.245 33.65C153.978 33.3567 153.615 33.21 153.155 33.21C152.681 33.21 152.305 33.3633 152.025 33.67C151.745 33.97 151.605 34.4067 151.605 34.98V38H150.705V34.9C150.705 34.3533 150.568 33.9367 150.295 33.65C150.028 33.3567 149.665 33.21 149.205 33.21C148.731 33.21 148.355 33.3633 148.075 33.67C147.795 33.97 147.655 34.4067 147.655 34.98V38H146.745V32.52H147.655V33.31C147.835 33.0233 148.075 32.8033 148.375 32.65C148.681 32.4967 149.018 32.42 149.385 32.42C149.845 32.42 150.251 32.5233 150.605 32.73C150.958 32.9367 151.221 33.24 151.395 33.64C151.548 33.2533 151.801 32.9533 152.155 32.74C152.508 32.5267 152.901 32.42 153.335 32.42ZM156.707 35.24C156.707 34.68 156.821 34.19 157.047 33.77C157.274 33.3433 157.584 33.0133 157.977 32.78C158.377 32.5467 158.821 32.43 159.307 32.43C159.787 32.43 160.204 32.5333 160.557 32.74C160.911 32.9467 161.174 33.2067 161.347 33.52V32.52H162.267V38H161.347V36.98C161.167 37.3 160.897 37.5667 160.537 37.78C160.184 37.9867 159.771 38.09 159.297 38.09C158.811 38.09 158.371 37.97 157.977 37.73C157.584 37.49 157.274 37.1533 157.047 36.72C156.821 36.2867 156.707 35.7933 156.707 35.24ZM161.347 35.25C161.347 34.8367 161.264 34.4767 161.097 34.17C160.931 33.8633 160.704 33.63 160.417 33.47C160.137 33.3033 159.827 33.22 159.487 33.22C159.147 33.22 158.837 33.3 158.557 33.46C158.277 33.62 158.054 33.8533 157.887 34.16C157.721 34.4667 157.637 34.8267 157.637 35.24C157.637 35.66 157.721 36.0267 157.887 36.34C158.054 36.6467 158.277 36.8833 158.557 37.05C158.837 37.21 159.147 37.29 159.487 37.29C159.827 37.29 160.137 37.21 160.417 37.05C160.704 36.8833 160.931 36.6467 161.097 36.34C161.264 36.0267 161.347 35.6633 161.347 35.25ZM164.275 31.63C164.102 31.63 163.955 31.57 163.835 31.45C163.715 31.33 163.655 31.1833 163.655 31.01C163.655 30.8367 163.715 30.69 163.835 30.57C163.955 30.45 164.102 30.39 164.275 30.39C164.442 30.39 164.582 30.45 164.695 30.57C164.815 30.69 164.875 30.8367 164.875 31.01C164.875 31.1833 164.815 31.33 164.695 31.45C164.582 31.57 164.442 31.63 164.275 31.63ZM164.715 32.52V38H163.805V32.52H164.715ZM167.176 30.6V38H166.266V30.6H167.176ZM169.017 38.06C168.844 38.06 168.697 38 168.577 37.88C168.457 37.76 168.397 37.6133 168.397 37.44C168.397 37.2667 168.457 37.12 168.577 37C168.697 36.88 168.844 36.82 169.017 36.82C169.184 36.82 169.324 36.88 169.437 37C169.557 37.12 169.617 37.2667 169.617 37.44C169.617 37.6133 169.557 37.76 169.437 37.88C169.324 38 169.184 38.06 169.017 38.06ZM170.487 35.25C170.487 34.6833 170.6 34.19 170.827 33.77C171.053 33.3433 171.367 33.0133 171.767 32.78C172.173 32.5467 172.637 32.43 173.157 32.43C173.83 32.43 174.383 32.5933 174.817 32.92C175.257 33.2467 175.547 33.7 175.687 34.28H174.707C174.613 33.9467 174.43 33.6833 174.157 33.49C173.89 33.2967 173.557 33.2 173.157 33.2C172.637 33.2 172.217 33.38 171.897 33.74C171.577 34.0933 171.417 34.5967 171.417 35.25C171.417 35.91 171.577 36.42 171.897 36.78C172.217 37.14 172.637 37.32 173.157 37.32C173.557 37.32 173.89 37.2267 174.157 37.04C174.423 36.8533 174.607 36.5867 174.707 36.24H175.687C175.54 36.8 175.247 37.25 174.807 37.59C174.367 37.9233 173.817 38.09 173.157 38.09C172.637 38.09 172.173 37.9733 171.767 37.74C171.367 37.5067 171.053 37.1767 170.827 36.75C170.6 36.3233 170.487 35.8233 170.487 35.25ZM179.291 38.09C178.778 38.09 178.311 37.9733 177.891 37.74C177.478 37.5067 177.151 37.1767 176.911 36.75C176.678 36.3167 176.561 35.8167 176.561 35.25C176.561 34.69 176.681 34.1967 176.921 33.77C177.168 33.3367 177.501 33.0067 177.921 32.78C178.341 32.5467 178.811 32.43 179.331 32.43C179.851 32.43 180.321 32.5467 180.741 32.78C181.161 33.0067 181.491 33.3333 181.731 33.76C181.978 34.1867 182.101 34.6833 182.101 35.25C182.101 35.8167 181.974 36.3167 181.721 36.75C181.474 37.1767 181.138 37.5067 180.711 37.74C180.284 37.9733 179.811 38.09 179.291 38.09ZM179.291 37.29C179.618 37.29 179.924 37.2133 180.211 37.06C180.498 36.9067 180.728 36.6767 180.901 36.37C181.081 36.0633 181.171 35.69 181.171 35.25C181.171 34.81 181.084 34.4367 180.911 34.13C180.738 33.8233 180.511 33.5967 180.231 33.45C179.951 33.2967 179.648 33.22 179.321 33.22C178.988 33.22 178.681 33.2967 178.401 33.45C178.128 33.5967 177.908 33.8233 177.741 34.13C177.574 34.4367 177.491 34.81 177.491 35.25C177.491 35.6967 177.571 36.0733 177.731 36.38C177.898 36.6867 178.118 36.9167 178.391 37.07C178.664 37.2167 178.964 37.29 179.291 37.29ZM189.887 32.42C190.314 32.42 190.694 32.51 191.027 32.69C191.361 32.8633 191.624 33.1267 191.817 33.48C192.011 33.8333 192.107 34.2633 192.107 34.77V38H191.207V34.9C191.207 34.3533 191.071 33.9367 190.797 33.65C190.531 33.3567 190.167 33.21 189.707 33.21C189.234 33.21 188.857 33.3633 188.577 33.67C188.297 33.97 188.157 34.4067 188.157 34.98V38H187.257V34.9C187.257 34.3533 187.121 33.9367 186.847 33.65C186.581 33.3567 186.217 33.21 185.757 33.21C185.284 33.21 184.907 33.3633 184.627 33.67C184.347 33.97 184.207 34.4067 184.207 34.98V38H183.297V32.52H184.207V33.31C184.387 33.0233 184.627 32.8033 184.927 32.65C185.234 32.4967 185.571 32.42 185.937 32.42C186.397 32.42 186.804 32.5233 187.157 32.73C187.511 32.9367 187.774 33.24 187.947 33.64C188.101 33.2533 188.354 32.9533 188.707 32.74C189.061 32.5267 189.454 32.42 189.887 32.42Z" fill="#6C6C6C"/>
<path d="M83.88 51.27V54.5C83.88 54.7667 83.9367 54.9567 84.05 55.07C84.1633 55.1767 84.36 55.23 84.64 55.23H85.31V56H84.49C83.9833 56 83.6033 55.8833 83.35 55.65C83.0967 55.4167 82.97 55.0333 82.97 54.5V51.27H82.26V50.52H82.97V49.14H83.88V50.52H85.31V51.27H83.88ZM91.4126 53.05C91.4126 53.2233 91.4026 53.4067 91.3826 53.6H87.0026C87.0359 54.14 87.2192 54.5633 87.5526 54.87C87.8926 55.17 88.3026 55.32 88.7826 55.32C89.1759 55.32 89.5026 55.23 89.7626 55.05C90.0292 54.8633 90.2159 54.6167 90.3226 54.31H91.3026C91.1559 54.8367 90.8626 55.2667 90.4226 55.6C89.9826 55.9267 89.4359 56.09 88.7826 56.09C88.2626 56.09 87.7959 55.9733 87.3826 55.74C86.9759 55.5067 86.6559 55.1767 86.4226 54.75C86.1892 54.3167 86.0726 53.8167 86.0726 53.25C86.0726 52.6833 86.1859 52.1867 86.4126 51.76C86.6392 51.3333 86.9559 51.0067 87.3626 50.78C87.7759 50.5467 88.2492 50.43 88.7826 50.43C89.3026 50.43 89.7626 50.5433 90.1626 50.77C90.5626 50.9967 90.8692 51.31 91.0826 51.71C91.3026 52.1033 91.4126 52.55 91.4126 53.05ZM90.4726 52.86C90.4726 52.5133 90.3959 52.2167 90.2426 51.97C90.0892 51.7167 89.8792 51.5267 89.6126 51.4C89.3526 51.2667 89.0626 51.2 88.7426 51.2C88.2826 51.2 87.8892 51.3467 87.5626 51.64C87.2426 51.9333 87.0592 52.34 87.0126 52.86H90.4726ZM92.2738 53.25C92.2738 52.6833 92.3871 52.19 92.6138 51.77C92.8404 51.3433 93.1538 51.0133 93.5538 50.78C93.9604 50.5467 94.4238 50.43 94.9438 50.43C95.6171 50.43 96.1704 50.5933 96.6038 50.92C97.0438 51.2467 97.3338 51.7 97.4738 52.28H96.4938C96.4004 51.9467 96.2171 51.6833 95.9438 51.49C95.6771 51.2967 95.3438 51.2 94.9438 51.2C94.4238 51.2 94.0038 51.38 93.6838 51.74C93.3638 52.0933 93.2038 52.5967 93.2038 53.25C93.2038 53.91 93.3638 54.42 93.6838 54.78C94.0038 55.14 94.4238 55.32 94.9438 55.32C95.3438 55.32 95.6771 55.2267 95.9438 55.04C96.2104 54.8533 96.3938 54.5867 96.4938 54.24H97.4738C97.3271 54.8 97.0338 55.25 96.5938 55.59C96.1538 55.9233 95.6038 56.09 94.9438 56.09C94.4238 56.09 93.9604 55.9733 93.5538 55.74C93.1538 55.5067 92.8404 55.1767 92.6138 54.75C92.3871 54.3233 92.2738 53.8233 92.2738 53.25ZM101.408 50.42C101.821 50.42 102.195 50.51 102.528 50.69C102.861 50.8633 103.121 51.1267 103.308 51.48C103.501 51.8333 103.598 52.2633 103.598 52.77V56H102.698V52.9C102.698 52.3533 102.561 51.9367 102.288 51.65C102.015 51.3567 101.641 51.21 101.168 51.21C100.688 51.21 100.305 51.36 100.018 51.66C99.738 51.96 99.598 52.3967 99.598 52.97V56H98.688V48.6H99.598V51.3C99.778 51.02 100.025 50.8033 100.338 50.65C100.658 50.4967 101.015 50.42 101.408 50.42ZM111.674 50.42C112.101 50.42 112.481 50.51 112.814 50.69C113.148 50.8633 113.411 51.1267 113.604 51.48C113.798 51.8333 113.894 52.2633 113.894 52.77V56H112.994V52.9C112.994 52.3533 112.858 51.9367 112.584 51.65C112.318 51.3567 111.954 51.21 111.494 51.21C111.021 51.21 110.644 51.3633 110.364 51.67C110.084 51.97 109.944 52.4067 109.944 52.98V56H109.044V52.9C109.044 52.3533 108.908 51.9367 108.634 51.65C108.368 51.3567 108.004 51.21 107.544 51.21C107.071 51.21 106.694 51.3633 106.414 51.67C106.134 51.97 105.994 52.4067 105.994 52.98V56H105.084V50.52H105.994V51.31C106.174 51.0233 106.414 50.8033 106.714 50.65C107.021 50.4967 107.358 50.42 107.724 50.42C108.184 50.42 108.591 50.5233 108.944 50.73C109.298 50.9367 109.561 51.24 109.734 51.64C109.888 51.2533 110.141 50.9533 110.494 50.74C110.848 50.5267 111.241 50.42 111.674 50.42ZM115.047 53.24C115.047 52.68 115.161 52.19 115.387 51.77C115.614 51.3433 115.924 51.0133 116.317 50.78C116.717 50.5467 117.161 50.43 117.647 50.43C118.127 50.43 118.544 50.5333 118.897 50.74C119.251 50.9467 119.514 51.2067 119.687 51.52V50.52H120.607V56H119.687V54.98C119.507 55.3 119.237 55.5667 118.877 55.78C118.524 55.9867 118.111 56.09 117.637 56.09C117.151 56.09 116.711 55.97 116.317 55.73C115.924 55.49 115.614 55.1533 115.387 54.72C115.161 54.2867 115.047 53.7933 115.047 53.24ZM119.687 53.25C119.687 52.8367 119.604 52.4767 119.437 52.17C119.271 51.8633 119.044 51.63 118.757 51.47C118.477 51.3033 118.167 51.22 117.827 51.22C117.487 51.22 117.177 51.3 116.897 51.46C116.617 51.62 116.394 51.8533 116.227 52.16C116.061 52.4667 115.977 52.8267 115.977 53.24C115.977 53.66 116.061 54.0267 116.227 54.34C116.394 54.6467 116.617 54.8833 116.897 55.05C117.177 55.21 117.487 55.29 117.827 55.29C118.167 55.29 118.477 55.21 118.757 55.05C119.044 54.8833 119.271 54.6467 119.437 54.34C119.604 54.0267 119.687 53.6633 119.687 53.25ZM123.055 51.41C123.215 51.0967 123.442 50.8533 123.735 50.68C124.035 50.5067 124.398 50.42 124.825 50.42V51.36H124.585C123.565 51.36 123.055 51.9133 123.055 53.02V56H122.145V50.52H123.055V51.41ZM128.935 56L126.785 53.58V56H125.875V48.6H126.785V52.95L128.895 50.52H130.165L127.585 53.25L130.175 56H128.935ZM136.022 53.05C136.022 53.2233 136.012 53.4067 135.992 53.6H131.612C131.645 54.14 131.829 54.5633 132.162 54.87C132.502 55.17 132.912 55.32 133.392 55.32C133.785 55.32 134.112 55.23 134.372 55.05C134.639 54.8633 134.825 54.6167 134.932 54.31H135.912C135.765 54.8367 135.472 55.2667 135.032 55.6C134.592 55.9267 134.045 56.09 133.392 56.09C132.872 56.09 132.405 55.9733 131.992 55.74C131.585 55.5067 131.265 55.1767 131.032 54.75C130.799 54.3167 130.682 53.8167 130.682 53.25C130.682 52.6833 130.795 52.1867 131.022 51.76C131.249 51.3333 131.565 51.0067 131.972 50.78C132.385 50.5467 132.859 50.43 133.392 50.43C133.912 50.43 134.372 50.5433 134.772 50.77C135.172 50.9967 135.479 51.31 135.692 51.71C135.912 52.1033 136.022 52.55 136.022 53.05ZM135.082 52.86C135.082 52.5133 135.005 52.2167 134.852 51.97C134.699 51.7167 134.489 51.5267 134.222 51.4C133.962 51.2667 133.672 51.2 133.352 51.2C132.892 51.2 132.499 51.3467 132.172 51.64C131.852 51.9333 131.669 52.34 131.622 52.86H135.082ZM138.333 51.27V54.5C138.333 54.7667 138.39 54.9567 138.503 55.07C138.616 55.1767 138.813 55.23 139.093 55.23H139.763V56H138.943C138.436 56 138.056 55.8833 137.803 55.65C137.55 55.4167 137.423 55.0333 137.423 54.5V51.27H136.713V50.52H137.423V49.14H138.333V50.52H139.763V51.27H138.333ZM145.866 49.59C146.606 49.59 147.249 49.73 147.796 50.01C148.342 50.29 148.762 50.6833 149.056 51.19C149.349 51.69 149.496 52.27 149.496 52.93C149.496 53.4567 149.409 53.9633 149.236 54.45C149.062 54.93 148.809 55.32 148.476 55.62C148.149 55.92 147.766 56.07 147.326 56.07C146.992 56.07 146.736 55.9867 146.556 55.82C146.376 55.6533 146.272 55.4267 146.246 55.14C146.039 55.4267 145.776 55.6533 145.456 55.82C145.142 55.9867 144.809 56.07 144.456 56.07C143.949 56.07 143.549 55.9167 143.256 55.61C142.969 55.2967 142.826 54.8767 142.826 54.35C142.826 53.85 142.929 53.3833 143.136 52.95C143.349 52.5167 143.642 52.17 144.016 51.91C144.389 51.6433 144.812 51.51 145.286 51.51C145.919 51.51 146.346 51.75 146.566 52.23L146.676 51.61H147.466L146.966 54.5C146.946 54.6267 146.936 54.7433 146.936 54.85C146.936 55.25 147.112 55.45 147.466 55.45C147.732 55.45 147.962 55.3233 148.156 55.07C148.356 54.8167 148.506 54.5 148.606 54.12C148.706 53.7333 148.756 53.3533 148.756 52.98C148.756 52.1067 148.492 51.43 147.966 50.95C147.446 50.47 146.709 50.23 145.756 50.23C144.962 50.23 144.246 50.4233 143.606 50.81C142.972 51.19 142.476 51.7133 142.116 52.38C141.756 53.0467 141.576 53.7833 141.576 54.59C141.569 55.47 141.832 56.1467 142.366 56.62C142.899 57.1 143.639 57.34 144.586 57.34C145.212 57.34 145.766 57.2267 146.246 57L146.366 57.62C145.772 57.8667 145.119 57.99 144.406 57.99C143.692 57.99 143.062 57.8533 142.516 57.58C141.976 57.3133 141.556 56.9267 141.256 56.42C140.962 55.92 140.816 55.3367 140.816 54.67C140.816 53.73 141.032 52.8733 141.466 52.1C141.899 51.32 142.499 50.7067 143.266 50.26C144.039 49.8133 144.906 49.59 145.866 49.59ZM144.726 55.36C145.026 55.36 145.302 55.2733 145.556 55.1C145.809 54.92 146.009 54.68 146.156 54.38C146.302 54.0733 146.376 53.74 146.376 53.38C146.376 53.0333 146.279 52.7533 146.086 52.54C145.899 52.32 145.632 52.21 145.286 52.21C144.966 52.21 144.682 52.3067 144.436 52.5C144.196 52.6867 144.009 52.9367 143.876 53.25C143.742 53.5567 143.676 53.8767 143.676 54.21C143.676 54.5633 143.766 54.8433 143.946 55.05C144.126 55.2567 144.386 55.36 144.726 55.36ZM153.253 50.43C153.726 50.43 154.139 50.5333 154.493 50.74C154.853 50.9467 155.119 51.2067 155.293 51.52V50.52H156.213V56.12C156.213 56.62 156.106 57.0633 155.893 57.45C155.679 57.8433 155.373 58.15 154.973 58.37C154.579 58.59 154.119 58.7 153.593 58.7C152.873 58.7 152.273 58.53 151.793 58.19C151.313 57.85 151.029 57.3867 150.943 56.8H151.843C151.943 57.1333 152.149 57.4 152.463 57.6C152.776 57.8067 153.153 57.91 153.593 57.91C154.093 57.91 154.499 57.7533 154.813 57.44C155.133 57.1267 155.293 56.6867 155.293 56.12V54.97C155.113 55.29 154.846 55.5567 154.493 55.77C154.139 55.9833 153.726 56.09 153.253 56.09C152.766 56.09 152.323 55.97 151.923 55.73C151.529 55.49 151.219 55.1533 150.993 54.72C150.766 54.2867 150.653 53.7933 150.653 53.24C150.653 52.68 150.766 52.19 150.993 51.77C151.219 51.3433 151.529 51.0133 151.923 50.78C152.323 50.5467 152.766 50.43 153.253 50.43ZM155.293 53.25C155.293 52.8367 155.209 52.4767 155.043 52.17C154.876 51.8633 154.649 51.63 154.363 51.47C154.083 51.3033 153.773 51.22 153.433 51.22C153.093 51.22 152.783 51.3 152.503 51.46C152.223 51.62 151.999 51.8533 151.833 52.16C151.666 52.4667 151.583 52.8267 151.583 53.24C151.583 53.66 151.666 54.0267 151.833 54.34C151.999 54.6467 152.223 54.8833 152.503 55.05C152.783 55.21 153.093 55.29 153.433 55.29C153.773 55.29 154.083 55.21 154.363 55.05C154.649 54.8833 154.876 54.6467 155.043 54.34C155.209 54.0267 155.293 53.6633 155.293 53.25ZM164.34 50.42C164.767 50.42 165.147 50.51 165.48 50.69C165.814 50.8633 166.077 51.1267 166.27 51.48C166.464 51.8333 166.56 52.2633 166.56 52.77V56H165.66V52.9C165.66 52.3533 165.524 51.9367 165.25 51.65C164.984 51.3567 164.62 51.21 164.16 51.21C163.687 51.21 163.31 51.3633 163.03 51.67C162.75 51.97 162.61 52.4067 162.61 52.98V56H161.71V52.9C161.71 52.3533 161.574 51.9367 161.3 51.65C161.034 51.3567 160.67 51.21 160.21 51.21C159.737 51.21 159.36 51.3633 159.08 51.67C158.8 51.97 158.66 52.4067 158.66 52.98V56H157.75V50.52H158.66V51.31C158.84 51.0233 159.08 50.8033 159.38 50.65C159.687 50.4967 160.024 50.42 160.39 50.42C160.85 50.42 161.257 50.5233 161.61 50.73C161.964 50.9367 162.227 51.24 162.4 51.64C162.554 51.2533 162.807 50.9533 163.16 50.74C163.514 50.5267 163.907 50.42 164.34 50.42ZM167.713 53.24C167.713 52.68 167.827 52.19 168.053 51.77C168.28 51.3433 168.59 51.0133 168.983 50.78C169.383 50.5467 169.827 50.43 170.313 50.43C170.793 50.43 171.21 50.5333 171.563 50.74C171.917 50.9467 172.18 51.2067 172.353 51.52V50.52H173.273V56H172.353V54.98C172.173 55.3 171.903 55.5667 171.543 55.78C171.19 55.9867 170.777 56.09 170.303 56.09C169.817 56.09 169.377 55.97 168.983 55.73C168.59 55.49 168.28 55.1533 168.053 54.72C167.827 54.2867 167.713 53.7933 167.713 53.24ZM172.353 53.25C172.353 52.8367 172.27 52.4767 172.103 52.17C171.937 51.8633 171.71 51.63 171.423 51.47C171.143 51.3033 170.833 51.22 170.493 51.22C170.153 51.22 169.843 51.3 169.563 51.46C169.283 51.62 169.06 51.8533 168.893 52.16C168.727 52.4667 168.643 52.8267 168.643 53.24C168.643 53.66 168.727 54.0267 168.893 54.34C169.06 54.6467 169.283 54.8833 169.563 55.05C169.843 55.21 170.153 55.29 170.493 55.29C170.833 55.29 171.143 55.21 171.423 55.05C171.71 54.8833 171.937 54.6467 172.103 54.34C172.27 54.0267 172.353 53.6633 172.353 53.25ZM175.281 49.63C175.108 49.63 174.961 49.57 174.841 49.45C174.721 49.33 174.661 49.1833 174.661 49.01C174.661 48.8367 174.721 48.69 174.841 48.57C174.961 48.45 175.108 48.39 175.281 48.39C175.448 48.39 175.588 48.45 175.701 48.57C175.821 48.69 175.881 48.8367 175.881 49.01C175.881 49.1833 175.821 49.33 175.701 49.45C175.588 49.57 175.448 49.63 175.281 49.63ZM175.721 50.52V56H174.811V50.52H175.721ZM178.182 48.6V56H177.272V48.6H178.182ZM180.023 56.06C179.85 56.06 179.703 56 179.583 55.88C179.463 55.76 179.403 55.6133 179.403 55.44C179.403 55.2667 179.463 55.12 179.583 55C179.703 54.88 179.85 54.82 180.023 54.82C180.19 54.82 180.33 54.88 180.443 55C180.563 55.12 180.623 55.2667 180.623 55.44C180.623 55.6133 180.563 55.76 180.443 55.88C180.33 56 180.19 56.06 180.023 56.06ZM181.493 53.25C181.493 52.6833 181.606 52.19 181.833 51.77C182.059 51.3433 182.373 51.0133 182.773 50.78C183.179 50.5467 183.643 50.43 184.163 50.43C184.836 50.43 185.389 50.5933 185.823 50.92C186.263 51.2467 186.553 51.7 186.693 52.28H185.713C185.619 51.9467 185.436 51.6833 185.163 51.49C184.896 51.2967 184.563 51.2 184.163 51.2C183.643 51.2 183.223 51.38 182.903 51.74C182.583 52.0933 182.423 52.5967 182.423 53.25C182.423 53.91 182.583 54.42 182.903 54.78C183.223 55.14 183.643 55.32 184.163 55.32C184.563 55.32 184.896 55.2267 185.163 55.04C185.429 54.8533 185.613 54.5867 185.713 54.24H186.693C186.546 54.8 186.253 55.25 185.813 55.59C185.373 55.9233 184.823 56.09 184.163 56.09C183.643 56.09 183.179 55.9733 182.773 55.74C182.373 55.5067 182.059 55.1767 181.833 54.75C181.606 54.3233 181.493 53.8233 181.493 53.25ZM190.297 56.09C189.783 56.09 189.317 55.9733 188.897 55.74C188.483 55.5067 188.157 55.1767 187.917 54.75C187.683 54.3167 187.567 53.8167 187.567 53.25C187.567 52.69 187.687 52.1967 187.927 51.77C188.173 51.3367 188.507 51.0067 188.927 50.78C189.347 50.5467 189.817 50.43 190.337 50.43C190.857 50.43 191.327 50.5467 191.747 50.78C192.167 51.0067 192.497 51.3333 192.737 51.76C192.983 52.1867 193.107 52.6833 193.107 53.25C193.107 53.8167 192.98 54.3167 192.727 54.75C192.48 55.1767 192.143 55.5067 191.717 55.74C191.29 55.9733 190.817 56.09 190.297 56.09ZM190.297 55.29C190.623 55.29 190.93 55.2133 191.217 55.06C191.503 54.9067 191.733 54.6767 191.907 54.37C192.087 54.0633 192.177 53.69 192.177 53.25C192.177 52.81 192.09 52.4367 191.917 52.13C191.743 51.8233 191.517 51.5967 191.237 51.45C190.957 51.2967 190.653 51.22 190.327 51.22C189.993 51.22 189.687 51.2967 189.407 51.45C189.133 51.5967 188.913 51.8233 188.747 52.13C188.58 52.4367 188.497 52.81 188.497 53.25C188.497 53.6967 188.577 54.0733 188.737 54.38C188.903 54.6867 189.123 54.9167 189.397 55.07C189.67 55.2167 189.97 55.29 190.297 55.29ZM200.893 50.42C201.32 50.42 201.7 50.51 202.033 50.69C202.367 50.8633 202.63 51.1267 202.823 51.48C203.017 51.8333 203.113 52.2633 203.113 52.77V56H202.213V52.9C202.213 52.3533 202.077 51.9367 201.803 51.65C201.537 51.3567 201.173 51.21 200.713 51.21C200.24 51.21 199.863 51.3633 199.583 51.67C199.303 51.97 199.163 52.4067 199.163 52.98V56H198.263V52.9C198.263 52.3533 198.127 51.9367 197.853 51.65C197.587 51.3567 197.223 51.21 196.763 51.21C196.29 51.21 195.913 51.3633 195.633 51.67C195.353 51.97 195.213 52.4067 195.213 52.98V56H194.303V50.52H195.213V51.31C195.393 51.0233 195.633 50.8033 195.933 50.65C196.24 50.4967 196.577 50.42 196.943 50.42C197.403 50.42 197.81 50.5233 198.163 50.73C198.517 50.9367 198.78 51.24 198.953 51.64C199.107 51.2533 199.36 50.9533 199.713 50.74C200.067 50.5267 200.46 50.42 200.893 50.42Z" fill="#6C6C6C"/>
</svg>
