<svg width="198" height="64" viewBox="0 0 198 64" fill="none" xmlns="http://www.w3.org/2000/svg">
<path d="M26.9415 31.5C25.2805 31.5 23.6568 30.9868 22.2757 30.0254C20.8946 29.0639 19.8181 27.6973 19.1825 26.0985C18.5469 24.4996 18.3805 22.7403 18.7046 21.043C19.0286 19.3456 19.8285 17.7865 21.003 16.5628C22.1775 15.3391 23.674 14.5058 25.3031 14.1681C26.9322 13.8305 28.6208 14.0038 30.1554 14.6661C31.69 15.3283 33.0016 16.4498 33.9244 17.8888C34.8473 19.3277 35.3398 21.0194 35.3398 22.75C35.3371 25.0698 34.4515 27.2938 32.8771 28.9341C31.3026 30.5745 29.1681 31.4972 26.9415 31.5ZM26.9415 17.5C25.9449 17.5 24.9707 17.8079 24.142 18.3848C23.3133 18.9617 22.6675 19.7816 22.2861 20.7409C21.9047 21.7002 21.8049 22.7558 21.9994 23.7742C22.1938 24.7926 22.6737 25.7281 23.3784 26.4623C24.0831 27.1965 24.981 27.6966 25.9585 27.8991C26.9359 28.1017 27.9491 27.9977 28.8698 27.6004C29.7906 27.203 30.5776 26.5301 31.1313 25.6667C31.685 24.8034 31.9805 23.7884 31.9805 22.75C31.9792 21.358 31.4478 20.0235 30.5031 19.0392C29.5584 18.055 28.2775 17.5014 26.9415 17.5Z" fill="#FF8717"/>
<path d="M26.9413 52.5L12.7718 35.0893C12.5749 34.8278 12.38 34.5647 12.1872 34.3C9.76681 30.9781 8.45924 26.9206 8.46511 22.75C8.46511 17.6446 10.4117 12.7483 13.8767 9.1382C17.3416 5.52812 22.0411 3.5 26.9413 3.5C31.8416 3.5 36.5411 5.52812 40.006 9.1382C43.471 12.7483 45.4176 17.6446 45.4176 22.75C45.4235 26.9187 44.1165 30.9744 41.6971 34.2948L41.6955 34.3C41.6955 34.3 41.1916 34.9895 41.116 35.0823L26.9413 52.5ZM14.8696 32.1912C14.8696 32.1912 15.261 32.7302 15.35 32.8457L26.9413 47.089L38.5478 32.8265C38.6217 32.7302 39.0147 32.1877 39.0164 32.186C40.9936 29.4719 42.0622 26.1573 42.0583 22.75C42.0583 18.5728 40.4656 14.5668 37.6306 11.6131C34.7957 8.65937 30.9506 7 26.9413 7C22.9321 7 19.087 8.65937 16.2521 11.6131C13.4171 14.5668 11.8244 18.5728 11.8244 22.75C11.8209 26.1594 12.8906 29.476 14.8696 32.1912Z" fill="#FF8717"/>
<path d="M61.9588 16.528H65.7188V18H60.1348V6.88H61.9588V16.528ZM71.0682 18.144C70.2362 18.144 69.4842 17.9573 68.8122 17.584C68.1402 17.2 67.6122 16.6667 67.2282 15.984C66.8442 15.2907 66.6522 14.4907 66.6522 13.584C66.6522 12.688 66.8495 11.8933 67.2442 11.2C67.6389 10.5067 68.1775 9.97333 68.8602 9.6C69.5429 9.22667 70.3055 9.04 71.1482 9.04C71.9909 9.04 72.7535 9.22667 73.4362 9.6C74.1189 9.97333 74.6575 10.5067 75.0522 11.2C75.4469 11.8933 75.6442 12.688 75.6442 13.584C75.6442 14.48 75.4415 15.2747 75.0362 15.968C74.6309 16.6613 74.0762 17.2 73.3722 17.584C72.6789 17.9573 71.9109 18.144 71.0682 18.144ZM71.0682 16.56C71.5375 16.56 71.9749 16.448 72.3802 16.224C72.7962 16 73.1322 15.664 73.3882 15.216C73.6442 14.768 73.7722 14.224 73.7722 13.584C73.7722 12.944 73.6495 12.4053 73.4042 11.968C73.1589 11.52 72.8335 11.184 72.4282 10.96C72.0229 10.736 71.5855 10.624 71.1162 10.624C70.6469 10.624 70.2095 10.736 69.8042 10.96C69.4095 11.184 69.0949 11.52 68.8602 11.968C68.6255 12.4053 68.5082 12.944 68.5082 13.584C68.5082 14.5333 68.7482 15.2693 69.2282 15.792C69.7189 16.304 70.3322 16.56 71.0682 16.56ZM80.9353 13.6L84.9993 18H82.5353L79.2713 14.208V18H77.4473V6.16H79.2713V13.04L82.4713 9.184H84.9993L80.9353 13.6ZM85.6987 13.552C85.6987 12.6667 85.88 11.8827 86.2427 11.2C86.616 10.5173 87.1174 9.98933 87.7467 9.616C88.3867 9.232 89.0907 9.04 89.8587 9.04C90.552 9.04 91.1547 9.17867 91.6667 9.456C92.1894 9.72267 92.6054 10.0587 92.9147 10.464V9.184H94.7547V18H92.9147V16.688C92.6054 17.104 92.184 17.4507 91.6507 17.728C91.1174 18.0053 90.5094 18.144 89.8267 18.144C89.0694 18.144 88.376 17.952 87.7467 17.568C87.1174 17.1733 86.616 16.6293 86.2427 15.936C85.88 15.232 85.6987 14.4373 85.6987 13.552ZM92.9147 13.584C92.9147 12.976 92.7867 12.448 92.5307 12C92.2854 11.552 91.96 11.2107 91.5547 10.976C91.1494 10.7413 90.712 10.624 90.2427 10.624C89.7734 10.624 89.336 10.7413 88.9307 10.976C88.5254 11.2 88.1947 11.536 87.9387 11.984C87.6934 12.4213 87.5707 12.944 87.5707 13.552C87.5707 14.16 87.6934 14.6933 87.9387 15.152C88.1947 15.6107 88.5254 15.9627 88.9307 16.208C89.3467 16.4427 89.784 16.56 90.2427 16.56C90.712 16.56 91.1494 16.4427 91.5547 16.208C91.96 15.9733 92.2854 15.632 92.5307 15.184C92.7867 14.7253 92.9147 14.192 92.9147 13.584ZM100.35 18.144C99.6571 18.144 99.0331 18.0213 98.4784 17.776C97.9344 17.52 97.5024 17.1787 97.1824 16.752C96.8624 16.3147 96.6918 15.8293 96.6704 15.296H98.5584C98.5904 15.6693 98.7664 15.984 99.0864 16.24C99.4171 16.4853 99.8278 16.608 100.318 16.608C100.83 16.608 101.225 16.512 101.502 16.32C101.79 16.1173 101.934 15.8613 101.934 15.552C101.934 15.2213 101.774 14.976 101.454 14.816C101.145 14.656 100.649 14.48 99.9664 14.288C99.3051 14.1067 98.7664 13.9307 98.3504 13.76C97.9344 13.5893 97.5718 13.328 97.2624 12.976C96.9638 12.624 96.8144 12.16 96.8144 11.584C96.8144 11.1147 96.9531 10.688 97.2304 10.304C97.5078 9.90933 97.9024 9.6 98.4144 9.376C98.9371 9.152 99.5344 9.04 100.206 9.04C101.209 9.04 102.014 9.296 102.622 9.808C103.241 10.3093 103.572 10.9973 103.614 11.872H101.79C101.758 11.4773 101.598 11.1627 101.31 10.928C101.022 10.6933 100.633 10.576 100.142 10.576C99.6624 10.576 99.2944 10.6667 99.0384 10.848C98.7824 11.0293 98.6544 11.2693 98.6544 11.568C98.6544 11.8027 98.7398 12 98.9104 12.16C99.0811 12.32 99.2891 12.448 99.5344 12.544C99.7798 12.6293 100.142 12.7413 100.622 12.88C101.262 13.0507 101.785 13.2267 102.19 13.408C102.606 13.5787 102.964 13.8347 103.262 14.176C103.561 14.5173 103.716 14.9707 103.726 15.536C103.726 16.0373 103.588 16.4853 103.31 16.88C103.033 17.2747 102.638 17.584 102.126 17.808C101.625 18.032 101.033 18.144 100.35 18.144ZM106.625 8.016C106.295 8.016 106.017 7.904 105.793 7.68C105.569 7.456 105.457 7.17867 105.457 6.848C105.457 6.51733 105.569 6.24 105.793 6.016C106.017 5.792 106.295 5.68 106.625 5.68C106.945 5.68 107.217 5.792 107.441 6.016C107.665 6.24 107.777 6.51733 107.777 6.848C107.777 7.17867 107.665 7.456 107.441 7.68C107.217 7.904 106.945 8.016 106.625 8.016ZM107.521 9.184V18H105.697V9.184H107.521ZM120.2 18L115.896 13.024V18H114.072V6.88H115.896V11.952L120.216 6.88H122.504L117.672 12.448L122.584 18H120.2ZM123.589 13.552C123.589 12.6667 123.771 11.8827 124.133 11.2C124.507 10.5173 125.008 9.98933 125.637 9.616C126.277 9.232 126.981 9.04 127.749 9.04C128.443 9.04 129.045 9.17867 129.557 9.456C130.08 9.72267 130.496 10.0587 130.805 10.464V9.184H132.645V18H130.805V16.688C130.496 17.104 130.075 17.4507 129.541 17.728C129.008 18.0053 128.4 18.144 127.717 18.144C126.96 18.144 126.267 17.952 125.637 17.568C125.008 17.1733 124.507 16.6293 124.133 15.936C123.771 15.232 123.589 14.4373 123.589 13.552ZM130.805 13.584C130.805 12.976 130.677 12.448 130.421 12C130.176 11.552 129.851 11.2107 129.445 10.976C129.04 10.7413 128.603 10.624 128.133 10.624C127.664 10.624 127.227 10.7413 126.821 10.976C126.416 11.2 126.085 11.536 125.829 11.984C125.584 12.4213 125.461 12.944 125.461 13.552C125.461 14.16 125.584 14.6933 125.829 15.152C126.085 15.6107 126.416 15.9627 126.821 16.208C127.237 16.4427 127.675 16.56 128.133 16.56C128.603 16.56 129.04 16.4427 129.445 16.208C129.851 15.9733 130.176 15.632 130.421 15.184C130.677 14.7253 130.805 14.192 130.805 13.584ZM145.713 9.04C146.406 9.04 147.025 9.184 147.569 9.472C148.124 9.76 148.556 10.1867 148.865 10.752C149.185 11.3173 149.345 12 149.345 12.8V18H147.537V13.072C147.537 12.2827 147.34 11.68 146.945 11.264C146.55 10.8373 146.012 10.624 145.329 10.624C144.646 10.624 144.102 10.8373 143.697 11.264C143.302 11.68 143.105 12.2827 143.105 13.072V18H141.297V13.072C141.297 12.2827 141.1 11.68 140.705 11.264C140.31 10.8373 139.772 10.624 139.089 10.624C138.406 10.624 137.862 10.8373 137.457 11.264C137.062 11.68 136.865 12.2827 136.865 13.072V18H135.041V9.184H136.865V10.192C137.164 9.82933 137.542 9.54667 138.001 9.344C138.46 9.14133 138.95 9.04 139.473 9.04C140.177 9.04 140.806 9.18933 141.361 9.488C141.916 9.78667 142.342 10.2187 142.641 10.784C142.908 10.2507 143.324 9.82933 143.889 9.52C144.454 9.2 145.062 9.04 145.713 9.04ZM152.594 8.016C152.263 8.016 151.986 7.904 151.762 7.68C151.538 7.456 151.426 7.17867 151.426 6.848C151.426 6.51733 151.538 6.24 151.762 6.016C151.986 5.792 152.263 5.68 152.594 5.68C152.914 5.68 153.186 5.792 153.41 6.016C153.634 6.24 153.746 6.51733 153.746 6.848C153.746 7.17867 153.634 7.456 153.41 7.68C153.186 7.904 152.914 8.016 152.594 8.016ZM153.49 9.184V18H151.666V9.184H153.49Z" fill="black"/>
<path d="M63.5848 29.49C63.4381 28.75 62.9815 28.38 62.2148 28.38C61.6215 28.38 61.1781 28.61 60.8848 29.07C60.5915 29.5233 60.4481 30.2733 60.4548 31.32C60.6081 30.9733 60.8615 30.7033 61.2148 30.51C61.5748 30.31 61.9748 30.21 62.4148 30.21C63.1015 30.21 63.6481 30.4233 64.0548 30.85C64.4681 31.2767 64.6748 31.8667 64.6748 32.62C64.6748 33.0733 64.5848 33.48 64.4048 33.84C64.2315 34.2 63.9648 34.4867 63.6048 34.7C63.2515 34.9133 62.8215 35.02 62.3148 35.02C61.6281 35.02 61.0915 34.8667 60.7048 34.56C60.3181 34.2533 60.0481 33.83 59.8948 33.29C59.7415 32.75 59.6648 32.0833 59.6648 31.29C59.6648 28.8433 60.5181 27.62 62.2248 27.62C62.8781 27.62 63.3915 27.7967 63.7648 28.15C64.1381 28.5033 64.3581 28.95 64.4248 29.49H63.5848ZM62.2248 30.98C61.9381 30.98 61.6681 31.04 61.4148 31.16C61.1615 31.2733 60.9548 31.45 60.7948 31.69C60.6415 31.9233 60.5648 32.21 60.5648 32.55C60.5648 33.0567 60.7115 33.47 61.0048 33.79C61.2981 34.1033 61.7181 34.26 62.2648 34.26C62.7315 34.26 63.1015 34.1167 63.3748 33.83C63.6548 33.5367 63.7948 33.1433 63.7948 32.65C63.7948 32.13 63.6615 31.7233 63.3948 31.43C63.1281 31.13 62.7381 30.98 62.2248 30.98ZM65.6825 33.39V32.7L69.1925 27.84H70.2825V32.6H71.2825V33.39H70.2825V35H69.3825V33.39H65.6825ZM69.4225 28.79L66.7325 32.6H69.4225V28.79ZM71.9715 33.39V32.7L75.4815 27.84H76.5715V32.6H77.5715V33.39H76.5715V35H75.6715V33.39H71.9715ZM75.7115 28.79L73.0215 32.6H75.7115V28.79ZM82.9306 28.48L80.1506 35H79.2306L82.0506 28.57H78.1906V27.79H82.9306V28.48ZM83.7196 33.39V32.7L87.2296 27.84H88.3196V32.6H89.3196V33.39H88.3196V35H87.4196V33.39H83.7196ZM87.4596 28.79L84.7696 32.6H87.4596V28.79ZM96.5547 28.03V33.18C96.5547 33.7533 96.378 34.2133 96.0247 34.56C95.6713 34.9 95.2047 35.07 94.6247 35.07C94.038 35.07 93.568 34.8967 93.2147 34.55C92.8613 34.1967 92.6847 33.7167 92.6847 33.11H93.5947C93.6013 33.45 93.688 33.7267 93.8547 33.94C94.028 34.1533 94.2847 34.26 94.6247 34.26C94.9647 34.26 95.218 34.16 95.3847 33.96C95.5513 33.7533 95.6347 33.4933 95.6347 33.18V28.03H96.5547ZM99.2574 27.6V35H98.3474V27.6H99.2574ZM105.684 35.07C105.224 35.07 104.811 34.99 104.444 34.83C104.084 34.6633 103.801 34.4367 103.594 34.15C103.388 33.8567 103.281 33.52 103.274 33.14H104.244C104.278 33.4667 104.411 33.7433 104.644 33.97C104.884 34.19 105.231 34.3 105.684 34.3C106.118 34.3 106.458 34.1933 106.704 33.98C106.958 33.76 107.084 33.48 107.084 33.14C107.084 32.8733 107.011 32.6567 106.864 32.49C106.718 32.3233 106.534 32.1967 106.314 32.11C106.094 32.0233 105.798 31.93 105.424 31.83C104.964 31.71 104.594 31.59 104.314 31.47C104.041 31.35 103.804 31.1633 103.604 30.91C103.411 30.65 103.314 30.3033 103.314 29.87C103.314 29.49 103.411 29.1533 103.604 28.86C103.798 28.5667 104.068 28.34 104.414 28.18C104.768 28.02 105.171 27.94 105.624 27.94C106.278 27.94 106.811 28.1033 107.224 28.43C107.644 28.7567 107.881 29.19 107.934 29.73H106.934C106.901 29.4633 106.761 29.23 106.514 29.03C106.268 28.8233 105.941 28.72 105.534 28.72C105.154 28.72 104.844 28.82 104.604 29.02C104.364 29.2133 104.244 29.4867 104.244 29.84C104.244 30.0933 104.314 30.3 104.454 30.46C104.601 30.62 104.778 30.7433 104.984 30.83C105.198 30.91 105.494 31.0033 105.874 31.11C106.334 31.2367 106.704 31.3633 106.984 31.49C107.264 31.61 107.504 31.8 107.704 32.06C107.904 32.3133 108.004 32.66 108.004 33.1C108.004 33.44 107.914 33.76 107.734 34.06C107.554 34.36 107.288 34.6033 106.934 34.79C106.581 34.9767 106.164 35.07 105.684 35.07ZM114.203 29.52V35H113.293V34.19C113.12 34.47 112.877 34.69 112.563 34.85C112.257 35.0033 111.917 35.08 111.543 35.08C111.117 35.08 110.733 34.9933 110.393 34.82C110.053 34.64 109.783 34.3733 109.583 34.02C109.39 33.6667 109.293 33.2367 109.293 32.73V29.52H110.193V32.61C110.193 33.15 110.33 33.5667 110.603 33.86C110.877 34.1467 111.25 34.29 111.723 34.29C112.21 34.29 112.593 34.14 112.873 33.84C113.153 33.54 113.293 33.1033 113.293 32.53V29.52H114.203ZM116.65 30.54C116.837 30.2133 117.11 29.9467 117.47 29.74C117.83 29.5333 118.24 29.43 118.7 29.43C119.193 29.43 119.637 29.5467 120.03 29.78C120.423 30.0133 120.733 30.3433 120.96 30.77C121.187 31.19 121.3 31.68 121.3 32.24C121.3 32.7933 121.187 33.2867 120.96 33.72C120.733 34.1533 120.42 34.49 120.02 34.73C119.627 34.97 119.187 35.09 118.7 35.09C118.227 35.09 117.81 34.9867 117.45 34.78C117.097 34.5733 116.83 34.31 116.65 33.99V35H115.74V27.6H116.65V30.54ZM120.37 32.24C120.37 31.8267 120.287 31.4667 120.12 31.16C119.953 30.8533 119.727 30.62 119.44 30.46C119.16 30.3 118.85 30.22 118.51 30.22C118.177 30.22 117.867 30.3033 117.58 30.47C117.3 30.63 117.073 30.8667 116.9 31.18C116.733 31.4867 116.65 31.8433 116.65 32.25C116.65 32.6633 116.733 33.0267 116.9 33.34C117.073 33.6467 117.3 33.8833 117.58 34.05C117.867 34.21 118.177 34.29 118.51 34.29C118.85 34.29 119.16 34.21 119.44 34.05C119.727 33.8833 119.953 33.6467 120.12 33.34C120.287 33.0267 120.37 32.66 120.37 32.24ZM122.158 32.24C122.158 31.68 122.271 31.19 122.498 30.77C122.724 30.3433 123.034 30.0133 123.428 29.78C123.828 29.5467 124.271 29.43 124.758 29.43C125.238 29.43 125.654 29.5333 126.008 29.74C126.361 29.9467 126.624 30.2067 126.798 30.52V29.52H127.718V35H126.798V33.98C126.618 34.3 126.348 34.5667 125.988 34.78C125.634 34.9867 125.221 35.09 124.748 35.09C124.261 35.09 123.821 34.97 123.428 34.73C123.034 34.49 122.724 34.1533 122.498 33.72C122.271 33.2867 122.158 32.7933 122.158 32.24ZM126.798 32.25C126.798 31.8367 126.714 31.4767 126.548 31.17C126.381 30.8633 126.154 30.63 125.868 30.47C125.588 30.3033 125.278 30.22 124.938 30.22C124.598 30.22 124.288 30.3 124.008 30.46C123.728 30.62 123.504 30.8533 123.338 31.16C123.171 31.4667 123.088 31.8267 123.088 32.24C123.088 32.66 123.171 33.0267 123.338 33.34C123.504 33.6467 123.728 33.8833 124.008 34.05C124.288 34.21 124.598 34.29 124.938 34.29C125.278 34.29 125.588 34.21 125.868 34.05C126.154 33.8833 126.381 33.6467 126.548 33.34C126.714 33.0267 126.798 32.6633 126.798 32.25ZM131.926 29.42C132.592 29.42 133.132 29.6233 133.546 30.03C133.959 30.43 134.166 31.01 134.166 31.77V35H133.266V31.9C133.266 31.3533 133.129 30.9367 132.856 30.65C132.582 30.3567 132.209 30.21 131.736 30.21C131.256 30.21 130.872 30.36 130.586 30.66C130.306 30.96 130.166 31.3967 130.166 31.97V35H129.256V29.52H130.166V30.3C130.346 30.02 130.589 29.8033 130.896 29.65C131.209 29.4967 131.552 29.42 131.926 29.42ZM136.142 28.63C135.969 28.63 135.822 28.57 135.702 28.45C135.589 28.33 135.532 28.1833 135.532 28.01C135.532 27.8367 135.589 27.69 135.702 27.57C135.822 27.45 135.969 27.39 136.142 27.39C136.315 27.39 136.459 27.45 136.572 27.57C136.692 27.69 136.752 27.8367 136.752 28.01C136.752 28.1833 136.692 28.33 136.572 28.45C136.459 28.57 136.315 28.63 136.142 28.63ZM136.592 36.19C136.592 36.6767 136.469 37.0333 136.222 37.26C135.975 37.4867 135.615 37.6 135.142 37.6H134.612V36.83H134.992C135.245 36.83 135.422 36.78 135.522 36.68C135.629 36.58 135.682 36.41 135.682 36.17V29.52H136.592V36.19ZM138.603 28.63C138.429 28.63 138.283 28.57 138.163 28.45C138.043 28.33 137.983 28.1833 137.983 28.01C137.983 27.8367 138.043 27.69 138.163 27.57C138.283 27.45 138.429 27.39 138.603 27.39C138.769 27.39 138.909 27.45 139.023 27.57C139.143 27.69 139.203 27.8367 139.203 28.01C139.203 28.1833 139.143 28.33 139.023 28.45C138.909 28.57 138.769 28.63 138.603 28.63ZM139.043 29.52V35H138.133V29.52H139.043ZM141.503 30.41C141.663 30.0967 141.89 29.8533 142.183 29.68C142.483 29.5067 142.847 29.42 143.273 29.42V30.36H143.033C142.013 30.36 141.503 30.9133 141.503 32.02V35H140.593V29.52H141.503V30.41ZM149.2 35.07C148.74 35.07 148.327 34.99 147.96 34.83C147.6 34.6633 147.317 34.4367 147.11 34.15C146.903 33.8567 146.797 33.52 146.79 33.14H147.76C147.793 33.4667 147.927 33.7433 148.16 33.97C148.4 34.19 148.747 34.3 149.2 34.3C149.633 34.3 149.973 34.1933 150.22 33.98C150.473 33.76 150.6 33.48 150.6 33.14C150.6 32.8733 150.527 32.6567 150.38 32.49C150.233 32.3233 150.05 32.1967 149.83 32.11C149.61 32.0233 149.313 31.93 148.94 31.83C148.48 31.71 148.11 31.59 147.83 31.47C147.557 31.35 147.32 31.1633 147.12 30.91C146.927 30.65 146.83 30.3033 146.83 29.87C146.83 29.49 146.927 29.1533 147.12 28.86C147.313 28.5667 147.583 28.34 147.93 28.18C148.283 28.02 148.687 27.94 149.14 27.94C149.793 27.94 150.327 28.1033 150.74 28.43C151.16 28.7567 151.397 29.19 151.45 29.73H150.45C150.417 29.4633 150.277 29.23 150.03 29.03C149.783 28.8233 149.457 28.72 149.05 28.72C148.67 28.72 148.36 28.82 148.12 29.02C147.88 29.2133 147.76 29.4867 147.76 29.84C147.76 30.0933 147.83 30.3 147.97 30.46C148.117 30.62 148.293 30.7433 148.5 30.83C148.713 30.91 149.01 31.0033 149.39 31.11C149.85 31.2367 150.22 31.3633 150.5 31.49C150.78 31.61 151.02 31.8 151.22 32.06C151.42 32.3133 151.52 32.66 151.52 33.1C151.52 33.44 151.43 33.76 151.25 34.06C151.07 34.36 150.803 34.6033 150.45 34.79C150.097 34.9767 149.68 35.07 149.2 35.07ZM152.519 32.24C152.519 31.68 152.632 31.19 152.859 30.77C153.086 30.3433 153.396 30.0133 153.789 29.78C154.189 29.5467 154.632 29.43 155.119 29.43C155.599 29.43 156.016 29.5333 156.369 29.74C156.722 29.9467 156.986 30.2067 157.159 30.52V29.52H158.079V35H157.159V33.98C156.979 34.3 156.709 34.5667 156.349 34.78C155.996 34.9867 155.582 35.09 155.109 35.09C154.622 35.09 154.182 34.97 153.789 34.73C153.396 34.49 153.086 34.1533 152.859 33.72C152.632 33.2867 152.519 32.7933 152.519 32.24ZM157.159 32.25C157.159 31.8367 157.076 31.4767 156.909 31.17C156.742 30.8633 156.516 30.63 156.229 30.47C155.949 30.3033 155.639 30.22 155.299 30.22C154.959 30.22 154.649 30.3 154.369 30.46C154.089 30.62 153.866 30.8533 153.699 31.16C153.532 31.4667 153.449 31.8267 153.449 32.24C153.449 32.66 153.532 33.0267 153.699 33.34C153.866 33.6467 154.089 33.8833 154.369 34.05C154.649 34.21 154.959 34.29 155.299 34.29C155.639 34.29 155.949 34.21 156.229 34.05C156.516 33.8833 156.742 33.6467 156.909 33.34C157.076 33.0267 157.159 32.6633 157.159 32.25ZM166.917 29.52L165.207 35H164.267L162.947 30.65L161.627 35H160.687L158.967 29.52H159.897L161.157 34.12L162.517 29.52H163.447L164.777 34.13L166.017 29.52H166.917ZM167.48 32.24C167.48 31.68 167.593 31.19 167.82 30.77C168.047 30.3433 168.357 30.0133 168.75 29.78C169.15 29.5467 169.593 29.43 170.08 29.43C170.56 29.43 170.977 29.5333 171.33 29.74C171.683 29.9467 171.947 30.2067 172.12 30.52V29.52H173.04V35H172.12V33.98C171.94 34.3 171.67 34.5667 171.31 34.78C170.957 34.9867 170.543 35.09 170.07 35.09C169.583 35.09 169.143 34.97 168.75 34.73C168.357 34.49 168.047 34.1533 167.82 33.72C167.593 33.2867 167.48 32.7933 167.48 32.24ZM172.12 32.25C172.12 31.8367 172.037 31.4767 171.87 31.17C171.703 30.8633 171.477 30.63 171.19 30.47C170.91 30.3033 170.6 30.22 170.26 30.22C169.92 30.22 169.61 30.3 169.33 30.46C169.05 30.62 168.827 30.8533 168.66 31.16C168.493 31.4667 168.41 31.8267 168.41 32.24C168.41 32.66 168.493 33.0267 168.66 33.34C168.827 33.6467 169.05 33.8833 169.33 34.05C169.61 34.21 169.92 34.29 170.26 34.29C170.6 34.29 170.91 34.21 171.19 34.05C171.477 33.8833 171.703 33.6467 171.87 33.34C172.037 33.0267 172.12 32.6633 172.12 32.25ZM177.298 29.42C177.711 29.42 178.085 29.51 178.418 29.69C178.751 29.8633 179.011 30.1267 179.198 30.48C179.391 30.8333 179.488 31.2633 179.488 31.77V35H178.588V31.9C178.588 31.3533 178.451 30.9367 178.178 30.65C177.905 30.3567 177.531 30.21 177.058 30.21C176.578 30.21 176.195 30.36 175.908 30.66C175.628 30.96 175.488 31.3967 175.488 31.97V35H174.578V27.6H175.488V30.3C175.668 30.02 175.915 29.8033 176.228 29.65C176.548 29.4967 176.905 29.42 177.298 29.42ZM180.634 32.24C180.634 31.68 180.748 31.19 180.974 30.77C181.201 30.3433 181.511 30.0133 181.904 29.78C182.304 29.5467 182.748 29.43 183.234 29.43C183.714 29.43 184.131 29.5333 184.484 29.74C184.838 29.9467 185.101 30.2067 185.274 30.52V29.52H186.194V35H185.274V33.98C185.094 34.3 184.824 34.5667 184.464 34.78C184.111 34.9867 183.698 35.09 183.224 35.09C182.738 35.09 182.298 34.97 181.904 34.73C181.511 34.49 181.201 34.1533 180.974 33.72C180.748 33.2867 180.634 32.7933 180.634 32.24ZM185.274 32.25C185.274 31.8367 185.191 31.4767 185.024 31.17C184.858 30.8633 184.631 30.63 184.344 30.47C184.064 30.3033 183.754 30.22 183.414 30.22C183.074 30.22 182.764 30.3 182.484 30.46C182.204 30.62 181.981 30.8533 181.814 31.16C181.648 31.4667 181.564 31.8267 181.564 32.24C181.564 32.66 181.648 33.0267 181.814 33.34C181.981 33.6467 182.204 33.8833 182.484 34.05C182.764 34.21 183.074 34.29 183.414 34.29C183.754 34.29 184.064 34.21 184.344 34.05C184.631 33.8833 184.858 33.6467 185.024 33.34C185.191 33.0267 185.274 32.6633 185.274 32.25ZM190.402 29.42C191.069 29.42 191.609 29.6233 192.022 30.03C192.435 30.43 192.642 31.01 192.642 31.77V35H191.742V31.9C191.742 31.3533 191.605 30.9367 191.332 30.65C191.059 30.3567 190.685 30.21 190.212 30.21C189.732 30.21 189.349 30.36 189.062 30.66C188.782 30.96 188.642 31.3967 188.642 31.97V35H187.732V29.52H188.642V30.3C188.822 30.02 189.065 29.8033 189.372 29.65C189.685 29.4967 190.029 29.42 190.402 29.42Z" fill="#65687D"/>
<path d="M63.5848 45.49C63.4381 44.75 62.9815 44.38 62.2148 44.38C61.6215 44.38 61.1781 44.61 60.8848 45.07C60.5915 45.5233 60.4481 46.2733 60.4548 47.32C60.6081 46.9733 60.8615 46.7033 61.2148 46.51C61.5748 46.31 61.9748 46.21 62.4148 46.21C63.1015 46.21 63.6481 46.4233 64.0548 46.85C64.4681 47.2767 64.6748 47.8667 64.6748 48.62C64.6748 49.0733 64.5848 49.48 64.4048 49.84C64.2315 50.2 63.9648 50.4867 63.6048 50.7C63.2515 50.9133 62.8215 51.02 62.3148 51.02C61.6281 51.02 61.0915 50.8667 60.7048 50.56C60.3181 50.2533 60.0481 49.83 59.8948 49.29C59.7415 48.75 59.6648 48.0833 59.6648 47.29C59.6648 44.8433 60.5181 43.62 62.2248 43.62C62.8781 43.62 63.3915 43.7967 63.7648 44.15C64.1381 44.5033 64.3581 44.95 64.4248 45.49H63.5848ZM62.2248 46.98C61.9381 46.98 61.6681 47.04 61.4148 47.16C61.1615 47.2733 60.9548 47.45 60.7948 47.69C60.6415 47.9233 60.5648 48.21 60.5648 48.55C60.5648 49.0567 60.7115 49.47 61.0048 49.79C61.2981 50.1033 61.7181 50.26 62.2648 50.26C62.7315 50.26 63.1015 50.1167 63.3748 49.83C63.6548 49.5367 63.7948 49.1433 63.7948 48.65C63.7948 48.13 63.6615 47.7233 63.3948 47.43C63.1281 47.13 62.7381 46.98 62.2248 46.98ZM65.6825 49.39V48.7L69.1925 43.84H70.2825V48.6H71.2825V49.39H70.2825V51H69.3825V49.39H65.6825ZM69.4225 44.79L66.7325 48.6H69.4225V44.79ZM71.9715 49.39V48.7L75.4815 43.84H76.5715V48.6H77.5715V49.39H76.5715V51H75.6715V49.39H71.9715ZM75.7115 44.79L73.0215 48.6H75.7115V44.79ZM82.9306 44.48L80.1506 51H79.2306L82.0506 44.57H78.1906V43.79H82.9306V44.48ZM83.9396 47.31C83.9396 46.1633 84.1262 45.27 84.4996 44.63C84.8729 43.9833 85.5262 43.66 86.4596 43.66C87.3862 43.66 88.0362 43.9833 88.4096 44.63C88.7829 45.27 88.9696 46.1633 88.9696 47.31C88.9696 48.4767 88.7829 49.3833 88.4096 50.03C88.0362 50.6767 87.3862 51 86.4596 51C85.5262 51 84.8729 50.6767 84.4996 50.03C84.1262 49.3833 83.9396 48.4767 83.9396 47.31ZM88.0696 47.31C88.0696 46.73 88.0296 46.24 87.9496 45.84C87.8762 45.4333 87.7196 45.1067 87.4796 44.86C87.2462 44.6133 86.9062 44.49 86.4596 44.49C86.0062 44.49 85.6596 44.6133 85.4196 44.86C85.1862 45.1067 85.0296 45.4333 84.9496 45.84C84.8762 46.24 84.8396 46.73 84.8396 47.31C84.8396 47.91 84.8762 48.4133 84.9496 48.82C85.0296 49.2267 85.1862 49.5533 85.4196 49.8C85.6596 50.0467 86.0062 50.17 86.4596 50.17C86.9062 50.17 87.2462 50.0467 87.4796 49.8C87.7196 49.5533 87.8762 49.2267 87.9496 48.82C88.0296 48.4133 88.0696 47.91 88.0696 47.31ZM96.5449 44.03V49.18C96.5449 49.7533 96.3682 50.2133 96.0149 50.56C95.6616 50.9 95.1949 51.07 94.6149 51.07C94.0282 51.07 93.5582 50.8967 93.2049 50.55C92.8516 50.1967 92.6749 49.7167 92.6749 49.11H93.5849C93.5916 49.45 93.6782 49.7267 93.8449 49.94C94.0182 50.1533 94.2749 50.26 94.6149 50.26C94.9549 50.26 95.2082 50.16 95.3749 49.96C95.5416 49.7533 95.6249 49.4933 95.6249 49.18V44.03H96.5449ZM99.2476 43.6V51H98.3376V43.6H99.2476ZM107.585 49.45H104.545L103.985 51H103.025L105.545 44.07H106.595L109.105 51H108.145L107.585 49.45ZM107.325 48.71L106.065 45.19L104.805 48.71H107.325ZM114.923 45.52L111.623 53.58H110.683L111.763 50.94L109.553 45.52H110.563L112.283 49.96L113.983 45.52H114.923ZM115.498 48.24C115.498 47.68 115.611 47.19 115.838 46.77C116.064 46.3433 116.374 46.0133 116.768 45.78C117.168 45.5467 117.611 45.43 118.098 45.43C118.578 45.43 118.994 45.5333 119.348 45.74C119.701 45.9467 119.964 46.2067 120.138 46.52V45.52H121.058V51H120.138V49.98C119.958 50.3 119.688 50.5667 119.328 50.78C118.974 50.9867 118.561 51.09 118.088 51.09C117.601 51.09 117.161 50.97 116.768 50.73C116.374 50.49 116.064 50.1533 115.838 49.72C115.611 49.2867 115.498 48.7933 115.498 48.24ZM120.138 48.25C120.138 47.8367 120.054 47.4767 119.888 47.17C119.721 46.8633 119.494 46.63 119.208 46.47C118.928 46.3033 118.618 46.22 118.278 46.22C117.938 46.22 117.628 46.3 117.348 46.46C117.068 46.62 116.844 46.8533 116.678 47.16C116.511 47.4667 116.428 47.8267 116.428 48.24C116.428 48.66 116.511 49.0267 116.678 49.34C116.844 49.6467 117.068 49.8833 117.348 50.05C117.628 50.21 117.938 50.29 118.278 50.29C118.618 50.29 118.928 50.21 119.208 50.05C119.494 49.8833 119.721 49.6467 119.888 49.34C120.054 49.0267 120.138 48.6633 120.138 48.25ZM125.265 45.42C125.932 45.42 126.472 45.6233 126.885 46.03C127.299 46.43 127.505 47.01 127.505 47.77V51H126.605V47.9C126.605 47.3533 126.469 46.9367 126.195 46.65C125.922 46.3567 125.549 46.21 125.075 46.21C124.595 46.21 124.212 46.36 123.925 46.66C123.645 46.96 123.505 47.3967 123.505 47.97V51H122.595V45.52H123.505V46.3C123.685 46.02 123.929 45.8033 124.235 45.65C124.549 45.4967 124.892 45.42 125.265 45.42ZM129.462 44.63C129.289 44.63 129.142 44.57 129.022 44.45C128.902 44.33 128.842 44.1833 128.842 44.01C128.842 43.8367 128.902 43.69 129.022 43.57C129.142 43.45 129.289 43.39 129.462 43.39C129.629 43.39 129.769 43.45 129.882 43.57C130.002 43.69 130.062 43.8367 130.062 44.01C130.062 44.1833 130.002 44.33 129.882 44.45C129.769 44.57 129.629 44.63 129.462 44.63ZM129.902 45.52V51H128.992V45.52H129.902ZM139.599 51H138.689L135.029 45.45V51H134.119V44.02H135.029L138.689 49.56V44.02H139.599V51ZM143.41 45.43C143.883 45.43 144.297 45.5333 144.65 45.74C145.01 45.9467 145.277 46.2067 145.45 46.52V45.52H146.37V51.12C146.37 51.62 146.263 52.0633 146.05 52.45C145.837 52.8433 145.53 53.15 145.13 53.37C144.737 53.59 144.277 53.7 143.75 53.7C143.03 53.7 142.43 53.53 141.95 53.19C141.47 52.85 141.187 52.3867 141.1 51.8H142C142.1 52.1333 142.307 52.4 142.62 52.6C142.933 52.8067 143.31 52.91 143.75 52.91C144.25 52.91 144.657 52.7533 144.97 52.44C145.29 52.1267 145.45 51.6867 145.45 51.12V49.97C145.27 50.29 145.003 50.5567 144.65 50.77C144.297 50.9833 143.883 51.09 143.41 51.09C142.923 51.09 142.48 50.97 142.08 50.73C141.687 50.49 141.377 50.1533 141.15 49.72C140.923 49.2867 140.81 48.7933 140.81 48.24C140.81 47.68 140.923 47.19 141.15 46.77C141.377 46.3433 141.687 46.0133 142.08 45.78C142.48 45.5467 142.923 45.43 143.41 45.43ZM145.45 48.25C145.45 47.8367 145.367 47.4767 145.2 47.17C145.033 46.8633 144.807 46.63 144.52 46.47C144.24 46.3033 143.93 46.22 143.59 46.22C143.25 46.22 142.94 46.3 142.66 46.46C142.38 46.62 142.157 46.8533 141.99 47.16C141.823 47.4667 141.74 47.8267 141.74 48.24C141.74 48.66 141.823 49.0267 141.99 49.34C142.157 49.6467 142.38 49.8833 142.66 50.05C142.94 50.21 143.25 50.29 143.59 50.29C143.93 50.29 144.24 50.21 144.52 50.05C144.807 49.8833 145.033 49.6467 145.2 49.34C145.367 49.0267 145.45 48.6633 145.45 48.25ZM147.568 48.24C147.568 47.68 147.681 47.19 147.908 46.77C148.135 46.3433 148.445 46.0133 148.838 45.78C149.238 45.5467 149.681 45.43 150.168 45.43C150.648 45.43 151.065 45.5333 151.418 45.74C151.771 45.9467 152.035 46.2067 152.208 46.52V45.52H153.128V51H152.208V49.98C152.028 50.3 151.758 50.5667 151.398 50.78C151.045 50.9867 150.631 51.09 150.158 51.09C149.671 51.09 149.231 50.97 148.838 50.73C148.445 50.49 148.135 50.1533 147.908 49.72C147.681 49.2867 147.568 48.7933 147.568 48.24ZM152.208 48.25C152.208 47.8367 152.125 47.4767 151.958 47.17C151.791 46.8633 151.565 46.63 151.278 46.47C150.998 46.3033 150.688 46.22 150.348 46.22C150.008 46.22 149.698 46.3 149.418 46.46C149.138 46.62 148.915 46.8533 148.748 47.16C148.581 47.4667 148.498 47.8267 148.498 48.24C148.498 48.66 148.581 49.0267 148.748 49.34C148.915 49.6467 149.138 49.8833 149.418 50.05C149.698 50.21 150.008 50.29 150.348 50.29C150.688 50.29 150.998 50.21 151.278 50.05C151.565 49.8833 151.791 49.6467 151.958 49.34C152.125 49.0267 152.208 48.6633 152.208 48.25ZM157.336 45.42C158.002 45.42 158.542 45.6233 158.956 46.03C159.369 46.43 159.576 47.01 159.576 47.77V51H158.676V47.9C158.676 47.3533 158.539 46.9367 158.266 46.65C157.992 46.3567 157.619 46.21 157.146 46.21C156.666 46.21 156.282 46.36 155.996 46.66C155.716 46.96 155.576 47.3967 155.576 47.97V51H154.666V45.52H155.576V46.3C155.756 46.02 155.999 45.8033 156.306 45.65C156.619 45.4967 156.962 45.42 157.336 45.42ZM161.552 44.63C161.379 44.63 161.232 44.57 161.112 44.45C160.999 44.33 160.942 44.1833 160.942 44.01C160.942 43.8367 160.999 43.69 161.112 43.57C161.232 43.45 161.379 43.39 161.552 43.39C161.726 43.39 161.869 43.45 161.982 43.57C162.102 43.69 162.162 43.8367 162.162 44.01C162.162 44.1833 162.102 44.33 161.982 44.45C161.869 44.57 161.726 44.63 161.552 44.63ZM162.002 52.19C162.002 52.6767 161.879 53.0333 161.632 53.26C161.386 53.4867 161.026 53.6 160.552 53.6H160.022V52.83H160.402C160.656 52.83 160.832 52.78 160.932 52.68C161.039 52.58 161.092 52.41 161.092 52.17V45.52H162.002V52.19ZM168.403 45.52V51H167.493V50.19C167.319 50.47 167.076 50.69 166.763 50.85C166.456 51.0033 166.116 51.08 165.743 51.08C165.316 51.08 164.933 50.9933 164.593 50.82C164.253 50.64 163.983 50.3733 163.783 50.02C163.589 49.6667 163.493 49.2367 163.493 48.73V45.52H164.393V48.61C164.393 49.15 164.529 49.5667 164.803 49.86C165.076 50.1467 165.449 50.29 165.923 50.29C166.409 50.29 166.793 50.14 167.073 49.84C167.353 49.54 167.493 49.1033 167.493 48.53V45.52H168.403ZM172.999 51L170.849 48.58V51H169.939V43.6H170.849V47.95L172.959 45.52H174.229L171.649 48.25L174.239 51H172.999Z" fill="#65687D"/>
</svg>
